<svg width="291" height="207" viewBox="0 0 291 207" fill="none" xmlns="http://www.w3.org/2000/svg">
<path d="M83.742 94.1895C83.742 94.1895 32.7356 136.291 20.1848 143.576C7.63403 150.862 -3.69902 133.86 2.77847 119.286C9.25596 104.712 17.757 103.499 17.757 103.499C17.757 103.499 -0.0560699 73.5418 23.8303 50.0622C47.7167 26.5826 73.2173 22.5354 77.2671 34.2752C77.2671 34.2752 95.0495 11.2177 130.3 2.29454C162.28 -5.80233 161.472 8.77203 143.659 26.5851C143.659 26.5851 155.803 20.5118 161.472 22.538C167.136 24.5616 83.742 94.1895 83.742 94.1895Z" fill="#A36EBA"/>
<path d="M232.717 91.3576C232.717 91.3576 129.486 142.364 121.392 147.629C113.295 152.891 110.867 154.106 111.271 157.749C111.676 161.392 127.058 153.702 127.058 153.702C127.058 153.702 115.723 166.25 146.491 160.584C177.256 154.917 214.906 145.201 250.126 123.341C285.345 101.481 293.442 97.4334 288.988 89.3365C284.534 81.2397 270.771 82.859 263.081 86.502C255.39 90.1449 275.629 77.5967 267.534 76.3816C259.435 75.1638 232.717 91.3576 232.717 91.3576Z" fill="#A36EBA"/>
<path d="M170.981 52.2904C170.981 52.2904 170.981 43.183 153.979 39.5375C136.977 35.892 136.977 43.7893 138.192 50.4689C139.407 57.1485 149.123 61.4003 150.945 61.4003C152.766 61.4003 170.981 52.2904 170.981 52.2904Z" fill="#48598B"/>
<path d="M148.918 99.0476C148.918 99.0476 144.06 110.383 152.157 117.265C160.254 124.147 174.422 126.981 187.377 117.265C200.332 107.549 168.755 75.9747 148.918 99.0476Z" fill="#273150"/>
<path d="M158.228 55.125C158.228 55.125 173.457 37.1226 191.828 41.3616C212.88 46.2197 220.368 58.1616 224.011 76.3789C224.011 76.3789 235.548 70.9145 239.191 87.9166C242.834 104.919 220.974 112.814 208.224 112.207C195.473 111.598 158.228 55.125 158.228 55.125Z" fill="#48598B"/>
<path d="M154.181 57.7575C154.181 57.7575 169.41 39.7551 187.781 43.9942C208.833 48.8523 216.321 60.7942 219.964 79.0115C219.964 79.0115 231.501 73.5471 235.144 90.5492C238.787 107.551 216.927 115.446 204.174 114.84C191.424 114.228 154.181 57.7575 154.181 57.7575Z" fill="#273150"/>
<path d="M143.454 79.6176C143.454 79.6176 134.347 85.6909 130.701 76.581C127.056 67.471 141.024 59.5788 146.488 60.1851C151.955 60.794 150.134 71.7228 143.454 79.6176Z" fill="#273150"/>
<path d="M168.957 54.1144C168.957 54.1144 168.957 45.007 151.955 41.3615C134.953 37.716 134.953 45.6133 136.168 52.2929C137.383 58.9725 147.1 63.2243 148.921 63.2243C150.74 63.2217 168.957 54.1144 168.957 54.1144Z" fill="#273150"/>
<path d="M165.517 126.173C165.517 126.173 153.575 138.519 146.895 146.414C140.748 153.677 126.856 159.975 124.833 169.691C122.809 179.407 144.061 182.444 150.538 175.967C157.016 169.489 178.472 143.582 181.71 136.7C184.946 129.816 176.445 115.646 165.517 126.173Z" fill="#CE6D3E"/>
<path d="M187.377 122.123C187.377 122.123 180.899 117.265 176.852 117.669C172.805 118.073 161.065 130.826 161.065 130.826C161.065 130.826 165.721 131.028 168.758 133.863C171.794 136.697 175.64 145.401 175.64 145.401C175.64 145.401 191.831 126.981 187.377 122.123Z" fill="#C93F37"/>
<path d="M174.018 176.371C174.018 176.371 160.861 166.723 149.19 163.955C139.052 161.553 134.145 161.121 128.883 163.955C123.62 166.79 119.571 175.089 124.227 176.91C128.88 178.732 174.018 176.371 174.018 176.371Z" fill="#F6874E"/>
<path d="M235.145 183.253C235.145 183.253 236.764 157.345 234.336 141.151C231.908 124.958 228.263 112.814 220.573 107.956C212.88 103.097 198.713 110.79 188.188 115.241C179.605 118.872 176.044 135.887 170.375 145.603C165.527 153.915 161.874 161.796 174.018 176.368C186.162 190.94 228.263 209.564 235.145 183.253Z" fill="#D09435"/>
<path d="M235.145 183.253C235.145 183.253 236.764 157.345 234.336 141.151C231.909 124.958 228.263 112.814 220.573 107.956C212.88 103.097 221.788 140.34 214.095 155.726C209.102 165.713 204.783 176.371 216.119 184.872C231.295 196.254 228.263 209.564 235.145 183.253Z" fill="#F6BE4A"/>
<path d="M169.969 105.525C184.065 122.005 187.782 128.6 187.782 128.6C187.782 128.6 202.356 128.196 201.95 118.48C201.543 108.764 196.393 107.17 190.21 98.239C182.924 87.7144 165.262 100.022 169.969 105.525Z" fill="#F6874E"/>
<path d="M169.968 105.525C176.85 114.228 187.172 113.622 187.172 113.622C187.172 113.622 205.996 116.96 190.209 98.239C181.958 88.4512 165.261 100.022 169.968 105.525Z" fill="#CE6D3E"/>
<path d="M159.343 53.4059C159.343 53.4059 145.066 52.1498 141.633 74.1533C137.179 102.693 144.06 113.625 171.994 110.588C199.927 107.551 200.534 89.5361 198.712 76.7857C196.891 64.0303 175.737 49.1541 159.343 53.4059Z" fill="#F6874E"/>
<path d="M159.343 53.4058C159.343 53.4058 145.066 52.1497 141.633 74.1532C137.179 102.693 144.06 113.624 171.994 110.588C171.994 110.588 159.241 96.8244 157.42 84.0715C155.598 71.3186 178.471 53.0348 159.343 53.4058Z" fill="#CE6D3E"/>
<path d="M144.263 65.0945C144.263 65.0945 149.852 53.0323 167.136 55.9359C179.786 58.0618 193.348 70.9145 193.348 70.9145L198.712 66.2585C198.712 66.2585 186.967 48.1026 162.682 50.9755C149.425 52.5437 145.731 60.2363 144.263 65.0945Z" fill="#F6BE4A"/>
<path d="M144.263 65.0945C144.263 65.0945 149.852 53.0323 167.136 55.9359L162.682 50.978C149.425 52.5437 145.731 60.2363 144.263 65.0945Z" fill="#D09435"/>
<path d="M203.571 79.6177C196.891 79.6177 191.831 86.9036 190.211 95.4046C188.771 102.972 187.175 112.407 209.644 111.8C232.11 111.194 216.321 79.6177 203.571 79.6177Z" fill="#273150"/>
<path d="M193.447 88.1188C197.528 88.1188 200.836 83.4285 200.836 77.6428C200.836 71.857 197.528 67.1667 193.447 67.1667C189.367 67.1667 186.059 71.857 186.059 77.6428C186.059 83.4285 189.367 88.1188 193.447 88.1188Z" fill="#F6874E"/>
<path d="M165.241 74.1748C166.595 73.8329 167.228 71.71 166.653 69.4332C166.079 67.1563 164.515 65.5878 163.16 65.9297C161.805 66.2716 161.172 68.3946 161.747 70.6714C162.322 72.9482 163.886 74.5168 165.241 74.1748Z" fill="#263052"/>
<path d="M150.276 78.2827C150.412 76.3618 149.596 74.7389 148.453 74.6579C147.31 74.5768 146.273 76.0684 146.137 77.9893C146.001 79.9103 146.817 81.5332 147.96 81.6142C149.103 81.6952 150.14 80.2037 150.276 78.2827Z" fill="#263052"/>
<path d="M145.004 73.9485L149.66 74.2862" stroke="#273150" stroke-width="2" stroke-miterlimit="10"/>
<path d="M156.476 66.4606C156.476 66.4606 157.757 63.4239 160.052 63.2883" stroke="#273150" stroke-width="2" stroke-miterlimit="10"/>
<path d="M186.926 62.2111C186.926 62.2111 194.013 70.8222 201.281 74.5112C206.776 77.3022 211.179 77.8164 211.179 77.8164L210.079 75.6163L212.816 73.5058C212.816 73.5058 202.545 72.4313 189.068 60.9192L186.926 62.2111Z" fill="#C93F37"/>
<path d="M186.208 61.2057C186.208 61.2057 189.917 71.7227 195.481 77.6783C199.69 82.1808 203.65 84.1737 203.65 84.1737L203.371 81.7305L206.663 80.6868C206.663 80.6868 197.382 76.1587 188.661 60.7273L186.208 61.2057Z" fill="#C93F37"/>
<path d="M190.713 66.7624C193.332 66.3019 195.824 52.3185 189.587 52.0243C183.716 51.7455 177.059 52.495 178.165 56.9208C179.272 61.3466 188.096 67.2229 190.713 66.7624Z" fill="#C93F37"/>
<path d="M192.974 58.8088C192.974 58.8088 192.01 52.8123 190.15 52.9453C188.287 53.0783 189.953 55.6391 190.434 59.5891C190.915 63.539 193.312 61.3389 192.974 58.8088Z" fill="#F7BC4B"/>
<path d="M188.538 63.8638C188.538 63.8638 188.144 61.1035 192.166 58.4327C196.187 55.7618 199.247 54.3062 201.805 55.8923C204.364 57.4784 205.249 64.4548 203.788 67.9724C202.327 71.4874 193.378 68.8166 191.125 67.494C188.871 66.1714 188.538 63.8638 188.538 63.8638Z" fill="#C93F37"/>
<path d="M203.176 61.5281C203.176 61.5281 204.018 67.123 201.516 68.0388C197.799 69.3973 200.142 58.801 200.36 57.1253C200.577 55.4497 203.847 57.5193 203.176 61.5281Z" fill="#F7BC4B"/>
<path d="M123.111 122.732C123.111 122.732 125.539 113.926 124.326 109.373C123.111 104.819 122.505 103.299 118.253 100.872C114.001 98.4438 109.447 98.7457 110.056 93.8875C110.662 89.0294 111.878 91.4597 117.646 92.3705C123.415 93.2812 123.323 96.8423 128.273 98.7456C132.221 100.263 137.381 102.693 140.116 109.068C142.848 115.443 150.438 120.606 143.759 125.16C137.076 129.713 123.717 127.587 123.111 122.732Z" fill="#F6874E"/>
<path d="M189.804 116.861C189.804 116.861 180.492 136.697 177.66 144.794C174.826 152.891 178.469 157.342 184.946 160.988C191.424 164.631 199.114 166.048 205.591 153.093C212.069 140.138 217.735 131.435 215.308 124.958C212.88 118.48 197.901 105.525 189.804 116.861Z" fill="#F6874E"/>
<path d="M189.804 116.861C189.804 116.861 180.492 136.697 177.66 144.794C174.826 152.891 178.469 157.342 184.946 160.988C191.424 164.631 191.424 159.369 197.901 146.414C204.379 133.459 217.738 131.435 215.308 124.958C212.877 118.48 197.901 105.525 189.804 116.861Z" fill="#CE6D3E"/>
<path d="M189.4 118.076C189.4 118.076 197.093 99.8584 199.521 96.2154C201.948 92.5725 207.213 90.1422 212.88 92.1683C218.546 94.1919 221.381 107.955 221.381 113.22C221.381 118.482 213.688 134.272 213.284 137.511C212.88 140.749 212.069 125.771 203.972 120.913C195.875 116.055 189.4 118.076 189.4 118.076Z" fill="#C93F37"/>
<path d="M199.521 96.2154C201.948 92.5725 207.213 90.1422 212.88 92.1683C218.546 94.1919 221.381 107.955 221.381 113.22C221.381 118.482 213.688 134.272 213.284 137.511C212.88 140.749 215.712 107.554 212.476 103.1C207.876 96.7731 199.521 96.2154 199.521 96.2154Z" fill="#EE5D4F"/>
<path d="M200.892 147.905C200.892 147.905 196.456 131.483 181.298 132.128C166.141 132.773 172.795 157.242 187.952 159.174C203.11 161.105 200.892 147.905 200.892 147.905Z" fill="#CE6D3E"/>
<path d="M201.14 150.865C201.14 150.865 196.282 131.299 179.684 132.108C163.086 132.916 153.777 125.766 146.892 123.336C141.589 121.463 132.42 129.409 140.517 135.48C148.614 141.553 170.372 162.602 186.97 165.033C203.568 167.463 201.14 150.865 201.14 150.865Z" fill="#F6874E"/>
<path d="M128.273 118.784C128.273 118.784 118.255 114.837 117.04 113.926C115.825 113.015 115.219 108.764 111.271 108.764C107.324 108.764 110.665 113.015 110.967 115.443C111.271 117.871 114.182 120.161 116.331 123.136C117.646 124.957 119.064 128.298 123.113 130.018C129.918 132.908 137.383 135.482 142.848 133.661C148.312 131.839 137.685 116.658 128.273 118.784Z" fill="#F6874E"/>
<path d="M133.94 108.628C133.94 108.628 134.953 120.908 136.774 121.819C138.596 122.729 143.15 123.336 143.15 123.336C143.15 123.336 137.381 126.979 134.649 123.336C131.916 119.695 133.94 108.628 133.94 108.628Z" fill="#CE6D3E"/>
<path d="M127.199 102.22C126.569 101.465 124.303 100.582 121.908 101.716C119.516 102.849 119.516 103.102 119.642 105.494C119.767 107.886 119.642 112.798 120.396 113.555C121.151 114.31 123.546 115.193 124.93 113.555C126.314 111.918 126.946 109.022 126.946 106.628C126.948 104.233 127.828 102.974 127.199 102.22Z" fill="#F6874E"/>
<path d="M129.992 100.736C129.317 99.9276 126.889 98.981 124.326 100.196C121.763 101.411 121.763 101.68 121.898 104.243C122.034 106.807 121.898 112.069 122.707 112.88C123.515 113.688 126.081 114.635 127.565 112.88C129.049 111.125 129.724 108.022 129.724 105.459C129.724 102.895 130.668 101.544 129.992 100.736Z" fill="#CE6D3E"/>
<path d="M130.803 100.736C130.128 99.9276 127.7 98.981 125.137 100.196C122.573 101.411 122.573 101.68 122.709 104.243C122.845 106.807 122.709 112.069 123.517 112.88C124.326 113.688 126.892 114.635 128.376 112.88C129.859 111.125 130.535 108.022 130.535 105.459C130.535 102.895 131.476 101.544 130.803 100.736Z" fill="#F6874E"/>
<path d="M128.913 101.478C126.787 102.084 124.661 108.764 124.661 110.585C124.661 112.407 126.416 114.331 130.159 114.43C133.602 114.523 132.116 109.033 132.116 109.033C132.116 109.033 131.039 100.869 128.913 101.478Z" fill="#CE6D3E"/>
<path d="M147.097 123.944C147.097 123.944 146.693 114.228 145.782 111.8C144.871 109.373 141.228 106.942 136.976 104.514C132.725 102.087 132.118 100.871 129.992 101.478C127.867 102.084 125.741 108.764 125.741 110.585C125.741 112.407 126.549 113.218 130.294 113.317C133.738 113.409 133.195 109.032 133.195 109.032C133.195 109.032 134.544 110.585 134.848 115.441C135.152 120.296 136.268 127.587 147.097 123.944Z" fill="#F6874E"/>
<path d="M53.1788 164.393L69.1678 163.82L93.154 163.718L98.9229 162.403L65.9291 160.581L53.1788 164.393Z" fill="#634874"/>
<path d="M58.7787 92.0664L75.3766 93.9876L105.129 82.0457L105.352 80.6054L90.7594 76.6836L58.7787 92.0664Z" fill="#634874"/>
<path d="M32.7332 55.4807L41.5976 50.5612L41.8534 50.556L52.9972 44.3113H53.253L64.3097 37.9541L104.589 52.6973V66.4607L64.7165 53.8767L32.7332 70.1548V55.4807Z" fill="#29ACE4"/>
<path d="M64.7165 53.7411L32.7332 70.1548V55.4807L41.6002 50.556H41.8534L52.9972 44.3113H53.253L64.3097 37.9541" fill="#48598B"/>
<path d="M32.7332 70.1547L78.4799 77.896L104.589 66.4606L64.7165 53.741L53.2709 59.6121L53.0048 59.6045L41.8585 65.4271L41.595 65.4245L32.7332 70.1547Z" fill="#634874"/>
<path d="M43.6647 134.467L66.2541 137.442L102.97 128.951L89.1555 124.674L43.6647 134.467Z" fill="#634874"/>
<path d="M67.1443 95.7092L52.5034 88.5896L63.0971 81.3369L105.198 92.9437L67.1443 95.7092Z" fill="#634874"/>
<path d="M32.329 107.045V121.01L66.8756 123.743L102.162 115.848L93.965 107.753L104.387 105.323L81.7186 91.0532L64.5118 93.0768L32.329 107.045Z" fill="#634874"/>
<path d="M32.7332 70.9147L64.3097 54.4165L79.2039 59.1211L79.2883 68.0136L93.0619 63.4957L105.334 67.3715V81.1349L64.7165 70.206L32.7332 85.5888V70.9147Z" fill="#29ACE4"/>
<path d="M64.7165 70.206L32.7332 85.5888V70.9147L64.3097 54.4165" fill="#48598B"/>
<path d="M79.2984 68.0135L93.0541 63.5264V77.8961L79.2882 80.6973L79.2984 68.0135Z" fill="#48598B"/>
<path d="M32.7332 85.5888L47.039 86.2284L79.3062 74.1279L64.7165 70.2061L32.7332 85.5888Z" fill="#634874"/>
<path d="M52.5034 77.0877V88.5896L64.6474 83.4962V71.2166L52.5034 77.0877Z" fill="#48598B"/>
<path d="M105.198 81.4061V92.9438L64.6474 83.5652V71.2166L105.198 81.4061Z" fill="#29ACE4"/>
<path d="M32.329 97.3287V107.684L64.5118 95.5404V83.9695L32.329 97.3287Z" fill="#48598B"/>
<path d="M64.5119 83.9695V95.5404L77.7713 98.7459V87.2082L64.5119 83.9695Z" fill="#29ACE4"/>
<path d="M91.468 90.3779L91.1636 102.32L104.387 105.323V93.4836L91.468 90.3779Z" fill="#29ACE4"/>
<path d="M32.3624 108.562V121.01L43.9001 115.848V104.008L32.3624 108.562Z" fill="#48598B"/>
<path d="M52.7055 101.174V112.711L64.5119 108.562V96.4177L52.7055 101.174Z" fill="#48598B"/>
<path d="M64.5119 96.4177L102.162 105.83V115.848L64.5119 108.562V96.4177Z" fill="#29ACE4"/>
<path d="M55.2714 136.411V124.909L89.0275 114.034V126.766L55.2714 136.411Z" fill="#48598B"/>
<path d="M88.984 114.039V126.741L102.97 128.969V116.799L88.984 114.039Z" fill="#29ACE4"/>
<path d="M30.9296 142.387L69.0373 148.557L91.2736 142.443L55.43 134.037L30.9296 142.387Z" fill="#634874"/>
<path d="M41.5822 124.64L41.311 139.65L65.2179 143.3L65.4737 128.237L41.5822 124.64Z" fill="#29ACE4"/>
<path d="M42.2421 139.189L52.5212 136.488L71.3627 138.376L58.1442 141.105L42.2421 139.189Z" fill="#634874"/>
<path d="M31.1829 128.368L30.9296 142.387L41.4568 139.701L41.728 124.627L31.1829 128.368Z" fill="#48598B"/>
<path d="M42.5594 124.709L42.2421 139.189L52.5237 136.544L52.7284 121.463L42.5594 124.709Z" fill="#48598B"/>
<path d="M52.6977 121.478L52.4675 136.649L91.3504 142.443L91.5601 129.67L52.6977 121.478Z" fill="#29ACE4"/>
<path d="M104.725 153.902L87.7893 158.658L61.5979 157.107L92.4786 152.114L104.725 153.902Z" fill="#634874"/>
<path d="M92.4785 139.749L104.725 141.44V153.902L92.4785 152.113V139.749Z" fill="#29ACE4"/>
<path d="M92.5297 139.767V152.113L72.34 156.061V144.659L92.5297 139.767Z" fill="#48598B"/>
<path d="M79.1014 150.607L48.1184 157.074L33.1399 156.028L60.9864 147.788L79.1014 150.607Z" fill="#634874"/>
<path d="M65.3892 136.071V148.476L33.1399 156.028V144.388L65.3892 136.071Z" fill="#48598B"/>
<path d="M65.3893 136.071V148.476L79.0503 150.684V138.317L65.3893 136.071Z" fill="#29ACE4"/>
<path d="M102.837 165.642L75.983 171.175L57.5636 166.082L91.3658 159.233L102.837 165.642Z" fill="#634874"/>
<path d="M53.1788 152.518V164.393L65.9879 161.425V149.113L53.1788 152.518Z" fill="#48598B"/>
<path d="M102.837 155.048V165.642L64.1765 162.032V149.719L102.837 155.048Z" fill="#29ACE4"/>
<path d="M34.4217 167.161V179.17H65.3893L80.6058 176.335L80.5367 164.731L65.727 163.012L34.4217 167.161Z" fill="#48598B"/>
<path d="M61.8818 169.117V180.094H90.1837L104.09 177.503L104.029 166.896L90.4933 165.325L61.8818 169.117Z" fill="#48598B"/>
<path d="M90.7697 165.293V177.78L104.152 177.545V166.496L90.7697 165.293Z" fill="#29ACE4"/>
<path d="M66.0314 162.976V176.639L80.6723 176.381V164.293L66.0314 162.976Z" fill="#29ACE4"/>
<path d="M41.7254 50.5559V65.4219" stroke="#29ACE4" stroke-miterlimit="10"/>
<path d="M53.1277 44.3113V59.6045" stroke="#29ACE4" stroke-miterlimit="10"/>
<path d="M91.4681 90.3777L77.8044 93.6497V99.7076L88.8535 102.488L91.1636 102.32L91.4681 90.3777Z" fill="#48598B"/>
<path d="M266.721 203.493C265.976 202.224 237.575 175.56 169.968 174.751C115.185 174.096 32.7331 176.371 14.5158 182.444C14.5158 182.444 68.9656 179.407 102.97 187.504C136.974 195.601 159.528 200.216 176.041 202.281C188.996 203.9 212.611 206.059 218.278 206.463C244.966 208.369 215.61 196.558 245.165 201.976C263.382 205.315 267.58 204.959 266.721 203.493Z" fill="#866694"/>
<path d="M96.2902 190.134C96.2902 190.134 78.0729 183.252 47.3074 185.276C10.5863 187.691 1.23584 182.769 1.23584 182.769C1.23584 182.769 11.3563 197.586 35.1045 193.462C67.3283 187.87 96.2902 190.134 96.2902 190.134Z" fill="#866694"/>
</svg>
