<svg width="171" height="89" viewBox="0 0 171 89" fill="none" xmlns="http://www.w3.org/2000/svg">
<path d="M71.4968 60.599C85.7192 55.3592 119.965 36.1963 128.948 33.9506C137.931 31.705 141.359 34.7067 138.125 44.3181C134.891 53.9294 115.437 65.1053 104.957 73.3393C94.4773 81.5733 71.9235 91.7836 63.6894 87.2923C55.4554 82.801 57.2743 65.8389 71.4968 60.599Z" fill="#F5894E"/>
<path d="M101.207 66.3262C116.208 61.5879 138.125 44.3114 138.125 44.3114C134.891 53.9228 115.437 65.0986 104.957 73.3327C94.4772 81.5667 71.9235 91.7769 63.6894 87.2856C55.4554 82.7943 86.2058 71.0645 101.207 66.3262Z" fill="#CC6D3D"/>
<path d="M132.99 49.5434C129.142 47.9116 123.708 37.896 127.855 25.4551C128.866 22.416 135.348 15.2823 137.234 12.378C139.502 8.87476 139.996 5.22184 143.305 2.16027C147.048 -1.29802 148.979 2.6543 148.096 6.80127C147.654 8.85978 145.034 13.119 144.346 15.8812C143.657 18.6433 143.851 19.826 143.851 19.826C143.851 19.826 151.06 15.7764 153.919 13.0142C156.779 10.2521 158.56 11.2402 159.152 7.58726C159.893 2.99865 162.857 0.0343929 165.814 0.333813C168.778 0.633232 168.778 1.81593 167.146 9.56341C167.146 9.56341 171.151 11.5097 170.111 14.6012C169.078 17.6627 167.446 19.5865 167.446 19.5865C167.446 19.5865 170.178 19.9832 169.22 22.5508C168.898 23.4041 165.964 27.0944 165.223 27.8804C165.223 27.8804 165.994 27.6708 166.705 29.4598C167.416 31.2489 158.531 40.5533 155.896 42.8364C152.931 45.3965 136.838 51.1753 132.99 49.5434Z" fill="#F5894E"/>
<path d="M61.8704 86.6574C54.1678 82.488 32.5123 70.833 19.7869 58.8562C7.06158 46.8794 -4.43613 38.2636 2.30081 27.0354C9.03776 15.8072 13.4542 13.1124 22.4368 18.3522C25.9999 20.4257 35.8508 33.0762 44.1522 40.0677C56.8027 50.7195 69.558 60.4731 73.5702 64.156C82.448 72.3002 76.0853 94.3599 61.8704 86.6574Z" fill="#F5894E"/>
<path d="M61.8704 86.6574C54.1678 82.488 32.5123 70.833 19.7869 58.8562C7.0616 46.8794 -4.43611 38.2636 2.30083 27.0354C9.03778 15.8072 13.4542 13.1124 22.4368 18.3522C25.9999 20.4257 35.8508 33.0762 44.1522 40.0677C56.8027 50.7195 68.5699 60.4731 72.5821 64.156C81.4674 72.3002 76.0853 94.3599 61.8704 86.6574Z" fill="#CC6D3D"/>
<path d="M66.6611 71.6553C58.9586 67.4859 55.6949 67.0518 42.9695 55.075C30.2442 43.0982 13.4542 13.1188 22.4368 18.3586C25.9999 20.4321 35.8508 33.0826 44.1522 40.074C56.8027 50.7259 68.5699 60.4795 72.5822 64.1624C81.4674 72.2991 80.8686 79.3504 66.6611 71.6553Z" fill="#F5894E"/>
<path d="M157.37 20.9186L164.01 13.8597L167.146 9.56306C167.221 9.29358 167.91 10.5736 164.556 15.0649C163.815 16.053 157.37 20.9186 157.37 20.9186Z" fill="#CC6D3D"/>
<path d="M167.588 19.4896C167.588 19.4896 162.505 26.8404 161.023 28.0231C161.023 28.0231 166.997 22.1769 167.88 19.8789L167.588 19.4896Z" fill="#CC6D3D"/>
</svg>
