<svg width="379" height="347" viewBox="0 0 379 347" fill="none" xmlns="http://www.w3.org/2000/svg">
<path d="M218.836 271.812C216.66 271.812 157.936 261.664 128.933 261.664C99.9307 261.664 78.9051 266.012 78.9051 266.012L110.808 280.513C110.808 280.513 66.6123 297.108 47.007 302.987C25.2575 309.511 2.41757 313.502 0.241241 318.936C-1.93506 324.374 10.7563 326.912 32.5059 332.713C54.2554 338.513 59.3319 343.59 92.6824 344.314C126.033 345.038 159.383 345.221 183.854 346.307C201.975 347.113 245.117 342.5 252.37 340.328C259.618 338.151 251.824 329.451 247.476 329.451C243.128 329.451 317.623 322.926 335.565 314.771C351.541 307.509 334.479 299.546 308.922 297.915C345.695 300.26 334.3 285.081 218.836 271.812Z" fill="#33A86D"/>
<path d="M343.542 302.625C344.266 299.725 354.781 279.061 347.166 285.947C339.551 292.834 341.365 300.811 341.365 300.811C341.365 300.811 340.28 283.409 336.289 290.296C332.303 297.182 329.403 302.62 329.403 302.62C329.403 302.62 335.203 316.398 342.813 304.435" fill="#33A86D"/>
<path d="M280.323 310.372C280.323 310.372 266.509 316.397 251.825 319.659C237.145 322.921 220.829 331.077 189.834 330.536C158.838 329.996 162.041 317.969 162.041 317.969C162.041 317.969 103.01 329.812 80.7196 322.198C58.4249 314.583 121.864 282.139 161.56 273.439C201.256 264.738 201.256 264.738 201.256 264.738L280.323 310.372Z" fill="#288453"/>
<path d="M155.31 271.551C155.31 271.551 158.696 270.873 163.777 272.229C168.858 273.585 168.18 277.649 167.841 278.666C167.502 279.684 163.099 281.713 153.276 281.04C143.453 280.366 143.201 279.761 137.693 280.023C131.701 280.307 134.308 270.538 135.998 267.487C137.693 264.44 155.31 271.551 155.31 271.551Z" fill="#EE5D4F"/>
<path d="M154.604 266.827C154.604 266.827 157.491 266.085 162.572 267.441C167.653 268.797 168.185 275.399 167.846 276.417C167.506 277.434 163.103 279.463 153.28 278.79C143.457 278.116 141.601 278.588 136.149 277.773C133.143 277.324 134.312 268.289 136.007 265.237C137.702 262.186 154.604 266.827 154.604 266.827Z" fill="#121721"/>
<path d="M128.612 178.189C128.612 178.189 141.464 176.379 148.602 175.133C155.741 173.886 167.52 170.872 169.307 176.613C171.094 182.354 170.022 194.151 158.6 196.364C147.178 198.577 120.778 205.702 114.336 201.995C107.894 198.289 101.837 183.856 128.612 178.189Z" fill="#121721"/>
<path d="M165.688 183.701C165.688 183.701 169.83 184.187 169.564 190.808C169.298 197.428 163.878 212.96 164.24 216.571C164.602 220.181 160.987 241.133 159.906 249.44C158.82 257.747 159.544 265.334 157.739 268.944C155.933 272.555 159.544 271.836 151.237 271.836C142.93 271.836 137.872 270.75 136.429 269.668C134.986 268.583 136.067 259.557 136.067 259.557C136.067 259.557 137.872 255.222 137.872 254.498C137.872 253.774 136.786 232.827 137.872 227.406C138.958 221.986 140.763 193.089 147.265 186.588C153.771 180.086 165.688 183.701 165.688 183.701Z" fill="#121721"/>
<path d="M330.672 197.102L333.389 263.835L334.846 307.774L316.519 312.814L283.53 318.77L280.323 313.272C280.323 313.272 261.08 314.188 257.873 314.188C254.665 314.188 237.447 303.953 237.447 303.953L238.171 296.7L218.593 299.843L196.903 286.671L205.966 186.857L261.611 181.543L330.672 197.102Z" fill="#7A462F"/>
<path d="M262.578 177.918L305.115 182.271L330.672 197.102L287.988 210.229L280.781 207.874L263.787 206.435L209.049 195.925L205.998 186.921L262.578 177.918Z" fill="#D77D5B"/>
<path d="M264.191 181.785L294.829 186.115L313.238 195.732L282.49 204.24L277.299 202.715L265.061 200.273L225.631 193.46L223.432 187.623L264.191 181.785Z" fill="#B44C29"/>
<path d="M283.53 318.77L285.175 257.187L287.897 233.023L287.956 210.243L280.735 207.915L276.296 229.578L273.139 265.279L268.864 313.621L280.323 313.272L283.53 318.77Z" fill="#A96443"/>
<path d="M237.988 296.791L218.474 299.843L225.301 240.693L228.261 234.59L233.456 201.665L231.647 257.792L228.989 291.202L237.988 296.791Z" fill="#A96443"/>
<path d="M260.644 311.989L259.165 298.936L260.402 288.604L259.412 272.838L257.433 288.604L255.21 296.764L255.705 308.727L260.644 311.989Z" fill="#A96443"/>
<path d="M263.971 206.618L265.602 235.557L260.525 256.22L253.456 269.274L262.156 234.654L254.606 204.744L263.971 206.618Z" fill="#A96443"/>
<path d="M312.001 310.963L323.602 308.063L314.177 283.23L308.377 278.153L311.277 264.38L304.208 257.851L302.214 232.294L301.129 250.786L301.307 260.39L306.746 265.104L302.938 283.23L306.929 289.754L312.001 310.963Z" fill="#A96443"/>
<path d="M294.783 250.603L292.066 267.46L295.869 281.054L293.697 295.193L292.607 279.968L289.89 265.283L294.783 250.603Z" fill="#A96443"/>
<path d="M315.263 202.028L309.101 204.199V215.076L312.001 235.195L310.191 247.158L312.001 251.872L316.354 234.471L314.177 214.353L315.263 202.028Z" fill="#A96443"/>
<path d="M274.907 311.691C274.907 311.691 270.165 304.392 269.712 307.93C269.258 311.467 270.165 312.351 270.165 312.351C270.165 312.351 263.842 302.839 264.745 307.045C265.648 311.247 265.872 312.351 265.872 312.351C265.872 312.351 263.838 307.93 262.257 308.589C260.676 309.249 262.033 311.467 262.033 311.467C262.033 311.467 250.514 301.735 250.514 304.168C250.514 306.601 250.514 306.601 250.514 306.601C250.514 306.601 246.899 301.295 246.45 303.284C245.997 305.272 247.577 307.045 247.577 307.045C247.577 307.045 239.898 297.534 239.449 299.747C238.996 301.96 240.805 302.179 240.805 302.179C240.805 302.179 235.385 296.649 237.42 301.075C239.454 305.497 245.777 314.124 259.325 314.344C272.873 314.568 274.907 311.691 274.907 311.691Z" fill="#288453"/>
<path d="M219.5 298.152C219.5 298.152 219.441 294.102 218.112 293.923C216.784 293.74 217.567 295.009 217.567 295.009C217.567 295.009 216.179 288.966 215.029 289.992C213.879 291.018 214.845 293.075 214.845 293.075C214.845 293.075 214.3 290.78 213.695 290.959C213.091 291.142 213.15 292.109 213.15 292.109C213.15 292.109 211.579 286.551 210.131 287.215C208.683 287.88 210.433 289.873 210.433 289.873C210.433 289.873 209.586 287.458 208.138 288.301C206.69 289.149 207.895 292.833 207.895 292.833C207.895 292.833 206.081 285.218 204.028 285.341C201.975 285.461 204.935 290.899 204.935 290.899L219.5 298.152Z" fill="#288453"/>
<path d="M358.158 267.364C358.158 267.364 347.221 275.511 345.008 308.403L343.931 307.56C343.931 307.56 344.096 280.88 356.238 266.622L358.158 267.364Z" fill="#7A462F"/>
<path d="M348.44 259.108C349.168 256.546 351.523 255.905 357.251 260.157C362.978 264.409 369.896 269.93 370.107 274.502C370.313 279.07 364.458 276.601 358.309 271.694C352.151 266.787 347.711 261.673 348.44 259.108Z" fill="#F5894E"/>
<path d="M348.861 258.571C349.59 256.01 351.945 255.369 357.672 259.621C363.399 263.872 370.318 269.393 370.528 273.966C370.734 278.534 364.879 276.064 358.73 271.157C352.582 266.25 348.133 261.133 348.861 258.571Z" fill="#F7BC4B"/>
<path d="M356.856 264.445C357.044 263.781 357.654 263.616 359.134 264.716C360.613 265.815 362.4 267.24 362.455 268.422C362.51 269.604 360.998 268.963 359.408 267.698C357.814 266.429 356.669 265.11 356.856 264.445Z" fill="#EE5D4F"/>
<path d="M352.426 274.269C352.426 274.269 355.069 267.983 348.66 267.3C342.245 266.617 337.893 272.872 337.893 272.872C337.893 272.872 345.604 275.222 348.137 275.034C350.666 274.846 352.426 274.269 352.426 274.269Z" fill="#288453"/>
<path d="M351.954 275.419C351.954 275.419 357.351 278.777 356.632 283.858C355.913 288.935 354.831 289.068 354.831 289.068C354.831 289.068 350.126 280.39 351.954 275.419Z" fill="#288453"/>
<path d="M315.025 311.202C315.025 311.202 317.925 299.963 313.577 293.076C309.229 286.19 308.139 305.763 309.953 309.387C309.953 309.387 305.605 293.8 300.528 298.51C295.452 303.225 301.976 311.559 301.976 311.559C301.976 311.559 297.99 303.582 295.452 307.573C292.913 311.559 295.09 319.536 303.067 315.912C311.034 312.292 315.025 311.202 315.025 311.202Z" fill="#33A86D"/>
<path d="M317.802 311.688C317.802 311.688 319.978 291.748 323.24 297.187C326.502 302.625 319.616 314.95 317.802 311.688Z" fill="#33A86D"/>
<path d="M293.152 306.249C293.152 306.249 287.351 308.788 288.804 303.349C290.252 297.911 297.138 303.349 293.152 306.249Z" fill="#33A86D"/>
<path d="M333.874 293.319C337.256 293.438 337.915 309.759 332.39 309.759C326.864 309.759 330.488 293.2 333.874 293.319Z" fill="#33A86D"/>
<path d="M326.685 309.57C326.685 309.57 333.572 296.884 327.047 300.508C320.523 304.132 320.885 315.733 326.685 309.57Z" fill="#33A86D"/>
<path d="M338.827 285.829C338.827 285.829 336.289 292.353 332.665 289.453C329.041 286.552 332.665 281.114 335.565 282.566C338.465 284.014 338.827 285.829 338.827 285.829Z" fill="#288453"/>
<path d="M336.289 272.413C336.289 272.413 331.941 276.761 329.403 272.413C326.864 268.065 330.85 266.612 334.117 268.065C337.379 269.513 336.289 272.413 336.289 272.413Z" fill="#288453"/>
<path d="M326.864 283.29C323.964 280.39 327.226 276.403 330.85 277.851C334.479 279.304 329.765 286.19 326.864 283.29Z" fill="#288453"/>
<path d="M327.588 283.29C327.588 283.29 328.312 286.914 325.412 285.828C322.516 284.738 323.964 281.475 327.588 283.29Z" fill="#288453"/>
<path d="M331.698 290.057C331.579 294.286 327.95 293.681 327.588 290.3C327.226 286.914 331.822 285.828 331.698 290.057Z" fill="#288453"/>
<path d="M339.432 247.823C338.708 250.361 333.874 252.052 335.203 246.856C336.532 241.66 340.156 245.289 339.432 247.823Z" fill="#288453"/>
<path d="M331.455 241.055C335.079 241.055 337.375 246.494 330.126 245.165C322.878 243.836 327.831 241.055 331.455 241.055Z" fill="#288453"/>
<path d="M330.007 220.758C332.788 219.911 338.589 223.539 333.993 224.506C329.402 225.468 327.226 221.601 330.007 220.758Z" fill="#288453"/>
<path d="M335.322 227.283C337.618 227.04 340.88 230.907 335.322 230.788C329.764 230.669 333.027 227.525 335.322 227.283Z" fill="#288453"/>
<path d="M335.565 233.688C337.379 235.864 335.684 241.302 332.422 237.555C329.16 233.807 333.755 231.511 335.565 233.688Z" fill="#288453"/>
<path d="M366.015 288.971C366.015 288.971 361.786 301.177 346.923 303.591L347.285 301.901C347.285 301.901 360.577 298.277 364.444 288.49L366.015 288.971Z" fill="#7A462F"/>
<path d="M365.115 291.512C360.346 288.759 357.345 285.032 358.41 283.186C359.475 281.341 364.204 282.077 368.973 284.83C373.741 287.584 376.743 291.311 375.678 293.156C374.612 295.001 369.883 294.265 365.115 291.512Z" fill="#F5894E"/>
<path d="M365.238 290.547C360.47 287.794 357.468 284.066 358.533 282.221C359.598 280.376 364.328 281.112 369.096 283.865C373.864 286.618 376.866 290.346 375.801 292.191C374.736 294.036 370.006 293.3 365.238 290.547Z" fill="#F7BC4B"/>
<path d="M366.477 288.401C364.773 287.416 363.699 286.084 364.08 285.424C364.461 284.764 366.152 285.028 367.857 286.012C369.561 286.996 370.635 288.329 370.254 288.989C369.873 289.648 368.182 289.385 366.477 288.401Z" fill="#EE5D4F"/>
<path d="M361.786 294.285C361.786 294.285 366.501 293.804 366.982 298.272C367.463 302.743 363.963 303.348 363.963 303.348C363.963 303.348 354.538 298.272 361.786 294.285Z" fill="#288453"/>
<path d="M356.833 297.067C356.833 297.067 356.11 293.923 353.571 294.89C351.033 295.857 351.881 297.305 351.881 297.305C351.881 297.305 355.019 299.6 356.833 297.067Z" fill="#288453"/>
<path d="M343.299 303.344C343.299 303.344 346.131 294.648 349.219 294.648C352.307 294.648 350.763 306.432 350.763 306.432C350.763 306.432 352.348 306.322 358.524 307.096C364.7 307.871 364.535 311.454 363.376 312.613C362.217 313.772 366.079 311.069 375.344 312.228C384.613 313.387 374.185 317.634 361.058 317.249C347.931 316.865 359.001 312.874 359.001 312.874C359.001 312.874 340.559 312.342 336.17 309.396C334.154 308.036 340.261 304.925 343.299 303.344Z" fill="#33A86D"/>
<path d="M332.811 259.639C332.811 259.639 327.409 255.186 325.664 259.484C323.918 263.781 329.732 266.759 331.556 264.079C333.379 261.399 332.811 259.639 332.811 259.639Z" fill="#33A86D"/>
<path d="M334.786 277.114C334.786 277.114 328.866 275.442 328.775 280.477C328.683 285.512 332.871 284.83 335.011 281.971C337.155 279.116 334.786 277.114 334.786 277.114Z" fill="#33A86D"/>
<path d="M323.611 251.562C322.498 255.507 327.29 257.394 329.746 254.361C332.202 251.328 324.725 247.617 323.611 251.562Z" fill="#33A86D"/>
<path d="M324.784 272.597C324.784 272.597 323.648 269.078 321.646 271.442C319.648 273.811 322.507 275.95 324.784 272.597Z" fill="#33A86D"/>
<path d="M326.337 263.96C324.166 260.326 321.298 262.626 322.635 265.756C323.973 268.885 328.505 267.593 326.337 263.96Z" fill="#33A86D"/>
<path d="M226.231 274.864C226.231 274.864 220.829 270.411 219.083 274.708C217.338 279.006 223.152 281.984 224.976 279.304C226.799 276.623 226.231 274.864 226.231 274.864Z" fill="#33A86D"/>
<path d="M228.21 292.339C228.21 292.339 222.291 290.667 222.199 295.702C222.108 300.737 226.295 300.055 228.435 297.196C230.575 294.341 228.21 292.339 228.21 292.339Z" fill="#33A86D"/>
<path d="M217.031 266.787C215.918 270.731 220.71 272.619 223.166 269.586C225.622 266.553 218.144 262.842 217.031 266.787Z" fill="#33A86D"/>
<path d="M218.208 287.821C218.208 287.821 217.072 284.302 215.07 286.666C213.072 289.035 215.927 291.175 218.208 287.821Z" fill="#33A86D"/>
<path d="M219.757 279.184C217.585 275.551 214.717 277.851 216.055 280.98C217.388 284.11 221.929 282.818 219.757 279.184Z" fill="#33A86D"/>
<path d="M244.214 160.641C244.214 168.617 237.447 174.656 230.199 178.042" stroke="#34283A" stroke-width="8" stroke-miterlimit="10"/>
<path d="M223.862 170.363L241.36 162.574L223.427 180.044L245.034 172.961L228.398 183.114L251.948 174.143" stroke="#4B3355" stroke-width="5" stroke-miterlimit="10"/>
<path d="M174.829 196.434C174.645 201.061 174.123 202.972 178.476 205.547C182.824 208.117 188.253 206.848 190.599 202.71C192.945 198.573 191.323 193.135 186.975 190.564C182.622 187.989 175.012 191.801 174.829 196.434Z" fill="#34283A"/>
<path d="M177.472 283.546C177.472 283.546 179.901 285.827 177 286.922C174.306 287.94 169.06 291.962 162.036 294.652C156.341 296.833 155.851 297.149 154.733 296.136C153.67 295.174 154.903 292.173 159.141 289.245C164.098 285.818 167.443 282.574 169.22 282.313C171.099 282.034 177.472 283.546 177.472 283.546Z" fill="#34283A"/>
<path d="M236.357 173.57C238.409 175.384 238.171 174.537 241.433 177.437C246.427 181.877 222.341 192.3 215.093 195.924C207.845 199.548 199.382 201.482 194.791 200.515C190.2 199.548 190.2 192.3 181.742 192.538C173.285 192.777 193.22 175.623 202.887 171.756C212.555 167.889 229.228 162.574 230.923 162.574C232.613 162.574 234.304 171.756 236.357 173.57Z" fill="#34283A"/>
<path d="M185.738 277.341C185.738 277.341 177.646 279.261 176.386 279.151C175.131 279.046 172.725 275.014 172.725 275.014C172.725 275.014 171.223 236.046 169.665 226.072C168.171 216.519 168.973 202.416 169.115 201.193C169.257 199.974 173.092 198.297 178.883 196.845C184.51 195.434 184.624 206.224 187.176 205.995C189.733 205.766 190.832 205.147 191.969 208.405C193.123 211.713 190.2 218.242 188.977 234.149C187.579 252.421 185.738 277.341 185.738 277.341Z" fill="#4B3355"/>
<path d="M212.248 146.3C212.248 146.3 208.436 143.964 210.406 136.198C212.38 128.431 214.951 124.661 214.951 124.661" stroke="#4B3355" stroke-width="3" stroke-miterlimit="10"/>
<path d="M220.957 129.614C220.957 129.614 218.213 137.398 217.745 139.418C217.274 141.434 215.872 149.796 215.872 149.796" stroke="#34283A" stroke-width="3" stroke-miterlimit="10"/>
<path d="M218.992 125.715C218.992 125.715 209.719 135.973 220.064 148.051" stroke="#665070" stroke-width="5" stroke-miterlimit="10"/>
<path d="M216.733 132.028C216.733 132.028 221.594 133.485 221.883 139.01C222.172 144.531 216.087 147.968 213.97 146.868" stroke="#34283A" stroke-width="3" stroke-miterlimit="10"/>
<path d="M213.943 145.773C213.943 145.773 205.861 133.76 219.684 128.248" stroke="#4B3355" stroke-width="3" stroke-miterlimit="10"/>
<path d="M221.997 144.477C221.997 144.477 218.121 141.173 213.792 142.74C209.462 144.307 209.627 147.89 209.627 147.89" stroke="#34283A" stroke-width="3" stroke-miterlimit="10"/>
<path d="M219.482 146.392C215.922 146.392 213.035 142.718 213.035 138.186C213.035 133.654 215.922 129.98 219.482 129.98C223.042 129.98 225.928 133.654 225.928 138.186C225.928 142.718 223.042 146.392 219.482 146.392Z" fill="#34283A"/>
<path d="M221.154 146.727C217.963 146.727 215.377 143.053 215.377 138.521C215.377 133.989 217.963 130.315 221.154 130.315C224.345 130.315 226.932 133.989 226.932 138.521C226.932 143.053 224.345 146.727 221.154 146.727Z" fill="#34283A"/>
<path d="M221.255 140.862C220.587 140.862 220.045 139.762 220.045 138.406C220.045 137.049 220.587 135.95 221.255 135.95C221.923 135.95 222.465 137.049 222.465 138.406C222.465 139.762 221.923 140.862 221.255 140.862Z" fill="#856792"/>
<path d="M194.232 175.407C196.514 175.604 191.515 184.942 189.092 186.459C186.663 187.975 184.175 186.756 186.352 183.306C188.523 179.852 191.955 175.21 194.232 175.407Z" fill="#665070"/>
<path d="M176.629 189.533C177.362 190.743 178.906 189.749 181.605 187.494C184.304 185.236 192.024 175.564 190.063 174.056C188.102 172.549 180.877 182.138 179.727 183.38C178.581 184.617 175.901 188.319 176.629 189.533Z" fill="#665070"/>
<path d="M181.518 167.683C180.831 165.795 174.567 171.536 173.362 172.91C172.157 174.285 170.398 177.776 171.081 179.471C171.759 181.167 173.94 177.849 177.564 174.106C181.193 170.367 182.205 169.57 181.518 167.683Z" fill="#665070"/>
<path d="M183.543 171.426C184.785 174.019 174.907 183.233 172.767 183.815C170.627 184.397 169.166 181.978 172.57 178.821C175.974 175.664 182.306 168.833 183.543 171.426Z" fill="#665070"/>
<path d="M185.935 176.058C185.935 176.058 180.294 183.42 175.997 187.264C172.982 189.963 172.121 185.097 177.202 179.407C182.278 173.721 187.053 172.708 185.935 176.058Z" fill="#665070"/>
<path d="M180.739 180.383C180.739 180.383 183.309 178.312 184.817 179.44C186.324 180.567 182.814 182.954 186.388 182.89C189.962 182.821 200.243 174.533 208.829 168.815C217.416 163.097 229.2 156.558 227.569 155.179C225.938 153.8 222.236 154.245 221.92 150.795C221.603 147.345 225.113 144.33 222.286 141.512C219.459 138.694 210.992 139.643 203.785 143.73C196.578 147.816 176.776 165.905 174.897 169.671C173.019 173.438 174.59 176.888 176.038 178.83C177.486 180.773 179.548 180.823 180.739 180.383Z" fill="#493253"/>
<path d="M222.763 132.541C222.763 132.541 221.48 131.18 218.259 130.841C215.038 130.498 213.782 130.772 213.132 125.407C212.481 120.042 213.517 102.631 215.826 94.3202C218.135 86.0089 222.928 77.354 226.616 77.1341C230.304 76.9142 227.752 85.6057 229.223 89.0237C230.694 92.4417 234.409 88.1486 234.231 97.4999C234.052 106.851 233.241 131.826 230.794 137.471C229.443 140.587 227.725 141.425 226.02 140.225C224.311 139.024 226.098 133.714 222.763 132.541Z" fill="#4B3355"/>
<path d="M284.089 166.68C284.089 166.68 268.621 186.015 255.815 189.881L284.089 166.68Z" fill="#665070"/>
<path d="M255.815 178.523L250.496 193.505L270.555 171.998L257.355 195.865L283.122 167.888L279.256 179.732" stroke="#34283A" stroke-width="5" stroke-miterlimit="10"/>
<path d="M282.88 165.713C282.88 165.713 288.437 165.713 289.404 175.623C290.371 185.534 279.494 197.616 279.494 197.616" stroke="#34283A" stroke-width="8" stroke-miterlimit="10"/>
<path d="M235.459 231.898C229.181 231.306 224.526 226.221 225.061 220.54C225.596 214.859 231.119 210.733 237.398 211.325C243.676 211.916 248.331 217.001 247.796 222.682C247.261 228.363 241.737 232.489 235.459 231.898Z" fill="#34283A"/>
<path d="M235.876 307.697C235.876 307.697 237.69 310.235 235.514 311.683C233.337 313.131 228.627 318.931 221.012 324.37C213.397 329.808 212.674 330.532 210.864 329.446C209.049 328.36 210.864 322.922 217.026 317.121C223.189 311.321 226.813 306.606 228.627 306.244C230.437 305.887 235.876 307.697 235.876 307.697Z" fill="#493253"/>
<path d="M245.708 187.806C245.708 187.806 248.251 184.086 251.321 182.258C254.432 180.397 256.077 181.689 259.682 183.238C263.371 184.823 270.77 183.463 277.409 179.362C284.254 175.133 285.39 171.495 293.033 175.628C301.028 179.953 293.441 193.451 286.802 201.341C280.318 209.042 259.142 225.019 251.857 224.02C244.865 223.063 245.598 221.647 240.54 216.937C235.656 212.387 232.879 212.291 230.533 213.061C228.215 213.817 224.875 210.614 225.58 208.277C226.281 205.931 245.708 187.806 245.708 187.806Z" fill="#493253"/>
<path d="M227.899 304.434C227.899 304.434 235.917 306.973 237.172 306.973C238.428 306.973 240.934 303.211 240.934 303.211C240.934 303.211 244.109 268.436 246.198 256.734C248.288 245.032 249.401 231.044 249.286 229.395C249.172 227.745 242.336 222.44 236.485 218.678C230.634 214.916 229.736 222.921 226.813 222.504C223.89 222.087 222.63 221.225 221.374 225.404C220.119 229.582 223.427 245.967 224.889 265.091C226.451 285.585 227.899 304.434 227.899 304.434Z" fill="#493253"/>
<path d="M236.421 302.625C237.676 302.625 239.504 300.993 239.504 300.993C239.504 300.993 241.946 269.192 244.036 257.49C246.125 245.788 247.353 235.882 247.238 234.228C247.124 232.574 242.941 231.223 237.09 227.461C231.239 223.7 231.161 243.626 232.618 262.745C234.176 283.239 235.165 302.625 236.421 302.625Z" fill="#665070"/>
<path d="M231.656 98.0313C227.38 98.0313 223.913 92.9563 223.913 86.6961C223.913 80.4358 227.38 75.3608 231.656 75.3608C235.932 75.3608 239.399 80.4358 239.399 86.6961C239.399 92.9563 235.932 98.0313 231.656 98.0313Z" fill="#34283A"/>
<path d="M236.284 98.4941C232.452 98.4941 229.347 93.4192 229.347 87.1589C229.347 80.8987 232.452 75.8237 236.284 75.8237C240.115 75.8237 243.22 80.8987 243.22 87.1589C243.22 93.4192 240.115 98.4941 236.284 98.4941Z" fill="#BB83C3"/>
<path d="M236.403 90.3984C235.6 90.3984 234.95 88.8784 234.95 87.0033C234.95 85.1283 235.6 83.6083 236.403 83.6083C237.205 83.6083 237.855 85.1283 237.855 87.0033C237.855 88.8784 237.205 90.3984 236.403 90.3984Z" fill="#FFACFF"/>
<path d="M308.496 91.2778C308.496 91.2778 300.52 100.46 307.049 106.503" stroke="#34283A" stroke-width="3" stroke-miterlimit="10"/>
<path d="M305.963 95.1766C305.963 95.1766 297.986 104.358 304.515 110.402" stroke="#665070" stroke-width="3" stroke-miterlimit="10"/>
<path d="M306.201 94.9934C306.201 94.9934 306.563 101.971 307.379 110.04" stroke="#665070" stroke-width="3" stroke-miterlimit="10"/>
<path d="M311.406 103.351C307.663 103.351 304.629 98.276 304.629 92.0157C304.629 85.7554 307.663 80.6805 311.406 80.6805C315.148 80.6805 318.182 85.7554 318.182 92.0157C318.182 98.276 315.148 103.351 311.406 103.351Z" fill="#34283A"/>
<path d="M315.451 103.814C312.098 103.814 309.38 98.7389 309.38 92.4786C309.38 86.2183 312.098 81.1434 315.451 81.1434C318.804 81.1434 321.522 86.2183 321.522 92.4786C321.522 98.7389 318.804 103.814 315.451 103.814Z" fill="#BB83C3"/>
<path d="M315.561 95.7135C314.858 95.7135 314.288 94.1935 314.288 92.3184C314.288 90.4434 314.858 88.9234 315.561 88.9234C316.265 88.9234 316.835 90.4434 316.835 92.3184C316.835 94.1935 316.265 95.7135 315.561 95.7135Z" fill="#FFACFF"/>
<path d="M270.376 74.1194C270.376 74.1194 273.519 81.189 275.21 77.322C276.901 73.455 275.21 53.3366 275.21 53.3366L269.652 54.5462C270.614 58.1703 270.376 74.1194 270.376 74.1194Z" fill="#4B3355"/>
<path d="M284.571 59.7424C284.571 59.7424 289.161 71.1006 284.813 75.6915C280.465 80.2824 278.046 71.5816 278.046 71.5816" stroke="#34283A" stroke-miterlimit="10"/>
<path d="M285.537 58.2897C285.537 58.2897 287.228 61.6711 286.261 65.057C285.294 68.4429 279.251 70.6146 279.251 70.6146" stroke="#34283A" stroke-miterlimit="10"/>
<path d="M287.471 58.7753C287.471 58.7753 291.095 64.8186 287.714 68.4428C284.332 72.067 279.498 69.4095 279.498 69.4095" stroke="#34283A" stroke-miterlimit="10"/>
<path d="M271.765 57.2038C271.765 57.2038 272.489 70.9811 273.455 72.6718C274.422 74.3624 278.77 73.8813 278.77 73.8813L279.737 55.5132L271.765 57.2038Z" fill="#34283A"/>
<path d="M269.79 141.086L272.671 168.494" stroke="#34283A" stroke-width="8" stroke-miterlimit="10"/>
<path d="M252.402 139.13C252.402 139.13 256.746 160.485 258.432 166.895" stroke="#4B3355" stroke-width="3" stroke-miterlimit="10"/>
<path d="M255.815 138.951L258.697 166.359" stroke="#665070" stroke-width="5" stroke-miterlimit="10"/>
<path d="M259.801 138.951L262.683 166.359" stroke="#665070" stroke-width="5" stroke-miterlimit="10"/>
<path d="M273.35 140.728L273.693 168.136" stroke="#665070" stroke-width="5" stroke-miterlimit="10"/>
<path d="M266.601 139.482L269.487 166.89" stroke="#665070" stroke-width="5" stroke-miterlimit="10"/>
<path d="M262.56 140.197L265.442 167.605" stroke="#34283A" stroke-width="8" stroke-miterlimit="10"/>
<path d="M253.882 143.482C253.882 143.482 244.938 156.293 252.915 157.016C260.892 157.74 264.759 144.934 264.759 144.934" stroke="#4B3355" stroke-width="3" stroke-miterlimit="10"/>
<path d="M257.263 144.44C257.263 144.44 257.263 158.354 262.34 155.715C267.416 153.076 264.997 143.239 264.997 143.239" stroke="#34283A" stroke-width="3" stroke-miterlimit="10"/>
<path d="M277.808 74.1194C277.808 74.1194 280.951 81.189 282.641 77.322C284.332 73.455 282.641 53.3366 282.641 53.3366L277.084 54.5462C278.046 58.1703 277.808 74.1194 277.808 74.1194Z" fill="#665070"/>
<path d="M275.26 155.83C277.203 158.13 288.03 157.841 290.133 155.688C292.552 153.209 294.013 149.603 295.69 142.639C298.833 129.59 298.348 113.88 299.557 105.665C299.557 105.665 305.839 101.798 308.015 99.1401C310.191 96.4827 311.639 90.9251 311.882 84.6389C312.125 78.3574 310.191 77.3906 305.358 76.4239C303.997 76.1536 300.909 75.5534 296.735 74.8615C286.101 73.0976 268.424 70.7242 254.363 71.5902C234.785 72.7997 234.785 73.2808 233.095 81.7387C231.404 90.1966 230.918 92.3729 232.128 94.0636C233.337 95.7542 235.028 97.6877 235.028 97.6877C235.028 97.6877 228.985 144.573 241.31 152.064C241.31 152.064 243 154.24 247.11 150.616C251.22 146.992 253.392 146.749 258.225 146.992C263.059 147.235 269.584 148.201 273.451 153.516C274.119 154.423 274.72 155.189 275.26 155.83Z" fill="#856792"/>
<path d="M270.312 147.468C270.312 147.468 252.911 142.03 245.3 147.83C237.686 153.631 236.962 144.568 236.238 132.605C235.514 120.642 251.825 115.928 258.349 109.765C264.878 103.603 274.665 144.93 270.312 147.468Z" fill="#665070"/>
<path d="M246.038 157.581C246.038 157.581 253.557 160.586 258.23 160.641C263.21 160.701 271.677 162.827 276.355 160.398C281.313 157.828 284.566 157.246 286.577 159.564C288.634 161.938 287.475 165.956 285.519 169.956C283.805 173.456 272.062 178.918 268.209 180.072C264.534 181.172 252.049 178.721 244.86 175.312C238.368 172.233 236.632 169.433 235.779 164.348C234.936 159.331 235.734 153.471 238.176 153.145C240.714 152.806 242.753 154.075 243.321 154.648C243.889 155.225 246.038 157.581 246.038 157.581Z" fill="#856792"/>
<path d="M239.614 157.635C240.796 159.555 240.522 161.479 242.936 166.047C245.442 170.785 258.138 177.176 263.765 176.287C269.835 175.33 263.261 182.344 247.642 175.655C234.932 170.212 236.114 163.619 236.114 160.453C236.114 157.287 238.455 155.747 239.614 157.635Z" fill="#665070"/>
<path d="M235.152 79.6768C235.152 79.6768 234.79 74.724 242.597 73.9542C247.916 73.4319 252.649 73.2303 255.847 73.1662C256.37 73.157 256.466 73.9084 255.953 74.0275C250.592 75.2783 241.685 77.7479 239.683 80.7581C238.157 83.0444 236.632 86.5311 235.523 89.3351C235.202 90.1507 233.988 89.8941 234.02 89.019L235.152 79.6768Z" fill="#665070"/>
<path d="M268.14 87.8965L266.207 109.165L239.862 107.593V86.6869L268.14 87.8965Z" fill="#4B3355"/>
<path d="M265.593 88.497L274.17 82.6553L275.75 83.1822L270.784 115.121L269.148 114.453L263.788 109.165L265.593 88.497Z" fill="#665070"/>
<path d="M266.198 89.9951L273.538 84.9964L274.889 85.4454L270.637 112.78L269.24 112.212L264.649 107.681L266.198 89.9951Z" fill="#4B3355"/>
<path d="M267.27 91.3701L273.478 87.1411L274.623 87.5214L271.027 110.636L269.845 110.155L265.964 106.325L267.27 91.3701Z" fill="#34283A"/>
<path d="M277.382 83.3063L274.17 82.6557L269.405 114.632L272.415 115.241L277.382 83.3063Z" fill="#BB83C3"/>
<path d="M260.045 94.1777L260.223 91.1583L257.08 90.9751V87.5342" stroke="#34283A" stroke-width="2" stroke-miterlimit="10"/>
<path d="M262.157 98.8325L263.728 98.8921L263.183 104.39L263.971 104.569" stroke="#34283A" stroke-width="2" stroke-miterlimit="10"/>
<path d="M257.323 103.061L257.204 105.6L255.028 105.476L254.908 108.436" stroke="#34283A" stroke-width="2" stroke-miterlimit="10"/>
<path d="M253.034 96.716L248.925 96.5969" stroke="#34283A" stroke-width="2" stroke-miterlimit="10"/>
<path d="M254.051 103.18L260.31 103.368C261.332 103.4 262.225 102.594 262.312 101.567L262.523 99.0749L262.807 95.7669C262.899 94.6948 262.124 93.7876 261.075 93.7464L254.629 93.499C253.566 93.4577 252.654 94.3099 252.594 95.3912L252.283 101.247C252.228 102.287 253.021 103.148 254.051 103.18Z" fill="#34283A"/>
<path d="M253.969 101.911L259.719 102.09C260.654 102.117 261.478 101.38 261.556 100.431L261.996 95.0843C262.079 94.0947 261.364 93.2562 260.397 93.2196L254.473 92.9859C253.497 92.9492 252.659 93.7281 252.608 94.7269L252.338 100.129C252.288 101.086 253.016 101.884 253.969 101.911Z" fill="#BB83C3"/>
<path d="M255.829 99.3912L258.207 99.4691C258.597 99.4828 258.936 99.1759 258.963 98.7773L259.123 96.578C259.151 96.1748 258.858 95.8404 258.464 95.822L256.054 95.735C255.66 95.7212 255.316 96.0374 255.293 96.4406L255.16 98.649C255.142 99.0476 255.44 99.382 255.829 99.3912Z" fill="#9E54C7"/>
<path d="M248.746 92.3679L248.26 104.207" stroke="#34283A" stroke-width="7" stroke-miterlimit="10"/>
<path d="M243.912 92.3679L243.427 104.207" stroke="#34283A" stroke-width="7" stroke-miterlimit="10"/>
<path d="M274.17 82.6553L273.276 83.3059L268.864 114.178L269.588 114.361L274.17 82.6553Z" fill="#665070"/>
<path d="M188.99 157.145C188.99 157.145 191.602 160.572 196.738 158.195C201.948 155.789 215.34 136.647 220.577 130.901C226.025 124.927 230.776 118.989 226.859 113.106C223.262 107.708 220.096 114.828 216.902 117.096C213.75 119.337 187.245 145.576 186.264 149.888C185.321 154.057 188.99 157.145 188.99 157.145Z" fill="#F5894E"/>
<path d="M188.99 157.145C188.99 157.145 191.602 160.573 196.738 158.195C201.948 155.789 210.877 141.975 216.119 136.23L210.68 136.775L201.883 131.57C194.287 139.341 186.791 147.579 186.269 149.892C185.321 154.057 188.99 157.145 188.99 157.145Z" fill="#CC6D3D"/>
<path d="M168.084 114.723C168.084 114.723 199.744 145.659 201.434 149.283C203.125 152.907 201.192 156.531 197.086 157.984C192.977 159.431 192.495 161.851 181.137 150.492C169.779 139.134 143.196 120.285 144.644 114.966C146.092 109.646 152.378 101.188 168.084 114.723Z" fill="#F5894E"/>
<path d="M221.919 121.549C221.919 121.549 228.989 122.273 231.706 120.28C234.423 118.287 235.875 116.111 236.783 113.572C237.69 111.034 234.968 97.2614 230.803 98.164C226.634 99.0712 225.365 99.9784 223.372 105.05C221.374 110.132 217.75 121.366 221.919 121.549Z" fill="#F5894E"/>
<path d="M225.906 109.926C225.906 109.926 225.906 116.679 228.233 116.679C230.561 116.679 234.753 116.212 236.851 113.884C238.95 111.557 233.823 102.705 231.262 103.401C228.701 104.102 225.906 109.926 225.906 109.926Z" fill="#CC6D3D"/>
<path d="M236.1 111.309C235.83 111.809 234.286 114.21 234.693 114.755C235.303 115.57 236.732 116.523 238.909 113.623C241.085 110.723 241.584 108.116 239.046 108.638C237.507 108.95 236.375 110.81 236.1 111.309Z" fill="#F5894E"/>
<path d="M235.477 108.601C235.477 108.601 232.265 111.731 233.236 112.702C234.735 114.2 235.39 113.123 236.828 111.9C239.11 109.958 239.701 108.349 239.367 107.337C239.028 106.32 238.015 106.15 235.477 108.601Z" fill="#CC6D3D"/>
<path d="M235.151 108.226C235.151 108.226 231.706 111.579 232.75 112.619C234.359 114.228 235.06 113.073 236.604 111.758C239.05 109.673 239.687 107.951 239.321 106.865C238.954 105.779 237.868 105.6 235.151 108.226Z" fill="#F5894E"/>
<path d="M238.139 103.062C238.863 104.51 238.592 105.417 236.961 107.231C235.33 109.046 234.153 110.855 233.062 110.493C231.972 110.131 231.248 109.224 233.062 106.145C234.877 103.066 237.415 101.609 238.139 103.062Z" fill="#CC6D3D"/>
<path d="M238.052 102.878C238.776 104.326 238.505 105.233 236.874 107.048C235.243 108.862 234.066 110.672 232.975 110.31C231.889 109.948 231.161 109.041 232.975 105.962C234.79 102.878 237.323 101.43 238.052 102.878Z" fill="#F5894E"/>
<path d="M226.451 99.9784C226.451 99.9784 229.319 96.785 231.706 95.9923C233.882 95.2684 237.685 94.3612 239.861 94.1779C242.038 93.9947 242.762 96.7162 241.492 96.8949C240.223 97.0782 235.875 99.7951 234.244 99.9784C232.613 100.162 230.258 103.603 228.444 102.695C226.629 101.793 226.451 99.9784 226.451 99.9784Z" fill="#F5894E"/>
<path d="M228.174 102.787C228.174 102.787 230.441 99.8866 232.975 98.8878C235.087 98.0585 237.777 97.0734 238.684 97.7102C239.591 98.3471 236.87 100.249 235.239 101.156C233.607 102.063 228.174 102.787 228.174 102.787Z" fill="#CC6D3D"/>
<path d="M246.917 95.6623L238.895 95.8913L238.776 102.187L246.629 102.123L246.917 95.6623Z" fill="#FFACFF"/>
<path d="M226.176 112.532C226.176 112.532 230.698 111.909 232.567 107.777C233.988 104.638 234.638 104.175 236.783 103.154C237.85 102.645 241.016 101.527 239.866 99.4378C238.652 97.234 232.838 100.033 230.978 100.831C227.491 102.32 218.566 112.18 226.176 112.532Z" fill="#CC6D3D"/>
<path d="M226.089 113.032C226.089 113.032 230.519 111.827 232.435 107.593C233.887 104.381 234.066 104.148 237.268 102.7C239.413 101.729 240.952 101.069 239.866 98.8924C238.716 96.5878 232.98 99.5247 231.074 100.34C227.505 101.871 218.295 112.665 226.089 113.032Z" fill="#F5894E"/>
<path d="M312.001 178.464C312.001 178.464 316.349 177.016 316.895 165.777C317.44 154.538 316.171 148.376 316.171 148.376" stroke="#4B3355" stroke-width="3" stroke-miterlimit="10"/>
<path d="M308.922 152.361C308.922 152.361 309.105 163.962 308.922 166.863C308.739 169.763 307.474 181.542 307.474 181.542" stroke="#34283A" stroke-width="3" stroke-miterlimit="10"/>
<path d="M312.001 148.014C312.001 148.014 317.619 165.777 304.024 177.378" stroke="#665070" stroke-width="5" stroke-miterlimit="10"/>
<path d="M312.184 157.438C312.184 157.438 307.108 157.255 305.115 164.508C303.122 171.756 307.832 179.009 310.191 178.464" stroke="#34283A" stroke-width="3" stroke-miterlimit="10"/>
<path d="M310.553 177.011C310.553 177.011 321.971 164.503 310.553 151.092" stroke="#4B3355" stroke-width="3" stroke-miterlimit="10"/>
<path d="M303.3 171.756C303.3 171.756 308.015 169.039 311.639 173.026C315.263 177.012 313.994 181.726 313.994 181.726" stroke="#34283A" stroke-width="3" stroke-miterlimit="10"/>
<path d="M261.831 194.495C262.083 192.159 251.99 196.021 249.827 198.156C247.665 200.291 249.396 202.197 253.639 200.713C257.882 199.228 261.579 196.837 261.831 194.495Z" fill="#34283A"/>
<path d="M245.374 208.41C244.265 207.48 249.323 205.341 252.695 203.421C255.779 201.671 263.361 197.272 264.539 199.426C265.716 201.579 255.435 206.5 253.932 207.352C252.429 208.204 246.482 209.34 245.374 208.41Z" fill="#34283A"/>
<path d="M267.682 210.037C269.739 210.903 262.867 216.832 261.245 217.95C259.623 219.068 255.586 220.57 253.744 219.727C251.898 218.884 255.765 216.932 260.214 213.542C264.663 210.142 265.625 209.171 267.682 210.037Z" fill="#34283A"/>
<path d="M265.483 206.728C264.278 205.904 261.813 206.564 259.169 208.47C254.885 211.558 250.377 214.302 249.8 215.393C248.723 217.427 251.092 219.402 255.257 216.62C259.426 213.848 268.085 208.515 265.483 206.728Z" fill="#34283A"/>
<path d="M262.715 203.32C262.715 203.32 253.538 207.173 248.43 210.71C244.847 213.194 248.256 215.1 255.559 211.15C262.862 207.205 266.633 202.88 262.715 203.32Z" fill="#34283A"/>
<path d="M314.013 155.981C314.013 155.981 315.882 154.515 320.152 154.515C324.422 154.515 326.026 155.005 327.629 148.65C329.233 142.3 330.301 121.288 328.431 111.025C326.562 100.762 321.49 89.7705 316.684 89.0374C311.877 88.3043 314.013 99.0531 311.612 102.966C309.211 106.874 304.936 101.257 303.869 112.496C302.801 123.735 300.382 153.791 302.801 160.87C304.134 164.778 306.274 166.001 308.675 164.778C311.076 163.555 309.477 156.957 314.013 155.981Z" fill="#4B3355"/>
<path d="M308.675 106.141C311.177 105.624 310.476 107.273 312.881 103.608C315.286 99.9422 317.486 104.189 318.022 112.496C318.558 120.803 318.558 147.189 315.887 149.145C313.215 151.102 309.747 154.52 309.211 157.209C308.675 159.899 307.878 162.827 305.738 161.851C303.603 160.875 303.067 158.185 303.067 150.612C303.067 143.038 304.648 114.278 305.202 112.253C306.004 109.316 306.173 106.659 308.675 106.141Z" fill="#34283A"/>
<path d="M258.102 201.235C258.959 199.952 261.419 200.332 260.988 198.348C260.558 196.369 258.148 197.015 259.811 193.538C261.474 190.06 272.791 185.964 282.238 180.095C291.681 174.226 303.044 165.016 303.667 167.234C304.29 169.451 302.81 173.218 306.054 175.069C309.298 176.92 313.527 175.064 315.03 179.096C316.533 183.128 311.818 191.009 304.588 196.255C297.358 201.501 273.794 212.735 269.263 212.896C264.732 213.056 260.988 209.858 259.728 207.572C258.468 205.285 257.245 202.518 258.102 201.235Z" fill="#856792"/>
<path d="M318.65 175.867C313.51 175.867 309.344 170.564 309.344 164.023C309.344 157.482 313.51 152.179 318.65 152.179C323.789 152.179 327.955 157.482 327.955 164.023C327.955 170.564 323.789 175.867 318.65 175.867Z" fill="#34283A"/>
<path d="M321.064 176.353C316.459 176.353 312.725 171.05 312.725 164.509C312.725 157.968 316.459 152.665 321.064 152.665C325.67 152.665 329.403 157.968 329.403 164.509C329.403 171.05 325.67 176.353 321.064 176.353Z" fill="#4B3355"/>
<path d="M321.211 167.89C320.247 167.89 319.465 166.303 319.465 164.344C319.465 162.386 320.247 160.798 321.211 160.798C322.175 160.798 322.956 162.386 322.956 164.344C322.956 166.303 322.175 167.89 321.211 167.89Z" fill="#856792"/>
<path d="M264.191 200.699C264.191 200.699 268.896 209.464 269.538 210.531C270.179 211.599 265.689 212.456 263.339 210.105C260.988 207.755 257.992 204.758 258.848 202.834C259.705 200.91 264.191 200.699 264.191 200.699Z" fill="#665070"/>
<path d="M294.756 31.6291C294.756 31.6291 297.147 38.8591 292.923 43.0835C289.716 46.2907 285.175 43.7891 285.175 43.7891" stroke="#34283A" stroke-miterlimit="10"/>
<path d="M293.839 32.5449C293.839 32.5449 297.046 43.9992 293.839 47.2064C290.632 50.4136 281.927 49.0391 281.927 49.0391" stroke="#34283A" stroke-miterlimit="10"/>
<path d="M299.108 30.025C299.108 30.025 301.399 37.814 295.443 39.6467C289.487 41.4794 285.363 32.7741 285.363 32.7741" stroke="#554B5A" stroke-miterlimit="10"/>
<path d="M294.526 30.0254C294.526 30.0254 299.566 34.149 300.025 41.9379C300.483 49.7269 290.403 53.8504 290.403 53.8504" stroke="#34283A" stroke-miterlimit="10"/>
<path d="M248.709 49.7267C248.709 49.7267 248.251 56.5993 249.625 58.8902C251 61.181 252.411 63.1924 259.247 63.9117C267.952 64.8281 273.45 64.8281 278.032 64.3699C281.349 64.04 294.068 62.0974 294.068 57.9738C294.068 53.8502 295.443 50.643 293.152 49.2685C292.515 48.8836 288.941 50.5331 283.988 50.643C271.169 50.9271 248.709 49.7267 248.709 49.7267Z" fill="#4B3355"/>
<path d="M286.279 51.1006C285.821 51.5588 283.626 62.1151 286.806 61.5057C289.89 60.9147 293.198 60.5161 293.376 57.7441C293.784 51.49 294.87 51.0823 291.319 50.1797C287.397 49.19 286.737 50.6424 286.279 51.1006Z" fill="#665070"/>
<path d="M303.232 24.9849C303.232 24.9849 302.774 13.0723 302.774 9.86512C302.774 6.65791 296.359 3.90886 287.654 1.61799C278.948 -0.672876 274.367 -0.672876 260.622 2.53434C246.876 5.74156 246.418 10.7815 246.418 13.9887C246.418 17.1959 245.044 29.1084 245.96 40.1046C246.876 51.1008 246.721 50.89 251.705 53.2175C254.954 54.7341 260.159 55.962 265.721 56.1178C273.299 56.3285 283.988 51.5864 283.988 51.5864C283.988 51.5864 286.806 50.4089 289.028 44.6909C292.698 35.2342 294.526 32.7784 298.65 31.862C302.774 30.9457 302.774 30.0248 303.232 24.9849Z" fill="#665070"/>
<path d="M289.028 54.7988C287.004 54.7988 285.363 52.2347 285.363 49.0716C285.363 45.9086 287.004 43.3445 289.028 43.3445C291.053 43.3445 292.694 45.9086 292.694 49.0716C292.694 52.2347 291.053 54.7988 289.028 54.7988Z" fill="#34283A"/>
<path d="M289.945 54.084C288.173 54.084 286.737 51.8399 286.737 49.0716C286.737 46.3033 288.173 44.0592 289.945 44.0592C291.716 44.0592 293.152 46.3033 293.152 49.0716C293.152 51.8399 291.716 54.084 289.945 54.084Z" fill="#BB83C3"/>
<path d="M299.566 8.49068C299.566 8.49068 290.889 8.46319 286.738 12.6142C282.614 16.7378 284.447 18.5705 284.447 27.2758C284.447 35.9811 284.447 47.4354 285.821 46.5191C287.196 45.6028 289.487 37.8138 293.61 33.6902C297.734 29.5667 300.025 30.9412 300.941 29.5667C301.857 28.1922 301.857 10.3234 299.566 8.49068Z" fill="#856792"/>
<path d="M275.883 40.563C274.444 40.563 273.276 38.4092 273.276 35.7522C273.276 33.0953 274.444 30.9414 275.883 30.9414C277.323 30.9414 278.49 33.0953 278.49 35.7522C278.49 38.4092 277.323 40.563 275.883 40.563Z" fill="#34283A"/>
<path d="M254.349 39.6464C252.909 39.6464 251.742 37.4925 251.742 34.8356C251.742 32.1786 252.909 30.0247 254.349 30.0247C255.789 30.0247 256.956 32.1786 256.956 34.8356C256.956 37.4925 255.789 39.6464 254.349 39.6464Z" fill="#34283A"/>
<path d="M283.072 11.2399C281.01 12.3395 259.247 8.03268 250.084 10.3236C250.084 10.3236 248.709 7.11634 253.291 5.74182C257.873 4.36729 268.411 0.24373 276.658 0.701904C284.905 1.16008 300.405 6.19999 297.734 6.19999C295.443 6.19999 289.945 7.57451 283.072 11.2399Z" fill="#856792"/>
<path d="M62.2324 294.648C62.2324 294.648 57.1558 283.047 55.3461 288.485C53.5317 293.924 57.1604 299 57.1604 299C57.1604 299 50.998 289.938 49.1836 293.562C47.3693 297.186 54.9841 301.177 54.9841 301.177C54.9841 301.177 43.7451 298.638 49.9075 302.263C56.07 305.887 63.3183 303.71 63.3183 303.71L62.2324 294.648Z" fill="#288453"/>
<path d="M134.372 210C134.372 210 134.977 279.62 134.977 280.995C134.977 282.369 148.511 302.744 148.511 302.744L150.096 317.034L120.92 327.742L102.428 325.268L82.5342 333.442L56.794 317.245L58.9703 275.556L62.1317 202.573L86.8685 208.53L134.372 210Z" fill="#7A462F"/>
<path d="M132.686 206.239L134.372 210.367L122.606 215.402L102.446 214.486L101.072 218.152L89.1592 217.693L68.3948 213.446L62.1316 202.574L95.5828 201.483L132.686 206.239Z" fill="#D77D5B"/>
<path d="M114.918 207.472L115.885 209.84L109.136 212.727L97.5761 212.2L96.788 214.303L89.9567 214.042L78.0533 211.604L74.4612 205.369L93.6404 204.746L114.918 207.472Z" fill="#B44C29"/>
<path d="M122.606 215.403L102.446 214.487L101.021 217.978L101.626 234.11L99.6927 275.437L101.823 278.576L102.446 325.223L120.961 327.761L119.449 280.505L119.028 267.218L122.042 253.688L122.606 215.403Z" fill="#A96443"/>
<path d="M68.3949 213.446L62.1317 202.573L56.7939 317.245L63.6803 321.593L68.3949 213.446Z" fill="#A96443"/>
<path d="M113.708 253.321C113.708 253.321 110.446 279.785 111.894 275.795C113.346 271.813 113.708 253.321 113.708 253.321Z" fill="#7A462F"/>
<path d="M109.36 219.246C109.36 219.246 109.722 228.671 109.36 233.385C108.998 238.1 108.998 249.334 108.998 249.334L107.55 233.747L109.36 219.246Z" fill="#7A462F"/>
<path d="M118.18 265.284L117.094 279.785L112.379 286.671L113.103 299.725L117.094 306.973L114.556 297.548V285.947L118.542 280.147L118.18 265.284Z" fill="#7A462F"/>
<path d="M65.8564 216.708L64.4086 226.495L64.7706 242.81L62.9562 255.497L62.5942 242.81V227.585L65.8564 216.708Z" fill="#7A462F"/>
<path d="M71.6571 325.098L76.7336 313.864L75.2812 299.363L77.8195 278.337L72.019 299.725L74.5573 314.226L69.4808 324.012L71.6571 325.098Z" fill="#A96443"/>
<path d="M69.1187 292.838L72.7474 277.608L72.0189 259.121L76.3716 248.249L73.4714 248.611L69.1187 260.212L70.9331 276.523L69.1187 292.838Z" fill="#A96443"/>
<path d="M127.907 214.087L130.216 214.284L131.472 221.271L129.346 234.627L131.128 251.873L127.165 234.426L129.318 220.919L127.907 214.087Z" fill="#A96443"/>
<path d="M95.4683 224.053L96.3938 240.355L92.5818 249.486L91.9587 273.261L90.0939 250.104L94.08 239.131L94.9597 222.646" fill="#A96443"/>
<path d="M107.665 325.703L104.526 325.461L106.098 305.887L103.56 284.5L107.184 293.562L108.27 305.887L107.665 325.703Z" fill="#7A462F"/>
<path d="M127.485 325.827L126.395 310.597L132.557 296.462L130.386 280.509L134.734 295.734L128.209 311.325L130.386 324.736L127.485 325.827Z" fill="#A96443"/>
<path d="M150.504 318.574C150.504 318.574 155.219 313.859 153.404 310.959C151.59 308.059 149.418 314.221 149.418 314.221C149.418 314.221 146.88 306.973 145.794 309.507C144.708 312.045 146.88 317.484 146.88 317.484C146.88 317.484 142.165 308.783 140.718 313.135C139.27 317.484 141.803 320.022 141.803 320.022C141.803 320.022 134.189 314.945 134.555 318.936C134.917 322.922 135.462 322.381 135.462 322.381L150.504 318.574Z" fill="#288453"/>
<path d="M129.657 326.368C129.657 326.368 135.096 320.929 131.833 318.029C128.571 315.129 129.657 319.843 129.657 319.843C129.657 319.843 128.209 309.328 125.671 312.228C123.133 315.129 127.119 320.205 127.119 320.205C127.119 320.205 121.68 315.129 121.68 318.029C121.68 320.929 126.395 323.829 126.395 323.829C126.395 323.829 117.694 320.567 119.871 323.829C122.047 327.092 129.657 326.368 129.657 326.368Z" fill="#33A86D"/>
<path d="M109.901 319.541C109.96 320.388 107.363 326.065 103.738 323.165C100.114 320.265 103.738 314.826 106.639 316.279C109.539 317.726 109.841 318.693 109.901 319.541Z" fill="#33A86D"/>
<path d="M106.519 306.13C106.098 306.854 102.171 310.478 99.6332 306.13C97.0949 301.782 101.081 300.33 104.348 301.782C107.605 303.23 106.941 305.401 106.519 306.13Z" fill="#33A86D"/>
<path d="M97.9379 317.002C95.0376 314.102 98.2998 310.116 101.924 311.564C105.553 313.016 100.838 319.903 97.9379 317.002Z" fill="#33A86D"/>
<path d="M98.6664 317.003C98.6664 317.003 99.3904 320.627 96.4901 319.541C93.5899 318.455 95.0377 315.193 98.6664 317.003Z" fill="#288453"/>
<path d="M102.772 323.77C102.652 327.999 99.0237 327.394 98.6617 324.013C98.3043 320.627 102.895 319.541 102.772 323.77Z" fill="#33A86D"/>
<path d="M100.902 294.771C100.783 296.16 99.2116 300.512 95.5874 297.612C91.9632 294.712 96.0685 291.028 97.7637 290.666C99.459 290.304 101.021 293.379 100.902 294.771Z" fill="#33A86D"/>
<path d="M99.2069 280.573C99.2069 280.573 94.8588 284.921 92.3205 280.573C89.7822 276.225 93.7684 274.772 97.0352 276.224C100.297 277.672 99.2069 280.573 99.2069 280.573Z" fill="#33A86D"/>
<path d="M89.7823 291.445C86.8821 288.545 90.1443 284.559 93.7685 286.006C97.3972 287.459 92.6826 294.345 89.7823 291.445Z" fill="#33A86D"/>
<path d="M90.5061 291.445C90.5061 291.445 91.23 295.069 88.3298 293.983C85.4341 292.897 86.8819 289.635 90.5061 291.445Z" fill="#33A86D"/>
<path d="M98.2403 304.132C98.1212 308.361 94.4924 307.756 94.1304 304.375C93.7731 300.993 98.364 299.903 98.2403 304.132Z" fill="#288453"/>
<path d="M136.91 270.42C136.186 272.958 131.353 274.649 132.681 269.453C134.01 264.257 137.634 267.882 136.91 270.42Z" fill="#288453"/>
<path d="M128.933 263.653C132.558 263.653 134.853 269.091 127.605 267.763C120.356 266.434 125.309 263.653 128.933 263.653Z" fill="#288453"/>
<path d="M127.486 243.356C130.267 242.508 136.067 246.137 131.472 247.104C126.881 248.066 124.704 244.199 127.486 243.356Z" fill="#288453"/>
<path d="M132.8 249.881C135.096 249.638 138.358 253.505 132.8 253.386C127.243 253.262 130.505 250.119 132.8 249.881Z" fill="#288453"/>
<path d="M133.043 256.285C134.857 258.461 133.162 263.9 129.9 260.152C126.638 256.404 131.229 254.109 133.043 256.285Z" fill="#288453"/>
<path d="M100.66 328.722C100.66 328.722 92.3208 327.274 89.4206 328.36C86.5203 329.446 86.5203 329.446 86.5203 329.446C86.5203 329.446 82.8962 325.46 81.0818 326.184C79.2674 326.908 82.5296 329.446 82.5296 329.446C82.5296 329.446 72.743 321.831 73.4669 324.008C74.1909 326.184 78.1815 329.446 78.1815 329.446C78.1815 329.446 65.4947 317.002 63.6803 321.593C61.866 326.184 63.3184 326.184 63.3184 326.184C63.3184 326.184 62.5945 314.945 58.9703 316.397C55.3462 317.845 58.9703 320.022 58.9703 320.022C58.9703 320.022 43.3832 329.808 65.8567 334.161C88.3347 338.513 100.66 328.722 100.66 328.722Z" fill="#33A86D"/>
<path d="M54.1916 322.239C54.1916 322.239 64.0424 309.25 60.4137 309.25C56.7849 309.25 51.5984 323.265 54.1916 322.239Z" fill="#288453"/>
<path d="M53.156 321.867C53.156 321.867 54.7138 306.312 49.0095 309.941C43.3053 313.57 52.116 326.536 53.156 321.867Z" fill="#288453"/>
<path d="M35.5254 317.547C35.5254 317.547 31.3789 305.103 30.3389 311.325C29.3034 317.547 35.5254 317.547 35.5254 317.547Z" fill="#288453"/>
<path d="M37.0787 317.891C37.0787 317.891 41.2251 310.111 36.5609 308.558C31.8967 307.004 36.0432 319.448 37.0787 317.891Z" fill="#288453"/>
<path d="M59.378 328.956C59.378 328.956 62.489 317.029 65.6 321.176C68.711 325.322 63.5245 331.027 59.378 328.956Z" fill="#288453"/>
<path d="M57.8203 328.438C57.8203 328.438 63.5246 320.14 59.8958 317.547C56.2671 314.954 57.8203 328.438 57.8203 328.438Z" fill="#288453"/>
<path d="M192.849 308.581C192.849 308.581 196.858 307.779 202.869 309.383C208.88 310.986 208.078 315.797 207.68 316.998C207.281 318.198 202.067 320.603 190.443 319.802C178.819 319 178.522 318.29 172.006 318.601C164.914 318.936 167.997 307.376 170.004 303.77C172.006 300.164 192.849 308.581 192.849 308.581Z" fill="#EE5D4F"/>
<path d="M192.01 302.987C192.01 302.987 195.423 302.107 201.435 303.711C207.446 305.314 208.078 313.126 207.675 314.331C207.276 315.532 202.062 317.937 190.438 317.135C178.815 316.333 176.62 316.897 170.164 315.935C166.609 315.403 167.992 304.71 169.995 301.104C172.006 297.498 192.01 302.987 192.01 302.987Z" fill="#121721"/>
<path d="M106.387 173.845C106.387 173.845 99.5095 192.145 101.883 200.997C104.256 209.849 109.012 211.718 118.043 213.116C121.268 213.615 131.293 213.505 142.894 212.538C155.003 211.53 163.425 198.697 157.01 183.719C147.027 160.421 109.236 168.723 106.387 173.845Z" fill="#1D2538"/>
<path d="M159.475 183.916C159.475 183.916 175.969 185.291 185.133 185.749C194.296 186.207 209.416 185.749 211.707 193.538C213.998 201.327 212.623 215.988 197.962 215.53C183.3 215.072 135.939 216.181 127.664 209.638C119.394 203.1 125.112 183.458 159.475 183.916Z" fill="#1D2538"/>
<path d="M206.667 195.371C206.667 195.371 211.922 195.985 211.588 204.383C211.249 212.781 204.376 232.483 204.834 237.065C205.293 241.646 200.711 268.22 199.336 278.758C197.962 289.296 197.444 296.229 195.153 300.81C192.862 305.392 197.925 306.166 187.387 306.166C176.849 306.166 171.388 305.791 169.555 304.416C167.722 303.042 169.097 291.587 169.097 291.587C169.097 291.587 171.388 286.089 171.388 285.173C171.388 284.256 170.013 257.682 171.388 250.81C172.762 243.937 176.877 215.168 185.124 206.921C193.371 198.674 206.667 195.371 206.667 195.371Z" fill="#1D2538"/>
<path d="M198.901 211.269C198.901 211.269 211.927 195.984 211.588 204.383C211.249 212.781 204.376 232.482 204.834 237.064C205.293 241.646 200.711 268.22 199.336 278.758C197.962 289.296 197.444 296.228 195.153 300.81C192.862 305.392 197.925 306.166 187.387 306.166C176.849 306.166 171.388 305.79 169.555 304.416C167.722 303.041 181.5 301.355 181.5 301.355C181.5 301.355 182.586 295.202 182.586 294.285C182.586 293.369 190.274 276.508 191.648 269.636C193.023 262.763 191.103 240.995 189.472 233.202C187.841 225.408 198.901 211.269 198.901 211.269Z" fill="#273252"/>
<path d="M183.268 116.45C189.696 126.557 177.912 157.245 173.266 155.202C169.367 153.484 161.821 124.468 164.639 114.557C165.179 112.661 166.902 110.498 168.3 110.324" stroke="#992C29" stroke-miterlimit="10"/>
<path d="M173.125 161.409C172.181 161.342 171.526 159.729 171.661 157.806C171.797 155.882 172.672 154.377 173.616 154.444C174.56 154.51 175.216 156.123 175.08 158.047C174.944 159.97 174.069 161.475 173.125 161.409Z" fill="#29ABE2"/>
<path d="M185.023 100.528C184.107 100.986 176.318 112.899 176.318 112.899L159.365 104.651L167.154 91.8225L185.023 100.528Z" fill="#CC6D3D"/>
<path d="M158.907 182.541C158.907 182.541 161.656 170.17 163.031 167.879C164.405 165.588 173.779 153.176 179.204 144.929C190.659 127.519 187.905 120.037 187.905 120.037C187.905 120.037 179.992 108.005 168.996 103.423C158 98.8417 148.827 99.6114 146.078 100.528C143.329 101.444 135.096 105.233 130.959 111.982C127.096 118.277 114.006 136.723 111.257 150.469C108.508 164.214 106.46 174.839 106.46 174.839C106.46 174.839 121.337 181.625 129.126 182.541C136.915 183.457 158.907 182.541 158.907 182.541Z" fill="#F7BC4B"/>
<path d="M155.398 115.748C155.398 115.748 148.827 99.6113 146.078 100.528C143.329 101.444 135.096 105.233 130.959 111.982C127.096 118.277 114.006 136.723 111.257 150.469C108.508 164.214 105.612 174.413 105.612 174.413C105.612 174.413 121.337 181.624 129.126 182.541C132.296 182.912 143.435 168.855 143.435 168.855L139.087 153.992L155.398 115.748Z" fill="#CE9436"/>
<path d="M171.278 126.69C168.662 133.631 169.56 140.586 173.285 142.222C177.01 143.857 184.24 134.007 186.856 127.065C189.472 120.124 186.489 118.722 182.76 117.086C179.035 115.451 173.894 119.748 171.278 126.69Z" fill="#CC6D3D"/>
<path d="M141.258 155.083C141.258 155.083 149.959 133.333 153.221 127.895C153.221 127.895 148.507 146.02 143.073 158.345C140.782 163.536 141.258 155.083 141.258 155.083Z" fill="#CE9436"/>
<path d="M215.757 144.206C224.463 140.999 245.424 129.269 250.922 127.895C256.42 126.52 258.519 128.358 256.539 134.241C254.56 140.124 242.652 146.964 236.238 152.004C229.823 157.044 216.018 163.293 210.979 160.544C205.939 157.795 207.052 147.413 215.757 144.206Z" fill="#F5894E"/>
<path d="M233.942 147.712C243.124 144.811 256.539 134.237 256.539 134.237C254.56 140.12 242.652 146.96 236.238 152C229.823 157.04 216.018 163.29 210.979 160.541C205.939 157.792 224.76 150.612 233.942 147.712Z" fill="#CC6D3D"/>
<path d="M253.396 137.439C251.041 136.44 247.715 130.31 250.253 122.695C250.872 120.835 254.839 116.469 255.994 114.691C257.382 112.547 257.685 110.311 259.71 108.437C262.001 106.32 263.183 108.739 262.642 111.277C262.372 112.537 260.768 115.144 260.347 116.835C259.925 118.526 260.044 119.25 260.044 119.25C260.044 119.25 264.457 116.771 266.207 115.08C267.957 113.39 269.047 113.994 269.409 111.759C269.863 108.95 271.677 107.136 273.487 107.319C275.301 107.502 275.301 108.226 274.303 112.968C274.303 112.968 276.754 114.159 276.117 116.052C275.485 117.926 274.486 119.103 274.486 119.103C274.486 119.103 276.158 119.346 275.572 120.917C275.375 121.44 273.579 123.699 273.125 124.18C273.125 124.18 273.597 124.051 274.032 125.146C274.468 126.241 269.029 131.937 267.416 133.334C265.602 134.901 255.751 138.438 253.396 137.439Z" fill="#F5894E"/>
<path d="M209.865 160.156C205.15 157.604 191.896 150.47 184.107 143.139C176.318 135.809 169.28 130.535 173.404 123.662C177.527 116.79 180.23 115.14 185.728 118.348C187.909 119.617 193.939 127.36 199.02 131.639C206.763 138.159 214.571 144.129 217.026 146.383C222.46 151.368 218.566 164.871 209.865 160.156Z" fill="#F5894E"/>
<path d="M209.865 160.156C205.151 157.604 191.896 150.47 184.107 143.139C176.318 135.809 169.28 130.535 173.404 123.662C177.527 116.79 180.23 115.14 185.729 118.348C187.909 119.617 193.939 127.36 199.02 131.639C206.763 138.159 213.966 144.129 216.422 146.383C221.86 151.368 218.566 164.871 209.865 160.156Z" fill="#CC6D3D"/>
<path d="M212.797 150.973C208.083 148.421 206.085 148.156 198.296 140.825C190.507 133.494 180.23 115.144 185.729 118.351C187.909 119.621 193.939 127.364 199.02 131.643C206.763 138.163 213.966 144.133 216.422 146.387C221.86 151.367 221.494 155.683 212.797 150.973Z" fill="#F5894E"/>
<path d="M268.319 119.918L272.383 115.598L274.303 112.968C274.349 112.803 274.77 113.586 272.717 116.335C272.264 116.94 268.319 119.918 268.319 119.918Z" fill="#CC6D3D"/>
<path d="M274.573 119.044C274.573 119.044 271.462 123.543 270.555 124.267C270.555 124.267 274.211 120.689 274.752 119.282L274.573 119.044Z" fill="#CC6D3D"/>
<path d="M176.776 64.7912C176.776 64.7912 196.876 60.0857 199.625 72.9146C202.374 85.7435 200.372 99.3833 198.997 103.049C197.623 106.714 191.666 105.798 183.877 104.423C176.088 103.049 171.048 100.758 170.59 92.0525C170.132 83.3472 168.987 64.7912 176.776 64.7912Z" fill="#CC6D3D"/>
<path d="M182.769 73.7711C182.769 73.7711 197.485 70.3256 199.496 79.7182C201.508 89.1107 200.042 99.0989 199.038 101.784C198.03 104.469 193.669 103.795 187.969 102.792C182.269 101.788 178.576 100.107 178.242 93.7337C177.907 87.3559 177.069 73.7711 182.769 73.7711Z" fill="#F5894E"/>
<path d="M171.278 71.6635C171.278 71.6635 190.063 78.5361 197.852 73.4961C205.641 68.4562 202.433 65.7072 194.644 61.1255C186.856 56.5437 179.983 56.0855 173.11 59.7509C166.238 63.4163 165.321 70.7471 171.278 71.6635Z" fill="#273252"/>
<path d="M193.462 64.9372C193.462 64.9372 190.063 78.5358 197.852 73.4959C205.641 68.456 202.433 65.707 194.644 61.1252C188.839 58.2021 189.385 59.0176 193.462 64.9372Z" fill="#3E4C6F"/>
<path d="M187.772 72.1214L188.688 84.4921H185.023C185.023 84.4921 178.608 95.9464 174.027 98.2373C172.194 99.3736 166.856 99.1903 163.191 96.8994C159.525 94.6086 158.907 87.2411 158.449 79.4522C157.991 71.6632 155.31 67.2464 166.696 62.4997C183.19 55.6271 187.772 72.1214 187.772 72.1214Z" fill="#273252"/>
<path d="M186.118 85.5551C186.118 85.5551 186.947 80.167 181.142 78.5084C175.337 76.8498 176.583 84.3089 177.825 87.6261C179.067 90.9432 182.205 93.422 184.872 92.1849C190.713 89.4771 186.118 85.5551 186.118 85.5551Z" fill="#F5894E"/>
<path d="M196.972 82.7558C196.894 84.0845 197.485 84.703 198.149 84.7397C198.814 84.7764 199.299 84.2265 199.377 82.8978C199.455 81.5691 198.983 80.4649 198.319 80.4237C197.655 80.387 197.05 81.4271 196.972 82.7558Z" fill="#34283A"/>
<path d="M195.194 78.3713C195.194 78.3713 196.495 76.03 198.608 76.6669" stroke="#34283A" stroke-width="2" stroke-miterlimit="10" stroke-linecap="round" stroke-linejoin="round"/>
</svg>
