<svg width="627" height="714" viewBox="0 0 627 714" fill="none" xmlns="http://www.w3.org/2000/svg">
<path d="M76.3113 473.153L76.1633 342.613L100.271 340.852L123.762 481.748L76.3113 473.153Z" fill="#F3E7D9"/>
<path d="M377.987 34.1506C368.06 46.96 350.148 49.6949 337.977 40.2671C325.807 30.8392 323.983 12.8094 333.91 0C333.91 0 331.533 19.3622 344.397 29.3276C357.261 39.3009 377.987 34.1506 377.987 34.1506Z" fill="#F3E7D9"/>
<path d="M326.812 253.586C326.812 253.586 368.559 270.704 381.065 260.98C403.255 243.722 320.648 195.632 320.648 195.632C335.881 205.543 370.889 202.107 354.246 187.31C337.603 172.514 308.704 154.648 302.463 146.622C302.463 146.622 341.304 166.966 337.603 157.718C333.902 148.469 286.552 105.397 286.552 105.397C286.552 105.397 325.121 125.889 316.332 115.176C286.739 79.1237 238.385 12.8249 237.294 11.2744C237.286 11.2588 237.27 11.2588 237.263 11.2744C236.476 12.7002 196.614 65.2235 182.597 83.3858C163.757 107.789 141.558 134.608 149.88 132.761C158.201 130.915 179.683 117.396 183.36 116.072C155.427 161.427 139.712 164.2 126.762 183.617C118.604 195.858 159.767 188.837 159.767 188.837C159.767 188.837 149.428 203.065 123.988 228.925C98.5486 254.786 168.954 238.104 168.954 238.104C168.954 238.104 95.019 281.939 106.114 307.831C116.874 332.936 159.354 296.829 159.354 296.829C105.148 335.795 133.237 370.803 156.355 367.632C178.14 364.64 218.835 336.8 224.78 333.419L219.241 442.945L275.675 440.405L267.798 344.202C274.857 349.384 282.267 353.069 289.217 353.295C313.846 354.098 310.699 324.022 310.699 324.022C325.207 331.556 366.642 331.33 366.175 310.909C365.723 290.502 326.812 253.586 326.812 253.586Z" fill="#F3E7D9"/>
<path d="M90.9207 111.817C90.9207 111.817 47.6305 191.814 24.8244 215.461C2.01839 239.109 35.8028 224.749 45.9397 212.929C45.9397 212.929 -8.95999 295.699 -30.0753 310.059C-51.1905 324.419 -23.242 337.353 8.01014 317.929C8.01014 317.929 -32.6075 381.01 -57.9459 399.593C-83.2842 418.176 -75.6796 433.377 -18.2476 400.434C-18.2476 400.434 -30.9168 413.103 -3.88766 413.945C23.1414 414.786 32.4291 395.362 32.4291 395.362C32.4291 395.362 1.1769 438.434 23.1414 441.816C45.0982 445.197 70.4365 403.808 70.4365 403.808C70.4365 403.808 58.5855 433.221 69.5717 434.912C80.5578 436.603 103.379 406.34 103.379 406.34C103.379 406.34 127.876 435.754 143.078 434.912C158.279 434.071 138.005 385.225 138.005 385.225C138.005 385.225 152.365 403.808 172.631 406.34C192.905 408.873 176.854 380.161 176.854 380.161C176.854 380.161 210.639 402.967 236.819 394.52C262.998 386.074 212.82 352.524 190.482 333.536C172.25 318.038 161.31 302.54 161.31 302.54L195.04 313.176C211.932 316.558 166.717 259.679 155.739 240.247C155.739 240.247 180.392 243.667 171.946 229.307C163.507 214.947 102.748 138.418 90.9207 111.817Z" fill="white"/>
<path d="M83.0043 109.877C83.0043 109.877 35.6313 191.829 12.5837 215.726C-10.4639 239.623 23.6789 225.115 33.9249 213.163C33.9249 213.163 -21.5592 296.821 -42.9004 311.329C-64.2416 325.837 -35.9892 338.912 -4.40983 319.277C-4.40983 319.277 -45.4638 383.028 -71.0749 401.813C-96.6859 420.599 -89.0034 435.956 -30.9559 402.671C-30.9559 402.671 -43.7575 415.472 -16.4479 416.329C10.8617 417.186 20.2584 397.551 20.2584 397.551C20.2584 397.551 -11.3288 441.083 10.8695 444.504C33.06 447.916 58.6711 406.091 58.6711 406.091C58.6711 406.091 46.6954 435.824 57.7906 437.53C68.8859 439.237 91.9568 408.655 91.9568 408.655C91.9568 408.655 116.719 438.387 132.084 437.53C147.449 436.673 126.957 387.313 126.957 387.313C126.957 387.313 141.465 406.091 161.957 408.655C182.441 411.218 166.227 382.194 166.227 382.194C166.227 382.194 200.369 405.242 226.837 396.702C253.306 388.163 200.377 354.02 180.742 331.829C161.107 309.639 139.766 279.758 139.766 279.758C139.766 279.758 167.933 301.948 185.012 305.369C202.083 308.782 158.552 258.417 147.449 238.79C147.449 238.79 172.203 244.766 163.671 230.25C155.131 215.726 94.9566 136.766 83.0043 109.877Z" fill="#F3E7D9"/>
<path d="M421.947 78.1967C421.947 78.1967 381.369 143.833 349.618 174.369C326.749 196.356 365.606 202.457 385.67 173.901C385.67 173.901 348.418 215.095 333.754 226.674C319.09 238.252 364.196 218.944 364.196 218.944C364.196 218.944 340.509 259.126 323.718 280.716C306.928 302.307 351.005 296.907 351.005 296.907C351.005 296.907 324.614 334.089 305.432 359.279C286.241 384.469 341.733 389.121 361.804 362.879C361.804 362.879 325.456 405.109 348.613 412.052C371.769 418.994 425.376 376.07 425.376 376.07C425.376 376.07 457.368 406.013 479.348 408.452C491.441 409.792 494.97 381.781 494.97 381.781C501.079 389.105 539.414 402.086 547.751 396.18C566.271 383.059 541.58 368.395 541.58 368.395C541.58 368.395 599.199 384.072 586.343 366.081C578.621 355.274 554.085 321.973 520.129 274.117C520.129 274.117 565.703 290.908 541.72 268.117C525.584 252.783 493.381 217.433 471.775 182.706C471.775 182.706 519.748 209.602 512.081 199.8C490.085 171.712 441.247 113.703 421.947 78.1967Z" fill="white"/>
<path d="M476.59 467.504L460.305 339.48H428.89L412.504 467.504H476.59Z" fill="#F3E7D9"/>
<path d="M434.258 66.9844C434.258 66.9844 387.547 143.031 354.9 174.415C331.393 197.019 376.343 194.72 396.967 165.369C396.967 165.369 358.672 207.716 343.603 219.614C328.526 231.512 374.902 211.667 374.902 211.667C374.902 211.667 347.779 256.056 330.513 278.246C313.254 300.437 361.336 291.811 361.336 291.811C361.336 291.811 334.214 330.029 314.485 355.929C294.757 381.828 351.807 386.604 372.432 359.63C372.432 359.63 335.071 403.037 358.866 410.182C382.67 417.319 437.772 373.195 437.772 373.195C437.772 373.195 470.66 403.972 493.256 406.488C505.684 407.867 509.315 379.07 509.315 379.07C515.595 386.604 555.005 399.943 563.568 393.874C582.61 380.386 546.27 354.705 546.27 354.705C546.27 354.705 612.499 363.338 599.284 344.841C591.353 333.73 567.611 308.961 532.705 259.764C532.705 259.764 579.556 277.023 554.896 253.601C538.307 237.839 521.625 217.791 499.411 182.09C499.411 182.09 534.77 202.083 526.885 192.009C504.305 163.117 454.088 103.48 434.258 66.9844Z" fill="#F3E7D9"/>
<path d="M56.7621 461.645C56.7621 461.645 76.3268 464.045 80.6356 473.154C80.6356 473.154 75.2126 462.931 76.0463 450.986C76.0463 450.986 88.6298 469.305 87.1104 473.465C87.1104 473.465 83.8068 464.762 84.7028 457.89C84.7028 457.89 95.7669 472.172 89.0583 479.706L80.02 479.34C80.0123 479.34 63.6966 468.533 56.7621 461.645Z" fill="#F3E7D9"/>
<path d="M474.619 468.151C474.619 468.151 472.445 443.958 468.105 439.003C468.105 439.003 476.169 442.727 478.647 451.407C478.647 451.407 478.024 436.525 476.785 432.177C476.785 432.177 487.327 450.784 484.849 460.71C484.849 460.71 489.812 443.966 488.573 437.141C488.573 437.141 494.152 452.646 492.298 460.71C492.298 460.71 496.638 447.067 509.665 443.966C522.693 440.865 527.033 444.589 527.033 444.589C527.033 444.589 510.904 445.213 505.325 452.03C505.325 452.03 525.171 455.131 530.134 460.095C530.134 460.095 506.564 457.305 498.5 463.819C490.436 470.333 478.655 465.681 478.655 465.681L474.619 468.151Z" fill="#F3E7D9"/>
<path d="M87.6171 533.468C87.6171 533.468 167.762 545.795 178.857 554.428L173.925 535.931C173.925 535.931 198.585 534.7 209.681 542.094C209.681 542.094 186.251 519.903 171.463 512.501L203.517 526.066L208.449 517.433L234.341 522.365L249.137 501.406L295.988 512.501L303.382 507.569L335.437 528.529C335.437 528.529 345.301 517.433 351.464 507.569L353.927 514.963C353.927 514.963 358.859 511.262 363.791 498.936L369.954 507.569C369.954 507.569 389.682 492.773 389.682 469.351L127.682 456.402L136.922 473.419L45.3866 474.891L87.6171 533.468Z" fill="#F3E7D9"/>
<path d="M151.734 555.659C151.734 555.659 176.395 563.053 188.721 566.754L157.897 584.013L171.463 595.108C171.463 595.108 146.802 603.741 115.978 612.366L141.87 618.53L37.9922 631.168L103.644 635.788L-9.17046 666.3L-67.4283 640.408L-18.4191 608.969L-61.8807 600.648C-61.8807 600.648 93.7801 554.412 108.576 554.412C123.373 554.412 151.734 555.659 151.734 555.659Z" fill="#F3E7D9"/>
<path d="M383.838 470.278L422.68 456.409L626.423 551.966L603.92 584.02L488.332 625.635L516.997 603.445L471.066 614.852L420.514 613.621L427.908 591.43L379.826 581.566L415.582 561.838L389.69 556.906L397.084 542.109C397.084 542.109 378.587 542.109 365.03 545.81C351.464 549.511 379.826 532.245 379.826 532.245L369.962 524.851C369.962 524.851 397.084 505.123 409.418 503.892C421.745 502.66 367.5 497.728 363.798 498.959C360.097 500.19 367.5 497.728 367.5 497.728L383.838 470.278Z" fill="#F3E7D9"/>
<path d="M188.035 430.479C188.035 430.479 360.175 426.731 378.307 427.354C378.307 427.354 393.523 437.982 393.523 455.069C393.523 472.156 383.519 481.747 383.519 481.747H191.37C191.37 481.747 177.454 473.387 176.363 466.741C171.774 438.816 188.035 430.479 188.035 430.479Z" fill="#7A462F"/>
<path d="M383.519 481.794L375.182 472.413L370.803 452.404C370.803 452.404 373.943 430.892 378.26 427.985C382.584 425.087 393.687 442.244 393.976 454.181C394.264 466.118 393.976 471.938 393.976 471.938L383.519 481.794Z" fill="#CC6D3D"/>
<path d="M384.275 471.642L379.156 465.884L376.468 453.596C376.468 453.596 378.392 440.382 381.049 438.598C383.706 436.813 390.524 447.355 390.703 454.687C390.882 462.019 390.703 465.595 390.703 465.595L384.275 471.642Z" fill="#B44C29"/>
<path d="M383.519 481.747L353.81 473.223L359.388 469.865L348.098 470.917L353.334 466.156L341.444 466.632L339.068 463.78L355.321 463.211L344.117 455.848L363.518 447.698L252.916 447.308C238.283 446.802 200.26 448.633 186.126 449.358L181.506 449.256L182.106 449.568C181.21 449.615 180.727 449.638 180.727 449.638L186.999 452.116L190.427 453.908L181.498 454.298L183.049 457.017L201.686 457.936L230.78 469.437L191.355 481.763H383.519V481.747Z" fill="#A96443"/>
<path d="M200.907 463.211L191.596 462.432L202.466 465.931L197.806 467.092L215.267 464.762L200.907 463.211Z" fill="#A96443"/>
<path d="M368.614 488.448C368.614 488.448 368.006 471.852 374.691 465.377L372.128 483.477C372.128 483.477 376.818 472.92 385.958 470.504C385.958 470.504 376.39 476.925 373.6 488.799L368.614 488.448Z" fill="#BB83C3"/>
<path d="M215.804 486.898C215.804 486.898 215.08 482.574 212.197 478.241C209.314 473.917 204.624 473.917 204.624 473.917C204.624 473.917 209.314 479.683 210.756 481.49C210.756 481.49 206.065 479.691 203.182 483.657C200.299 487.622 200.299 487.622 200.299 487.622C200.299 487.622 212.057 485.636 215.804 486.898Z" fill="#BB83C3"/>
<path d="M218.555 487.397C218.555 487.397 215.851 480.634 221.531 476.847L218.555 487.397Z" fill="#BB83C3"/>
<path d="M220.986 486.586C220.986 486.586 220.448 482.527 225.31 480.633C230.18 478.74 232.611 479.013 232.611 479.013L220.986 486.586Z" fill="#BB83C3"/>
<path d="M251.264 424.074C251.264 424.074 249.449 442.828 266.902 440.951C283.038 439.213 292.466 441.449 296.191 436.728C299.822 432.131 299.666 424.066 290.23 417.864C280.802 411.662 259.703 417.872 251.264 424.074Z" fill="#1D2538"/>
<path d="M251.264 418.363C251.264 418.363 227.438 423.326 220.978 426.061C214.527 428.788 214.277 432.512 216.514 436.486C218.75 440.46 225.622 449.911 240.34 443.686C246.792 440.958 263.918 442.938 268.64 440.46C273.353 437.974 268.64 412.659 251.264 418.363Z" fill="#1D2538"/>
<path d="M284.542 420.716C295.684 416.921 323.236 411.163 328.199 413.15C336.887 416.625 339.715 428.617 329.656 431.78C323.594 433.689 321.693 434.975 309.335 437.46C297.056 439.922 292.661 439.47 287.776 439.182C278.138 438.613 274.959 423.981 284.542 420.716Z" fill="#273252"/>
<path d="M284.542 420.716C295.684 416.921 323.236 411.163 328.199 413.15C336.887 416.625 339.715 428.617 329.656 431.78C323.594 433.689 321.693 434.975 309.335 437.46C297.056 439.922 292.661 439.47 287.776 439.182C278.138 438.613 274.959 423.981 284.542 420.716Z" fill="#1D2538"/>
<path d="M336.348 498.593C336.348 498.593 342.823 499.972 343.485 504.032C344.179 508.325 343.368 510.125 341.421 510.74C339.426 511.371 336.239 512.47 331.962 512.182C323.991 511.652 324.396 511.512 317.96 505.224C311.719 499.115 316.635 496.887 317.181 495.843C317.719 494.822 336.348 498.593 336.348 498.593Z" fill="#EE5D4F"/>
<path d="M330.598 494.635C330.598 494.635 343.026 499.77 343.602 503.455C344.21 507.343 342.441 509.338 331.961 509.096C324.107 508.917 324.52 507.359 318.287 501.71C312.202 496.193 316.573 495.438 317.111 494.495C317.648 493.568 330.598 494.635 330.598 494.635Z" fill="#121721"/>
<path d="M313.153 426.77C312.779 417.514 331.144 413.532 335.476 420.139C339.808 426.747 336.683 446.163 336.255 456.16C335.826 466.157 334.027 484.046 334.728 485.62C335.429 487.194 338.039 492.181 338.039 492.181L337.104 495.991C337.104 495.991 327.746 498.671 326.975 498.632C326.204 498.601 317.204 498.983 316.246 497.401C315.288 495.819 313.893 492.422 313.893 492.422C313.893 492.422 314.158 486.275 314.189 485.503C314.228 484.724 313.519 436.027 313.153 426.77Z" fill="#1D2538"/>
<path d="M331.112 460.297C331.112 460.297 332.11 426.077 335.811 431.71C339.512 437.351 336.847 453.924 336.473 462.456C336.107 470.987 334.572 486.259 335.172 487.599C335.772 488.939 338 493.201 338 493.201L337.205 496.45C337.205 496.45 329.219 498.733 328.564 498.71C327.91 498.679 320.227 499.006 319.409 497.658C318.591 496.31 317.399 493.404 317.399 493.404C317.399 493.404 318.295 474.33 318.318 473.676C318.342 473.021 331.112 460.297 331.112 460.297Z" fill="#273252"/>
<path d="M229.744 502.964C229.744 502.964 223.269 504.343 222.607 508.403C221.913 512.696 222.723 514.496 224.671 515.111C226.666 515.742 229.853 516.841 234.13 516.553C242.101 516.023 241.696 515.883 248.132 509.595C254.373 503.486 249.456 501.258 248.911 500.214C248.373 499.193 229.744 502.964 229.744 502.964Z" fill="#EE5D4F"/>
<path d="M235.502 499.006C235.502 499.006 223.074 504.141 222.497 507.826C221.89 511.714 223.658 513.709 234.138 513.467C241.992 513.288 241.579 511.73 247.812 506.081C253.898 500.564 249.527 499.808 248.989 498.866C248.451 497.946 235.502 499.006 235.502 499.006Z" fill="#121721"/>
<path d="M244.314 462.05C244.314 462.05 242.826 442.937 238.353 436.977C233.889 431.016 221.726 421.838 216.513 429.528C211.301 437.218 213.786 442.68 216.264 450.378C218.742 458.077 226.082 488.253 227.32 492.718C228.559 497.183 228.068 495.445 228.809 498.679C229.549 501.912 236.998 503.642 236.998 503.642C236.998 503.642 250.15 501.904 251.646 500.167C253.134 498.429 251.397 498.18 251.895 494.456C252.394 490.731 248.919 486.516 248.919 486.516L244.314 462.05Z" fill="#1D2538"/>
<path d="M244.104 462.806L234.769 454.765C234.769 454.765 219.615 446.226 221.601 452.817C222.723 456.534 230.983 485.332 230.983 485.332L242.919 491.44L231.676 494.175C232.276 496.941 238.244 498.429 238.244 498.429C238.244 498.429 248.794 496.941 249.994 495.453C251.194 493.965 249.791 493.754 250.197 490.568C250.602 487.381 247.805 483.766 247.805 483.766L244.104 462.806Z" fill="#273252"/>
<path d="M299.673 397.045C299.673 397.045 294.079 385.623 293.853 379.966C293.627 374.317 293.767 368.684 299.642 370.047C305.517 371.403 307.496 373.522 308.626 379.857C309.756 386.184 310.885 389.355 312.919 393.874C314.953 398.393 323.726 414.397 315.389 416.641C306.117 419.142 299.673 397.045 299.673 397.045Z" fill="#CC6D3D"/>
<path d="M250.274 375.673C247.049 373.187 243.2 374.551 240.597 377.161C237.122 380.636 235.385 384.36 234.146 390.072C232.907 395.783 228.614 403.606 227.196 410.423C225.957 416.384 224.219 422.087 230.92 423.334C237.621 424.573 241.096 415.145 242.335 411.421C243.574 407.696 247.049 399.258 249.285 394.295C251.287 389.822 253.5 378.158 250.274 375.673Z" fill="#CC6D3D"/>
<path d="M297.928 369.47C297.928 369.47 286.264 364.258 270.377 365.995C256.095 367.554 245.802 374.184 245.802 374.184C245.802 374.184 247.571 392.666 247.571 395.393C247.571 396.601 253.976 425.375 253.976 425.375C253.976 425.375 262.679 431.024 263.427 431.523C264.175 432.022 279.314 433.51 284.277 433.011C289.24 432.512 297.43 418.612 297.43 418.612C297.43 418.612 297.18 389.822 297.43 387.835C297.679 385.848 297.928 369.47 297.928 369.47Z" fill="#F7BC4B"/>
<path d="M294.43 385.178C292.692 383.659 273.089 381.719 273.089 381.719C273.089 381.719 254.693 385.662 253.298 388.318C251.903 390.975 254.007 403.442 254.007 405.18C254.007 405.951 259.22 424.261 259.22 424.261C259.22 424.261 266.31 427.861 266.91 428.173C267.518 428.492 279.844 429.435 283.888 429.123C287.932 428.804 294.601 419.96 294.601 419.96C294.601 419.96 294.399 401.627 294.601 400.364C294.812 399.102 296.175 386.698 294.43 385.178Z" fill="#FEED7F"/>
<path d="M255.729 414.989C255.729 414.989 256.531 398.712 257.139 397.185C257.139 397.185 250.797 405.016 255.729 414.989Z" fill="#F7BC4B"/>
<path d="M283.989 384.142C283.989 384.142 289.506 389.931 290.877 391.583C292.256 393.235 295.287 407.299 295.287 407.299C295.287 407.299 295.014 395.167 292.809 390.757C290.604 386.347 283.989 384.142 283.989 384.142Z" fill="#F7BC4B"/>
<path d="M295.568 412.254L289.778 421.628C289.778 421.628 283.163 424.939 277.927 426.31C272.691 427.689 264.97 430.993 264.97 430.993C264.97 430.993 279.478 429.209 282.891 427.962C297.219 422.734 295.568 412.254 295.568 412.254Z" fill="#F7BC4B"/>
<path d="M283.779 372.946C283.779 378.563 279.33 386.347 273.852 386.347C268.375 386.347 263.926 381.789 263.926 376.171C263.926 370.554 268.375 365.995 273.852 365.995C279.33 365.995 283.779 367.32 283.779 372.946Z" fill="#F5894E"/>
<path d="M276.392 379.194L266.403 383.121C266.403 383.121 261.939 379.062 261.939 373.444C261.939 367.827 268.367 365.995 273.852 365.995C279.337 365.995 276.392 379.194 276.392 379.194Z" fill="#CC6D3D"/>
<path d="M265.414 365.996L266.902 376.67C266.902 376.67 268.39 379.646 273.852 379.896C279.314 380.145 279.314 369.969 279.314 369.969L278.815 364.507L265.414 365.996Z" fill="#CC6D3D"/>
<path d="M303.359 505.138C303.265 507.819 295.271 510.366 281.433 510.366C267.595 510.366 259.391 506.837 259.484 504.157C259.578 501.476 267.634 494.838 281.472 494.838C295.31 494.838 303.46 502.458 303.359 505.138Z" fill="#856792"/>
<path d="M259.313 504.157L255.846 461.56L304.372 459.994L303.359 505.138L259.313 504.157Z" fill="#856792"/>
<path d="M280.26 466.711C293.725 466.688 304.635 463.986 304.63 460.677C304.624 457.368 293.704 454.704 280.239 454.728C266.775 454.751 255.864 457.452 255.87 460.761C255.875 464.071 266.795 466.734 280.26 466.711Z" fill="#665070"/>
<path d="M280.304 464.958C292.749 464.936 302.834 462.815 302.83 460.221C302.825 457.626 292.733 455.54 280.288 455.561C267.843 455.582 257.758 457.703 257.763 460.298C257.767 462.893 267.859 464.979 280.304 464.958Z" fill="#34283A"/>
<path d="M258.347 492.29C258.347 492.29 265.827 495.718 281.028 495.718C296.229 495.718 303.359 492.679 303.359 492.679" stroke="#665070" stroke-width="4" stroke-miterlimit="10" stroke-linecap="round" stroke-linejoin="round"/>
<path d="M258.542 497.962C258.542 497.962 265.827 501.39 281.028 501.39C296.23 501.39 303.359 498.352 303.359 498.352" stroke="#665070" stroke-width="4" stroke-miterlimit="10" stroke-linecap="round" stroke-linejoin="round"/>
<path d="M259.492 420.349C261.261 421.237 262.172 422.967 261.284 425.18C260.63 426.824 260.747 428.031 254.326 427.681C247.781 427.315 231.38 426.325 228.949 424.556C226.518 422.788 224.235 419.453 229.323 415.689C234.411 411.926 240.379 414.887 243.441 415.549C250.041 416.975 257.716 419.468 259.492 420.349Z" fill="#F5894E"/>
<path d="M259.492 420.35C261.261 421.238 241.275 417.802 237.005 417.412C232.736 417.023 228.949 424.549 228.949 424.549C226.518 422.781 224.235 419.446 229.323 415.682C234.411 411.919 240.379 414.88 243.441 415.542C250.041 416.976 257.715 419.469 259.492 420.35Z" fill="#CC6D3D"/>
<path d="M264.697 420.248C264.697 420.248 261.502 423.786 262.71 424.83C263.918 425.874 268.071 422.329 269.294 422.009C270.517 421.698 272.083 419.882 270.681 419.306C269.278 418.729 264.697 420.248 264.697 420.248Z" fill="#CC6D3D"/>
<path d="M256.282 423.046C256.282 423.046 256.819 427.682 260.209 427.51C263.598 427.331 263.777 424.3 265.562 421.978C267.346 419.656 271.094 418.051 271.094 418.051C271.094 418.051 275.73 419.119 276.626 418.23C277.522 417.334 275.909 416.984 275.909 416.984C275.909 416.984 276.088 415.199 274.483 415.02C274.483 415.02 275.73 413.773 273.766 412.698C271.803 411.623 266.45 410.556 265.382 410.735C264.315 410.914 260.918 414.467 259.313 415.55C257.715 416.633 256.103 419.477 256.282 423.046Z" fill="#F5894E"/>
<path d="M317.095 419.633C319.105 416.758 321.552 411.28 317.524 409.27C313.495 407.26 311.36 407.478 305.493 413.345C300.608 418.23 292.224 427.682 289.349 430.845C286.474 434.009 286.575 440.289 296.393 435.73C304.449 431.99 315.085 422.508 317.095 419.633Z" fill="#CC6D3D"/>
<path d="M315.264 422.002C317.01 419.508 312.093 416.836 312.093 416.836C312.093 416.836 308.439 416.025 303.359 421.106C299.128 425.336 293.72 428.975 291.235 431.71C288.742 434.453 288.835 439.891 297.336 435.941C304.309 432.707 313.527 424.487 315.264 422.002Z" fill="#F5894E"/>
<path d="M295.022 431.071C295.022 431.071 297.359 433.923 294.507 436.252C291.656 438.59 286.7 440.6 286.7 440.6L282.789 445.182C282.789 445.182 282.968 448.298 282.368 448.711C281.768 449.124 279.984 449.21 279.75 448.064C279.516 446.919 279.984 444.395 279.984 444.395L281.137 442.104L278.659 444.028C278.659 444.028 277.553 445.727 277.327 446.872C277.101 448.018 275.722 447.558 275.036 446.639C274.35 445.719 275.589 443.382 275.589 443.382C275.589 443.382 273.618 443.795 273.158 442.875C272.699 441.956 278.714 432.731 278.94 432.505C279.166 432.279 284.082 429.481 284.082 429.481C284.082 429.481 288.734 429.271 290.892 429.458C293.05 429.645 295.022 431.071 295.022 431.071Z" fill="#F5894E"/>
<path d="M257.552 363.385C262.96 372.423 266.746 372.945 266.746 372.945C282.493 372.556 289.459 362.17 287.526 352.796C285.906 343.033 283.397 339.699 272.232 340.789C256.687 342.301 252.737 355.329 257.552 363.385Z" fill="#1D2538"/>
<path d="M257.552 363.385C262.96 372.423 266.746 372.945 266.746 372.945C282.493 372.556 289.459 362.17 287.526 352.796C285.906 343.033 283.397 339.699 272.232 340.789C256.687 342.301 252.737 355.329 257.552 363.385Z" fill="#3E4C6F"/>
<path d="M257.233 360.611C261.845 368.325 272.855 360.931 272.855 360.931C275.06 359.232 275.317 353.763 275.177 348.27C275.052 343.524 277.288 338.764 264.066 341.732C252.308 344.366 253.134 353.747 257.233 360.611Z" fill="#1D2538"/>
<path d="M272.301 341.935C272.301 341.935 281.168 345.122 282.758 346.446C284.347 347.779 287.495 364.188 285.462 369.626C283.459 374.987 266.053 374.527 261.752 371.325C258.23 368.699 258.814 367.055 257.536 362.17C256.188 357.019 259.508 353.155 259.664 351.075C259.936 347.514 272.301 341.935 272.301 341.935Z" fill="#CC6D3D"/>
<path d="M283.646 355.22C285.22 356.536 287.487 364.195 285.454 369.634C284.106 373.195 266.06 375.33 265.593 369.868C265.351 367.016 264.401 362.209 267.712 358.227C271.764 353.35 282.789 354.503 283.646 355.22Z" fill="#F5894E"/>
<path d="M255.238 360.004C256.29 362.871 258.511 364.827 260.209 364.367C261.916 363.907 262.453 361.188 261.401 358.297C260.349 355.391 258.105 353.428 256.399 353.911C254.693 354.394 254.178 357.129 255.238 360.004Z" fill="#CC6D3D"/>
<path d="M260.427 347.685C260.427 347.685 262.211 355.274 261.549 357.674L259.866 361.313L257.793 350.482L260.427 347.685Z" fill="#1D2538"/>
<path d="M278.831 341.732C278.831 341.732 276.828 344.95 268.367 346.703C264.167 347.576 260.887 349.781 258.76 349.789C253.547 349.805 260.185 338.998 268.756 336.933C277.42 334.837 278.831 341.732 278.831 341.732Z" fill="#1D2538"/>
<path d="M268.787 336.816C261.97 338.748 255.97 346.353 260.17 346.337C261.362 346.329 263.247 346.267 265.515 346.065C269.302 344.709 272.971 341.974 272.971 341.974C273.073 343.844 271.047 344.997 268.741 345.706C270.759 345.441 272.925 345.067 275.091 344.553C278.651 343.704 279.064 343.805 279.08 342.613C279.119 340.174 276.15 334.72 268.787 336.816Z" fill="#3E4C6F"/>
<path d="M279.68 355.375C279.961 356.622 280.678 357.012 281.301 356.848C281.932 356.684 282.236 356.022 281.955 354.775C281.675 353.521 280.935 352.64 280.304 352.812C279.68 352.975 279.4 354.129 279.68 355.375Z" fill="#34283A"/>
<path d="M268.757 356.147C269.053 357.378 269.762 357.767 270.377 357.604C270.993 357.44 271.281 356.786 270.993 355.547C270.697 354.308 269.964 353.435 269.341 353.599C268.718 353.77 268.46 354.908 268.757 356.147Z" fill="#34283A"/>
<path d="M268.484 351.48C268.484 351.48 269.575 350.474 270.891 350.856" stroke="#34283A" stroke-miterlimit="10" stroke-linecap="round" stroke-linejoin="round"/>
<path d="M279.228 350.42C280.553 350.241 281.644 350.942 281.644 350.942" stroke="#34283A" stroke-miterlimit="10" stroke-linecap="round" stroke-linejoin="round"/>
<path d="M580.53 505.8L422.578 477.252C422.578 477.252 407.899 484.046 405.452 484.864C403.006 485.682 398.931 505.255 398.931 505.255L411.982 531.357L559.602 569.692L587.877 558.814L596.845 527.009L580.53 505.8Z" fill="#7A462F"/>
<path d="M580.53 505.8C580.53 505.8 558.511 507.701 553.072 514.768C547.634 521.835 545.46 544.127 545.46 544.127L559.594 569.684L587.87 558.807C587.87 558.807 596.573 538.689 596.838 527.001C597.118 515.322 580.53 505.8 580.53 505.8Z" fill="#CC6D3D"/>
<path d="M577.25 518.306C577.25 518.306 576.759 518.353 575.948 518.446L575.099 531.357L572.816 518.906C568.726 519.615 562.991 521.025 561.004 523.612C557.786 527.796 556.501 540.979 556.501 540.979L564.861 556.095L581.582 549.659C581.582 549.659 586.724 537.761 586.888 530.842C587.059 523.939 577.25 518.306 577.25 518.306Z" fill="#B44C29"/>
<path d="M515.805 538.681L516.194 537.816L509.696 536.811L517.379 535.214L517.597 534.738L496.645 527.757L519.14 531.341L521.228 526.744L416.213 512.322C416.213 512.322 450.153 525.996 448.189 526.658C446.218 527.313 418.792 524.453 418.792 524.453L428.773 535.923L525.739 561.027L548.062 556.064L515.805 538.681Z" fill="#A96443"/>
<path d="M402.624 499.816L401.533 504.164L413.501 505.255L415.675 502.536L436.876 504.709L414.584 496.559L402.624 499.816Z" fill="#A96443"/>
<path d="M410.79 539.429C410.79 539.429 412.122 528.645 421.316 525.264C421.316 525.264 420.241 532.105 410.79 539.429Z" fill="#BB83C3"/>
<path d="M413.151 527.578C413.306 525.606 412.208 523.066 412.784 519.412C412.784 519.412 406.263 526.666 408.32 533.297L408.803 535.829C408.795 535.837 412.995 529.549 413.151 527.578Z" fill="#BB83C3"/>
<path d="M574.063 577.28C574.063 577.28 585.789 559.586 596.409 555.09C596.409 555.09 580.959 554.116 576.159 563.957C576.159 563.957 573.782 557.49 572.754 547.392C572.754 547.392 568.149 569.084 571.079 574.281C572.692 577.125 574.063 577.28 574.063 577.28Z" fill="#34283A"/>
<path d="M567.627 572.473C567.627 572.473 568.359 566.777 565.391 558.433C564.619 556.274 559.485 552.643 559.485 552.643L567.627 572.473Z" fill="#34283A"/>
<path d="M501.492 568.624C501.492 568.624 502.848 557.973 509.097 554.708L504.944 565.905C504.944 565.905 510 559.788 517.823 559.43C517.823 559.43 511.442 561.541 507.336 566.723C506.673 567.564 506.066 568.484 505.559 569.489L501.492 568.624Z" fill="#BB83C3"/>
<path d="M524.212 565.398C524.212 565.398 531.692 553.033 537.216 551.35L530.656 560.653C530.656 560.653 543.38 554.459 549.971 554.771L530.843 566.972C530.843 566.972 534.365 566.364 536.936 567.549C539.499 568.741 522.607 570.751 522.607 570.751L520.052 561.206L524.212 565.398Z" fill="#BB83C3"/>
<path d="M483.072 399.819C483.072 399.819 476.504 396.289 470.972 400.863C465.44 405.437 456.292 421.254 449.919 430.159C445.875 435.816 441.216 446.031 448.82 449.007C465.494 455.529 471.12 423.653 478.093 417.163C485.067 410.665 489.033 403.465 483.072 399.819Z" fill="#7A462F"/>
<path d="M470.972 400.863C465.44 405.437 456.293 421.254 449.919 430.159C445.875 435.816 452.264 433.596 457.196 432.053C462.129 430.51 459.674 432.178 464.084 423.731C467.777 416.649 476.504 396.289 470.972 400.863Z" fill="#A96443"/>
<path d="M470.847 463.671C470.847 463.671 453.207 467.653 442.696 470.559C432.185 473.465 425.477 476.356 428.741 483.968C432.006 491.581 494.043 491.947 498.398 481.07C502.754 470.193 488.246 460.765 470.847 463.671Z" fill="#CE9436"/>
<path d="M529.97 461.084C529.97 461.084 535.861 486.867 526.433 491.214C517.005 495.562 473.87 490.124 474.961 477.08C476.052 464.029 482.207 455.692 503.237 457.142C524.267 458.591 529.97 461.084 529.97 461.084Z" fill="#CE9436"/>
<path d="M522.809 479.979C520.581 480.968 514.963 482.464 510.249 483.781C511.917 482.838 513.584 481.857 515.291 481.07C522.046 477.953 527.251 473.457 527.251 473.457C527.251 473.457 514.948 468.369 509.034 472.102C493.084 482.161 490.272 481.163 494.9 484.701C497.089 486.376 499.17 487.015 501.188 487.015C498.967 488.386 498.772 489.711 505.411 488.682C514.831 487.225 526.066 478.53 522.809 479.979Z" fill="#F7BC4B"/>
<path d="M473.691 399.32C471.517 401.946 472.873 407.93 472.873 417.716C472.873 423.7 473.504 428.227 474.229 439.462C475.351 456.892 474.969 462.978 474.969 462.978C474.969 462.978 483.415 466.866 496.131 468.112C506.774 469.164 530.858 465.65 530.858 465.65C530.858 465.65 531.941 462.494 531.458 454.555C529.962 429.949 530.539 427.253 530.056 418.168C529.331 404.595 530.508 398.416 525.342 396.78C520.176 395.144 508.761 393.811 502.403 393.624C494.627 393.414 477.229 395.946 473.691 399.32Z" fill="#29ABE2"/>
<path d="M473.691 399.32C471.517 401.946 472.873 407.93 472.873 417.716C472.873 423.7 476.301 405.109 487.506 404.003C512.579 401.541 519.155 432.364 519.155 432.364C519.155 432.364 500.043 424.97 488.947 440.686C484.615 446.826 491.565 467.668 496.139 468.12C506.782 469.172 530.866 465.658 530.866 465.658C530.866 465.658 531.949 462.502 531.466 454.563C529.97 429.957 530.547 427.261 530.064 418.176C529.339 404.603 530.516 398.424 525.35 396.788C520.184 395.152 508.769 393.819 502.411 393.632C494.627 393.414 477.229 395.946 473.691 399.32Z" fill="#1689CB"/>
<path d="M474.416 433.455C474.416 433.455 493.988 441.738 522.42 435.356L521.555 427.9C521.555 427.9 505.606 435.341 473.933 427.051L474.416 433.455Z" fill="#3E4C6F"/>
<path d="M473.777 423.887C473.777 423.887 496.077 431.227 520.908 424.37L519.911 416.633C519.911 416.633 497.238 422.173 473.099 416.571L473.777 423.887Z" fill="#3E4C6F"/>
<path d="M509.665 394.427C508.847 399.414 507.156 400.855 506.315 402.039C504.133 405.078 500.222 407.649 494.113 407.47C488.004 407.291 490.661 398.923 490.661 398.923C490.661 398.923 492.656 394.014 497.44 393.469C504.032 392.721 509.751 393.928 509.665 394.427Z" fill="#7A462F"/>
<path d="M497.518 399.289C492.913 399.141 493.264 397.715 493.264 397.715L491.97 385.716C491.783 383.893 493.451 382.381 496.318 382.475L501.258 382.553C504.04 382.638 505.582 384.204 506.042 385.973C506.042 385.973 507.78 393.85 507.78 396.313C507.787 398.806 502.131 399.437 497.518 399.289Z" fill="#7A462F"/>
<path d="M457.313 586.942C457.228 586.973 457.142 587.012 457.064 587.059C455.825 587.737 445.719 593.207 444.551 594.671C443.592 595.871 444.208 600.289 444.543 602.284C444.644 602.899 445.08 603.406 445.673 603.608C448.065 604.434 454.368 606.632 460.477 606.016C468.136 605.245 467.902 602.354 473.606 599.627C477.338 597.843 479.613 596.697 480.735 596.113C481.273 595.832 481.514 595.287 481.537 594.679L481.849 587.994C481.888 587.153 481.428 586.412 480.602 586.249C476.792 585.477 466.087 583.779 457.313 586.942Z" fill="#29ABE2"/>
<path d="M457.181 586.998C457.181 586.998 445.571 593.332 444.325 594.898C443.078 596.457 444.262 601.833 444.262 601.833C444.262 601.833 452.576 605.136 460.235 604.365C467.894 603.594 467.894 601.038 473.598 598.311C478.016 596.199 480.392 594.976 481.233 594.532C481.459 594.415 481.607 594.181 481.623 593.932L481.974 587.574C482.005 586.99 481.607 586.476 481.039 586.351C477.673 585.618 466.344 583.632 457.181 586.998Z" fill="#121721"/>
<path d="M451.524 590.004C451.524 590.004 457.329 587.955 463.017 590.573" stroke="#29ABE2" stroke-width="2" stroke-miterlimit="10" stroke-linecap="round" stroke-linejoin="round"/>
<path d="M455.732 587.503C455.732 587.503 461.537 585.454 467.224 588.072" stroke="#29ABE2" stroke-width="2" stroke-miterlimit="10" stroke-linecap="round" stroke-linejoin="round"/>
<path d="M486.563 572.769C486.563 572.769 490.911 551.023 493.451 540.146C495.991 529.269 493.451 524.196 493.451 524.196L495.991 512.236L499.255 507.164C499.255 507.164 497.806 501.367 491.643 496.653C485.48 491.939 474.969 479.979 470.98 490.131C466.99 500.284 460.827 545.226 460.103 551.755C459.378 558.277 457.929 572.777 457.929 572.777C457.929 572.777 453.581 576.4 453.939 578.94C454.306 581.48 459.012 586.186 459.012 586.186L473.512 584.737C473.512 584.737 480.4 587.636 482.94 586.911C485.472 586.186 486.563 572.769 486.563 572.769Z" fill="#F7BC4B"/>
<path d="M499.248 507.164C499.248 507.164 497.799 501.367 491.635 496.653C485.472 491.939 474.961 479.979 470.972 490.131C469.32 494.331 467.349 505.177 467.349 505.177C467.349 505.177 476.769 517.706 480.782 532.393C479.948 541.868 478.062 556.983 478.062 556.983C480.493 551.373 481.849 546.574 482.504 542.546C482.597 544.353 482.582 546.161 482.402 547.953C481.312 558.83 475.335 574.055 475.335 574.055C475.335 574.055 453.589 576.408 453.947 578.948C454.314 581.488 459.02 586.194 459.02 586.194L473.52 584.745C473.52 584.745 480.408 587.643 482.948 586.919C485.488 586.194 486.571 572.785 486.571 572.785C486.571 572.785 490.919 551.038 493.459 540.161C495.999 529.284 493.459 524.212 493.459 524.212L495.999 512.252L499.248 507.164Z" fill="#CE9436"/>
<path d="M512.657 491.939C512.657 491.939 471.876 475.086 457.017 473.27C442.158 471.455 432.006 470.551 429.108 476.714C426.209 482.877 429.108 486.142 431.281 491.214C433.455 496.287 501.788 508.979 501.788 508.979L512.657 491.939Z" fill="#F7BC4B"/>
<path d="M512.657 491.939C512.657 491.939 471.697 474.54 456.838 472.725C441.979 470.909 432.006 470.551 429.108 476.714C426.209 482.877 429.108 486.142 431.281 491.214C431.671 492.126 431.57 478.522 438.348 478.163C453.932 477.337 484.023 487.95 484.023 487.95L501.788 508.971L512.657 491.939Z" fill="#CE9436"/>
<path d="M464.084 481.787C464.084 481.787 471.657 481.763 474.961 484.327C478.265 486.882 482.573 493.755 482.573 493.755L464.084 481.787Z" fill="#CE9436"/>
<path d="M446.685 476.714C446.685 476.714 464.45 479.613 468.798 482.511C468.798 482.511 461.91 472.725 446.685 476.714Z" fill="#F7BC4B"/>
<path d="M506.587 493.295C506.587 493.295 502.785 496.56 497.432 503.175C495.064 506.104 491.776 508.886 490.856 512.338C489.898 515.929 491.635 522.661 497.074 524.204C503.744 526.152 507.156 521.984 509.821 519.989C512.486 517.994 514.808 507.686 517.137 506.681C519.467 505.676 522.459 500.027 522.459 500.027C522.459 500.027 520.464 493.373 517.137 491.378C513.81 489.383 509.244 489.641 506.587 493.295Z" fill="#121721"/>
<path d="M507.943 499.824C507.943 499.824 498.944 510.132 497.51 513C496.077 515.867 494.324 521.765 500.066 523.487C505.808 525.209 508.356 521.594 511.551 518.322C514.745 515.049 515.86 507.701 517.87 506.837C519.88 505.972 521.812 501.834 522.366 500.37C523.184 498.196 521.82 494.3 518.696 493.162C515.54 492.025 510.242 496.669 507.943 499.824Z" fill="#1689CB"/>
<path d="M526.16 397.419C531.513 398.058 534.645 404.408 535.697 408.592C537.395 415.332 538.354 424.806 539.826 429.271C542.53 437.475 543.379 446.623 535.097 447.916C526.807 449.21 527.079 440.701 525.077 432.162C523.667 426.162 520.558 415.955 521.765 419.422C522.981 422.929 515.283 396.133 526.16 397.419Z" fill="#A96443"/>
<path d="M526.16 397.419C531.513 398.058 535.019 403.979 536.071 408.156C537.77 414.888 538.346 424.806 539.827 429.271C542.53 437.476 543.38 446.623 535.097 447.916C530.711 448.602 527.376 427.432 527.376 427.432C527.376 427.432 526.254 415.09 524.906 409.036C523.192 401.408 526.16 397.419 526.16 397.419Z" fill="#7A462F"/>
<path d="M550.205 442.478C550.704 446.529 547.704 451.259 543.496 453.059C539.289 454.859 529.495 456.51 528.988 452.459C528.49 448.407 526.955 445.298 531.162 443.498C535.37 441.706 549.706 438.434 550.205 442.478Z" fill="#7A462F"/>
<path d="M557.708 428.071C558.418 428.071 558.994 427.524 558.994 426.848C558.994 426.172 558.418 425.625 557.708 425.625C556.998 425.625 556.422 426.172 556.422 426.848C556.422 427.524 556.998 428.071 557.708 428.071Z" fill="#4B3355"/>
<path d="M552.924 429.178C553.634 429.178 554.21 428.63 554.21 427.954C554.21 427.279 553.634 426.731 552.924 426.731C552.214 426.731 551.639 427.279 551.639 427.954C551.639 428.63 552.214 429.178 552.924 429.178Z" fill="#4B3355"/>
<path d="M550.851 432.481L511.176 445.696L513 453.441L552.542 439.455L555.277 440.226L564.121 436.619L565.235 435.91L565.694 433.494L559.96 428.079L551.631 430.611L550.851 432.481Z" fill="#4B3355"/>
<path d="M550.205 430.954L510.53 444.161L512.353 451.906L551.896 437.92L554.623 438.691L563.474 435.084L565.695 433.447L562.407 427.175L559.306 426.544L550.984 429.076L550.205 430.954Z" fill="#665070"/>
<path d="M518.953 450.106C518.953 450.106 521.353 463.757 515.602 467.341C510.102 470.769 507.063 470.13 507.063 470.13C504.99 471.564 501.32 477.47 495.259 479.862C489.197 482.254 478.187 479.223 472.125 473.481C466.063 467.738 518.953 450.106 518.953 450.106Z" fill="#4B3355"/>
<path d="M518.953 450.106C518.953 450.106 518.236 437.421 508.902 434.312C499.567 431.203 495.741 438.621 493.108 439.338C490.474 440.055 484.257 437.904 479.231 438.621C474.205 439.338 466.546 443.171 466.788 457.531C467.029 471.891 473.964 478.592 485.215 476.917C496.466 475.242 500.533 465.666 503.167 462.798C503.167 462.798 507.717 465.19 513.693 462.323C519.35 459.596 518.953 450.106 518.953 450.106Z" fill="#856792"/>
<path d="M499.014 456.565C502.495 456.565 505.318 454.102 505.318 451.064C505.318 448.026 502.495 445.563 499.014 445.563C495.533 445.563 492.711 448.026 492.711 451.064C492.711 454.102 495.533 456.565 499.014 456.565Z" fill="#4B3355"/>
<path d="M499.014 456.573C502.143 456.573 504.679 454.358 504.679 451.625C504.679 448.893 502.143 446.677 499.014 446.677C495.886 446.677 493.35 448.893 493.35 451.625C493.35 454.358 495.886 456.573 499.014 456.573Z" fill="#34283A"/>
<path d="M478.133 468.65L482.48 467.201L476.317 450.16L473.06 451.976L478.133 468.65Z" fill="#BB83C3"/>
<path d="M479.714 455.35C479.714 455.35 549.067 432.185 550.852 431.523C552.636 430.853 553.633 430.744 553.08 428.85" stroke="#BB83C3" stroke-width="0.5" stroke-miterlimit="10" stroke-linecap="round" stroke-linejoin="round"/>
<path d="M480.158 457.134C480.158 457.134 551.615 432.918 555.075 432.053C558.534 431.188 558.534 429.63 557.755 426.957" stroke="#BB83C3" stroke-width="0.5" stroke-miterlimit="10" stroke-linecap="round" stroke-linejoin="round"/>
<path d="M481.202 458.614C481.202 458.614 556.298 433.377 557.529 433.058C558.76 432.738 559.765 436.416 559.765 436.416" stroke="#BB83C3" stroke-width="0.5" stroke-miterlimit="10" stroke-linecap="round" stroke-linejoin="round"/>
<path d="M481.646 460.251C481.646 460.251 552.41 436.533 553.524 436.089C554.638 435.645 555.861 436.533 556.532 438.317" stroke="#BB83C3" stroke-width="0.5" stroke-miterlimit="10" stroke-linecap="round" stroke-linejoin="round"/>
<path d="M558.536 439.39C558.546 438.715 557.979 438.158 557.269 438.147C556.56 438.136 555.975 438.674 555.965 439.35C555.954 440.025 556.521 440.582 557.231 440.593C557.941 440.604 558.525 440.066 558.536 439.39Z" fill="#665070"/>
<path d="M561.564 437.777C561.575 437.102 561.008 436.545 560.298 436.534C559.588 436.522 559.004 437.061 558.993 437.737C558.982 438.412 559.549 438.969 560.259 438.98C560.969 438.991 561.553 438.453 561.564 437.777Z" fill="#665070"/>
<path d="M539.164 440.179L537.925 441.262L538.237 445.594L541.486 448.688C541.486 448.688 544.112 452.241 545.662 452.093C547.205 451.937 547.361 451.01 548.911 451.01C550.454 451.01 550.922 451.477 552.316 450.238C553.711 448.999 555.098 448.844 555.869 448.695C556.641 448.54 556.641 446.529 557.412 445.143C558.183 443.748 555.558 439.883 554.475 437.873C553.392 435.863 551.07 436.79 551.07 437.561C551.07 438.333 552.153 440.655 552.153 440.655L551.685 444.059L550.291 440.351L547.041 436.019C547.041 436.019 545.499 436.019 544.875 436.486C544.26 436.954 544.564 438.652 544.564 438.652L541.938 437.569L539.616 438.964L540.084 440.506L539.164 440.179Z" fill="#7A462F"/>
<path d="M478.584 448.205C476.325 447.161 472.538 446.405 468.502 442.696C465.611 440.039 457.882 435.317 452.311 435.504C446.748 435.684 442.424 438.902 445.268 446.849C448.111 454.796 466.211 456.776 470.98 458.217C475.756 459.651 478.265 461.489 481.943 457.321C485.62 453.152 480.844 449.249 478.584 448.205Z" fill="#7A462F"/>
<path d="M453.192 446.233C450.301 443.577 442.424 438.894 445.268 446.841C448.112 454.789 466.212 456.768 470.98 458.209C475.756 459.643 457.228 449.95 453.192 446.233Z" fill="#A96443"/>
<path d="M478.39 447.503C478.39 447.503 482.161 445.384 484.28 445.618C486.399 445.851 488.526 449.155 489.703 449.623C490.88 450.098 490.178 453.628 490.178 453.628L488.76 454.337C488.76 454.337 491.355 456.931 492.531 457.399C493.708 457.874 494.183 458.575 494.183 459.993C494.183 461.411 493.474 462.588 493.474 462.588C493.474 462.588 494.417 462.588 494.417 464.006C494.417 465.424 493.24 466.601 492.056 466.601C490.88 466.601 488.519 465.183 488.519 465.183L485.215 466.601C485.215 466.601 481.678 467.777 480.267 466.834C478.849 465.892 475.787 458.349 475.787 458.349C475.787 458.349 476.738 447.503 478.39 447.503Z" fill="#7A462F"/>
<path d="M509.096 372.096C511.987 386.074 510.249 391.108 501.359 393.445C494.635 395.214 487.124 388.217 484.646 378.072C482.168 367.936 485.636 358.375 492.383 356.723C499.131 355.072 506.494 359.513 509.096 372.096Z" fill="#273252"/>
<path d="M504.562 369.876C502.279 360.799 500.042 355.835 490.124 357.479C484.95 358.336 480.057 360.035 477.501 362.333C475.187 364.414 474.12 367.024 474.65 373.211C475.047 377.878 476.403 388.139 479.699 395.308C481.81 399.897 487.864 398.315 493.178 397.092C500.907 395.315 508.224 390.477 507.452 383.636C506.4 374.371 505.497 373.6 504.562 369.876Z" fill="#A96443"/>
<path d="M507.172 380.386C506.587 372.416 502.731 364.655 494.269 366.058C489.851 366.79 481.896 371.309 482.737 376.545C483.649 382.218 484.374 388.248 486.454 392.845C488.238 396.796 491.705 397.754 496.653 395.993C502.279 393.991 504.608 393.78 506.315 389.62C508.013 385.467 507.468 384.415 507.172 380.386Z" fill="#7A462F"/>
<path d="M475.374 362.707C474.689 363.416 474.182 367.989 474.4 371.379C474.447 372.096 475.834 367.802 475.834 367.802C475.834 367.802 476.59 368.73 481.491 368.239C486.392 367.748 489.711 365.94 489.711 365.94C489.711 365.94 493.1 371.644 494.955 373.958C496.801 376.272 499.365 377.293 499.365 377.293L505.925 373.864C504.484 366.805 501.172 357.097 496.342 356.637C487.514 355.803 477.914 360.104 475.374 362.707Z" fill="#273252"/>
<path d="M507.18 377.083C507.203 381.049 505.271 384.313 502.879 384.485C502.879 384.485 500.876 375.969 500.44 374.356C500.167 373.343 499.972 370.063 502.52 369.876C505.076 369.689 507.164 372.977 507.18 377.083Z" fill="#7A462F"/>
<path d="M506.541 380.075C506.634 381.01 505.964 381.875 505.053 382.023C504.141 382.163 503.307 381.532 503.206 380.605C503.097 379.662 503.767 378.781 504.694 378.633C505.614 378.478 506.447 379.132 506.541 380.075Z" fill="#F3E7D9"/>
<path d="M487.381 380.044C487.615 381.454 487.241 382.677 486.547 382.794C485.854 382.903 485.09 381.867 484.841 380.457C484.584 379.031 484.95 377.769 485.659 377.652C486.376 377.535 487.147 378.618 487.381 380.044Z" fill="#1D2538"/>
<path d="M477.946 380.784C478.148 382.07 478.008 383.16 477.634 383.223C477.26 383.285 476.785 382.311 476.574 381.025C476.356 379.724 476.496 378.602 476.878 378.532C477.26 378.47 477.735 379.483 477.946 380.784Z" fill="#1D2538"/>
<path d="M483.649 374.021L487.358 374.255" stroke="#1D2538" stroke-miterlimit="10" stroke-linecap="round" stroke-linejoin="round"/>
<path d="M475.429 375.727L476.831 375.267" stroke="#1D2538" stroke-miterlimit="10" stroke-linecap="round" stroke-linejoin="round"/>
<path d="M166.585 454.609C166.585 454.609 166.904 450.231 167.621 446.997C168.307 443.904 169.655 445.688 170.816 448.376C172.031 451.189 172.623 455.724 172.842 456.791C173.068 457.859 167.504 458.318 166.585 454.609Z" fill="#1D2538"/>
<path d="M161.996 492.103C158.63 491.503 150.324 484.677 150.542 478.771C150.76 472.865 150.433 464.232 151.563 460.757C151.563 460.757 150.667 454.773 150.597 451.477C150.534 448.181 151.345 447.877 152.763 449.194C154.181 450.511 156.697 455.459 156.697 455.459C156.697 455.459 163.554 451.002 170.068 452.412C176.582 453.822 179.215 457.524 180.399 460.897L180.633 461.115C180.633 461.115 187.529 461.435 190.871 462.097C194.214 462.759 195.468 464.162 194.72 467.762C193.972 471.361 194.066 473.068 192.414 474.665C190.755 476.262 182.893 480.587 178.709 482.067C178.709 482.067 178.413 490.186 177.361 492.547C176.309 494.908 165.362 492.695 161.996 492.103Z" fill="#273252"/>
<path d="M159.152 482.706C159.152 482.706 150.332 484.669 150.542 478.763C150.76 472.857 150.433 464.224 151.563 460.749C151.563 460.749 150.667 454.765 150.597 451.469C150.534 448.173 151.345 447.87 152.763 449.186C154.181 450.503 156.697 455.451 156.697 455.451C156.697 455.451 163.554 450.994 170.068 452.404C170.068 452.404 163.149 453.955 160.952 457.087C158.762 460.219 157.5 471.502 157.5 471.502C157.5 471.502 166.959 479.278 166.624 480.018C165.588 482.379 159.152 482.706 159.152 482.706Z" fill="#1D2538"/>
<path d="M168.089 454.399C168.089 454.399 168.151 450.168 168.245 447.355C168.354 444.184 170.161 445.633 171.33 448.322C172.546 451.134 173.488 454.095 173.714 455.163C173.933 456.23 168.4 457.064 168.089 454.399Z" fill="#273252"/>
<path d="M170.807 463.335C171.379 462.921 171.244 461.76 170.507 460.743C169.77 459.725 168.709 459.236 168.137 459.65C167.566 460.064 167.7 461.225 168.438 462.242C169.175 463.26 170.236 463.749 170.807 463.335Z" fill="#121721"/>
<path d="M179.358 461.056C179.714 460.847 179.561 459.928 179.018 459.005C178.474 458.082 177.744 457.503 177.388 457.713C177.032 457.923 177.185 458.841 177.729 459.764C178.272 460.688 179.002 461.266 179.358 461.056Z" fill="#121721"/>
<path d="M194.783 464.645C195.375 466.437 194.604 467.466 194.346 468.595C193.988 470.138 189.586 468.26 188.994 466.468C188.401 464.676 187.872 462.097 190.147 462.066C191.728 462.043 194.198 462.853 194.783 464.645Z" fill="#121721"/>
<path d="M169.032 481.436C169.032 481.436 178.335 484.101 178.467 482.013C182.581 480.602 188.963 477.049 188.963 477.049L177.532 479.301L169.032 481.436Z" fill="#1D2538"/>
<path d="M129.053 513.623C128.484 512.657 124.822 507.974 124.144 505.629C123.466 503.283 122.087 497.689 124.783 494.939C124.783 494.939 121.245 494.705 119.087 502.091C116.929 509.478 123.754 516.997 124.331 517.628C126.926 520.456 130.681 516.381 129.053 513.623Z" fill="#1D2538"/>
<path d="M187.116 536.273C186.158 534.629 183.415 533.219 183.415 533.219C183.111 532.868 182.16 532.222 182.02 531.855C180.968 529.043 178.109 521.352 177.782 520.098C177.104 517.488 176.714 509.392 175.304 503.385C173.886 497.377 165.642 503.954 166.375 509.875C166.897 514.098 173.161 530.562 173.792 532.167L177.119 537.169C178.179 538.167 180.641 538.533 183.033 538.182C185.41 537.816 188.051 537.886 187.116 536.273Z" fill="#1D2538"/>
<path d="M167.66 481.81C167.66 481.81 156.83 476.909 149.241 482.285C142.447 487.093 140.592 501.156 132.31 502.917C127.105 504.024 127.339 522.708 129.131 526.074C132.411 532.362 139.517 531.692 142.486 531.209C151.243 529.783 172.086 508.146 175.343 505.73C178.265 503.564 181.257 493.778 175.896 487.841C173.847 485.573 171.525 483.142 167.66 481.81Z" fill="#273252"/>
<path d="M165.432 482.963C159.152 479.714 156.838 476.901 149.241 482.277C142.447 487.085 138.372 501.694 130.12 503.595C120.778 505.746 123.256 523.098 129.271 527.508C145.01 539.047 154.266 521.235 156.931 515.462C156.931 515.462 147.94 511.878 147.605 508.13C147.27 504.382 155.349 497.183 155.349 497.183C158.856 491.838 167.652 484.116 165.432 482.963Z" fill="#1D2538"/>
<path d="M171.276 538.798C170.972 537.2 166.273 534.115 166.219 533.718C165.315 527.032 165.736 520.456 165.705 518.898C165.634 515.703 168.089 509.774 167.972 502.863C167.863 496.201 157.017 501.624 156.986 509.338C156.97 513.787 157.741 528.91 157.983 533.032C158.014 533.616 158.17 534.177 158.419 534.707L161.668 539.133C162.214 540.481 164.66 541.244 167.403 540.87C170.146 540.481 171.688 540.972 171.276 538.798Z" fill="#273252"/>
<path d="M150.269 479.098C150.269 479.098 148.913 481.264 148.796 482.955C148.796 482.955 154.78 485.698 165.104 488.331C170.636 489.742 178.888 490.412 178.888 490.412L179.184 485.947C179.184 485.955 162.401 484.919 150.269 479.098Z" fill="#992C29"/>
<path d="M179.137 486.01C179.137 486.01 182.994 491.09 183.111 494.012L176.48 497.674C176.48 497.674 177.602 488.9 179.137 486.01Z" fill="#C94039"/>
<path d="M179.137 486.01C177.454 488.503 176.48 497.674 176.48 497.674C176.48 497.674 179.589 494.004 179.745 492.796C179.901 491.596 179.137 486.01 179.137 486.01Z" fill="#992C29"/>
<path d="M178.584 489.033C178.584 489.033 174.4 494.479 172.242 495.484L170.909 491.838C170.909 491.838 174.213 489.259 178.584 489.033Z" fill="#992C29"/>
<path d="M32.4833 628.144L152.396 549.363C152.396 549.363 156.471 529.573 150.651 516.763C144.831 503.954 117.466 503.377 117.466 503.377L-24.5669 570.323L32.4833 628.144Z" fill="#7A462F"/>
<path d="M44.4201 620.968L152.396 549.363L119.804 554.607L129.115 540.052L125.04 533.648L52.2741 572.068L44.4201 589.529L62.7538 600.882L44.4201 620.968Z" fill="#A96443"/>
<path d="M32.4834 628.144C32.4834 628.144 1.43386 630.474 -9.03806 628.144C-19.5178 625.815 -30.3793 601.754 -30.3793 601.754C-30.3793 601.754 -38.5293 581.963 -24.559 570.323C-10.5886 558.682 10.9474 569.738 18.5209 573.813C26.0787 577.888 42.9632 594.383 32.4834 628.144Z" fill="#CC6D3D"/>
<path d="M40.8906 585.797L37.1429 581.963L72.5947 565.539L53.0456 578.886L64.4915 575.785L63.5331 582.221L72.1194 580.795L44.7007 596.292L40.8906 585.797Z" fill="#7A462F"/>
<path d="M149.638 553.734C149.638 553.734 149.638 537.972 143.966 531.03L145.859 548.054C145.859 548.054 136.4 536.702 133.245 533.546C133.245 533.546 140.81 544.899 143.966 553.727L135.138 546.792L147.753 561.3L149.638 553.734Z" fill="#856792"/>
<path d="M13.9004 579.992C13.9004 579.992 -4.18388 570.595 -15.061 575.761L-8.26669 593.604L-22.9539 585.446C-25.1122 592.887 -21.9799 600.5 -21.9799 600.5C-21.9799 600.5 -14.0091 619.449 -6.31878 621.163C1.37154 622.869 24.1542 619.87 24.1542 619.87C31.8367 595.085 13.9004 579.992 13.9004 579.992Z" fill="#B44C29"/>
<path d="M132.146 511.597L117.365 517.683L120.801 518.329L132.645 515.244L130.525 520.176L145.197 514.659L139.229 511.753L132.146 511.597Z" fill="#A96443"/>
<path d="M62.6213 545.218C66.6963 551.786 99.0393 535.665 103.8 528.396C107.953 522.054 71.7375 527.079 64.1095 530.235C56.4815 533.39 58.7956 539.047 62.6213 545.218Z" fill="#C94039"/>
<path d="M22.6192 436.735C22.6815 433.938 15.4899 422.89 10.6279 425.079C5.75814 427.276 13.4095 436.229 13.4095 436.229C13.4095 436.229 6.45938 435.723 2.98432 438.083C-0.490737 440.444 0.553332 447.371 6.28796 446.693C12.0226 446.023 22.4478 444.839 22.6192 436.735Z" fill="#273252"/>
<path d="M12.1087 445.119C12.1087 445.119 6.49871 446.522 5.79747 452.303C5.16635 457.523 7.9012 459.487 7.9012 459.487C7.9012 459.487 0.538133 462.463 2.8912 470.411C5.64943 479.753 23.5468 480.478 27.6374 474.338C27.6374 474.338 44.6153 476.886 54.682 465.627C64.7488 454.36 54.682 442.688 48.1994 443.195C48.1994 443.195 41.5376 422.165 22.2689 431.281C12.3424 435.972 12.1087 445.119 12.1087 445.119Z" fill="#273252"/>
<path d="M17.3053 444.551C17.3053 444.551 12.381 447.395 11.7811 452.989C11.2435 458.038 13.5809 459.931 13.5809 459.931C13.5809 459.931 7.29311 462.814 9.30335 470.489C11.6642 479.519 26.9435 480.228 30.442 474.283C30.442 474.283 44.9422 476.746 53.5441 465.861C62.1461 454.976 53.5441 443.678 48.0043 444.177C48.0043 444.177 39.9711 422.913 23.5075 431.726C15.0224 436.268 17.3053 444.551 17.3053 444.551Z" fill="#3E4C6F"/>
<path d="M23.4295 436.12C23.1179 434.032 16.3626 426.731 13.02 428.983C9.67736 431.235 16.5106 436.915 16.5106 436.915C16.5106 436.915 11.2746 437.429 8.99169 439.626C6.70874 441.831 8.36837 446.849 12.5447 445.61C16.7366 444.387 24.3412 442.174 23.4295 436.12Z" fill="#3E4C6F"/>
<path d="M90.3907 510.787C90.3907 510.787 107.478 512.626 110.104 513.943C112.729 515.259 114.95 523.254 108.117 527.461C101.283 531.668 95.915 532.603 84.0873 528.661C72.2519 524.711 72.7817 509.47 90.3907 510.787Z" fill="#1D2538"/>
<path d="M57.0116 543.372C57.0116 543.372 88.03 543.372 93.5464 543.372C99.0629 543.372 103.005 523.924 89.6039 523.137C76.2023 522.35 57.0116 517.355 52.282 522.35C47.5525 527.344 42.0283 541.533 57.0116 543.372Z" fill="#273252"/>
<path d="M57.0116 543.372C57.0116 543.372 88.03 543.372 93.5464 543.372C99.0629 543.372 103.005 523.924 89.6039 523.137C76.2023 522.35 57.0116 517.355 52.282 522.35C47.5525 527.344 42.0283 541.533 57.0116 543.372Z" fill="#1D2538"/>
<path d="M90.593 590.643C90.593 590.643 112.207 534.473 108.74 528.411C105.272 522.35 85.022 539.631 86.3077 548.662C87.5855 557.692 81.2665 588.22 81.2665 588.22L90.593 590.643Z" fill="#CC6D3D"/>
<path d="M105.327 547.914C109.986 533.18 113.586 519.7 112.121 517.137C108.654 511.075 99.3509 511.667 94.6993 518.75C90.0477 525.832 85.0221 539.624 86.2999 548.662L105.327 547.914Z" fill="#1D2538"/>
<path d="M106.231 546.854C110.049 534.769 113.01 523.713 111.81 521.617C108.966 516.646 100.738 516.997 96.92 522.809C93.1021 528.622 89.5803 540.068 90.6321 547.47L106.231 546.854Z" fill="#273252"/>
<path d="M83.1675 586.155C82.0299 586.903 80.5884 588.461 77.5653 590.573C74.9785 592.381 79.4197 596.619 80.1131 599.557C79.1002 597.741 91.3954 611.088 94.6679 612.764C102.078 616.55 92.494 600.164 95.0185 604.902C95.0185 604.902 89.5098 595.349 90.5149 591.243C91.5278 587.137 84.3128 585.407 83.1675 586.155Z" fill="#CC6D3D"/>
<path d="M79.2484 588.726C79.7315 588.469 80.3549 588.36 80.1601 588.797C79.9653 589.233 79.6146 591.142 80.2068 592.155C80.799 593.168 87.6478 604.528 91.8709 605.782C94.4499 606.546 94.0291 604.193 93.1954 601.957C92.6422 600.476 91.7228 597.843 91.7228 597.843C91.7228 597.843 94.2005 603.336 95.5719 605.735C96.9432 608.135 98.8366 614.657 98.2678 616.402C97.6912 618.148 83.2533 608.556 81.6015 606.18C79.9497 603.803 77.8771 600.102 77.0122 598.341C76.3266 596.954 74.8618 596.23 74.7293 595.513C74.441 593.908 77.7992 589.513 79.2484 588.726Z" fill="#992C29"/>
<path d="M86.908 534.232C86.908 534.232 87.6794 528.754 93.8971 528.31C101.026 527.811 113.399 557.03 114.857 559.695C116.314 562.36 132.582 591.017 133.86 595.287C135.037 599.19 128.617 605.315 123.03 598.263C117.973 591.874 106.714 576.829 101.291 571.53C95.8605 566.232 80.9318 546.566 86.908 534.232Z" fill="#CC6D3D"/>
<path d="M109.153 553.485C113.142 553.204 119.493 568.663 120.848 570.595C122.212 572.52 130.331 587.635 131.055 590.02C131.71 592.209 123.583 585.166 121.55 582.548C119.516 579.93 116.602 575.559 113.984 571.78C111.366 568.001 105.678 553.726 109.153 553.485Z" fill="#F5894E"/>
<path d="M81.4928 530.928C81.4928 530.928 85.2717 523.035 92.401 523.581C99.5303 524.126 112.355 555.433 114.786 558.869L101.283 571.522C95.8605 566.232 75.5166 543.262 81.4928 530.928Z" fill="#1D2538"/>
<path d="M86.5261 533.001C86.5261 533.001 89.4713 526.861 95.019 527.282C100.567 527.703 110.555 552.075 112.449 554.755L101.369 552.659C97.1383 548.537 86.5261 533.001 86.5261 533.001Z" fill="#273252"/>
<path d="M122.967 596.432C123.334 597.749 124.37 599.596 125.445 603.117C126.372 606.141 131.772 603.211 134.779 603.453C132.738 603.858 149.225 596.261 151.82 593.658C157.702 587.776 139.166 591.859 144.449 590.908C144.449 590.908 133.665 593.214 130.066 590.994C126.466 588.781 122.601 595.116 122.967 596.432Z" fill="#CC6D3D"/>
<path d="M123.7 600.133C123.599 599.596 123.692 598.964 124.051 599.284C124.401 599.603 126.544 599.471 127.689 599.222C128.835 598.972 142.891 594.695 145.158 592.544C147.425 590.394 144.34 591.204 141.909 591.492C140.335 591.679 136.556 591.952 136.556 591.952C136.556 591.952 142.408 591.204 145.119 590.643C147.831 590.082 153.791 589.77 155.949 590.386C157.718 590.892 156.666 596.549 142.899 602.33C140.234 603.452 135.247 603.585 132.388 606.031C132.006 606.359 132.076 607.013 131.702 607.333C130.946 607.987 129.801 608.213 129.318 608.151C127.674 607.94 123.996 601.754 123.7 600.133Z" fill="#992C29"/>
<path d="M96.2267 476.675C96.2267 476.675 98.4863 477.4 98.2603 478.202C98.0421 479.005 96.0007 478.639 96.0007 478.639C96.0007 478.639 96.289 479.878 95.4164 480.096C94.5437 480.314 93.8191 480.026 93.8191 480.026C93.8191 480.026 94.5437 480.828 93.8191 481.046C93.0945 481.265 89.596 481.631 89.7441 481.265C89.8921 480.891 96.2267 476.675 96.2267 476.675Z" fill="#F5894E"/>
<path d="M86.6196 481.763C86.6196 481.763 89.5337 476.114 90.4998 475.14C91.4738 474.166 95.354 475.429 95.354 475.429L86.6196 481.763Z" fill="#F5894E"/>
<path d="M55.7648 484.171C55.7648 484.171 65.0524 496.614 66.6029 499.528C68.1535 502.442 64.881 508.722 59.832 505.418C54.7909 502.123 47.0226 492.905 46.8278 488.83C46.6486 484.747 51.8846 481.841 55.7648 484.171Z" fill="#CC6D3D"/>
<path d="M79.8255 486.399C76.2647 488.293 63.5254 492.321 58.8661 496.006C54.2067 499.692 55.5702 503.572 60.2218 506.096C64.8734 508.621 75.7193 499.715 81.7344 496.03C87.7496 492.344 89.23 489.119 87.6794 486.984C86.1367 484.849 84.3914 483.976 79.8255 486.399Z" fill="#CC6D3D"/>
<path d="M80.7914 492.414L67.5067 505.029C67.5067 505.029 74.8776 500.759 82.8328 495.282C89.7907 490.49 80.7914 492.414 80.7914 492.414Z" fill="#F5894E"/>
<path d="M85.7781 491.729C85.7781 491.729 90.009 492.196 91.7933 490.225C93.5775 488.254 96.8812 486.197 97.8941 485.55C99.2732 484.677 99.7875 483.072 97.0214 483.29C95.1203 483.438 94.232 484.389 92.4477 484.763C90.6635 485.137 90.2895 482.885 90.2895 482.885C90.2895 482.885 92.4478 480.439 92.923 479.597C93.3983 478.756 96.2111 477.626 97.9019 476.683C99.5927 475.74 99.9667 474.992 99.3122 474.049C98.6577 473.107 97.6759 473.901 95.6501 474.33C94.084 474.665 90.944 475.499 89.6272 476.808C88.3104 478.124 86.7131 479.402 83.129 484.451C80.7993 487.731 82.0226 491.916 85.7781 491.729Z" fill="#CC6D3D"/>
<path d="M39.8855 477.01C41.6386 472.452 43.5632 471.4 47.942 473.153C52.3209 474.907 57.4011 488.222 57.4011 488.222L44.6072 492.43C44.615 492.43 39.3791 478.327 39.8855 477.01Z" fill="#EE5D4F"/>
<path d="M20.6949 475.078C22.113 472.242 26.6165 473.114 33.6601 472.974C42.4179 472.803 45.0515 473.847 54.2456 478.054C60.8061 481.054 60.4633 495.928 61.1645 500.658C61.8658 505.387 61.8658 524.664 49.2512 527.469C36.6365 530.274 32.9589 514.503 25.4244 502.59C17.8899 490.677 18.4197 479.636 20.6949 475.078Z" fill="#F7BC4B"/>
<path d="M20.6949 475.078C22.113 472.242 26.6165 473.114 33.6601 472.974C38.039 472.888 37.7663 483.103 35.6782 487.537C33.216 492.78 31.4473 497.674 36.1379 502.489C44.1554 510.709 35.6236 510.14 49.2512 527.469C36.6365 530.274 32.9589 514.503 25.4244 502.59C17.8899 490.677 18.4197 479.636 20.6949 475.078Z" fill="#CE9436"/>
<path d="M33.6758 519.21C33.8472 529.37 33.4421 533.125 37.8677 539.164C42.2934 545.21 60.1206 544.774 63.0969 545.997C66.0733 547.22 65.9019 546.698 65.9019 546.698C65.9019 546.698 66.2993 542.405 67.0006 538.377C67.7018 534.349 67.7875 529.705 73.5689 524.71C79.3503 519.716 84.9992 524.329 88.2872 521.82C98.2761 514.2 102.484 512.096 102.484 512.096C102.484 512.096 92.2298 510.779 80.145 509.47C69.1432 508.278 69.8912 508.247 57.8064 508.418C53.3652 508.481 33.4966 509.049 33.6758 519.21Z" fill="#F7BC4B"/>
<path d="M32.7017 518.539C32.8732 528.7 33.4497 533.125 37.8676 539.172C42.2932 545.218 60.1204 544.782 63.0968 546.005C66.0732 547.228 65.9018 546.706 65.9018 546.706C65.9018 546.706 66.2992 542.413 67.0004 538.385C67.7017 534.356 67.7874 529.713 73.5687 524.718C79.3501 519.724 84.999 524.336 88.2871 521.828C88.2871 521.828 79.2488 515.025 70.7092 515.805C62.1696 516.584 50.1627 518.508 48.0045 517.939C45.8462 517.371 43.0724 514.519 41.0699 512.205C39.0675 509.891 32.5927 512.618 32.7017 518.539Z" fill="#CE9436"/>
<path d="M57.4556 494.082C56.6531 491.674 51.0275 490.599 48.3472 492.204C45.6669 493.809 42.9866 497.565 42.4567 500.237C41.9269 502.91 45.9396 498.094 51.5651 497.292C55.8349 496.684 58.2581 496.497 57.4556 494.082Z" fill="#CE9436"/>
<path d="M28.0578 497.159C28.0578 497.159 26.0865 512.626 25.0347 515.072C23.9828 517.527 23.2815 522.957 18.2014 522.786C13.1213 522.615 12.5914 518.758 12.7707 514.901C12.9499 511.044 12.9888 496.458 13.6901 495.056C14.3913 493.653 27.7072 489.975 28.0578 497.159Z" fill="#CC6D3D"/>
<path d="M28.0577 497.159C28.0577 497.159 26.0865 512.626 25.0346 515.072C23.9827 517.527 21.8323 519.062 22.0115 515.213C22.1829 511.356 22.2296 496.77 22.9309 495.367C23.6243 493.965 27.7071 489.976 28.0577 497.159Z" fill="#F5894E"/>
<path d="M28.7591 490.677C28.7591 490.677 31.2134 473.504 23.6789 473.683C16.1444 473.855 14.5627 481.942 13.8693 490.326C13.5187 494.534 13.168 498.383 13.168 498.383C13.168 498.383 16.4951 497.16 20.0013 496.63C23.8192 496.061 28.0578 497.152 28.0578 497.152L28.7591 490.677Z" fill="#C94039"/>
<path d="M28.7592 490.677C28.7592 490.677 31.2135 473.504 23.679 473.683L25.5023 481.265L23.9518 493.49L20.0014 496.645C23.8193 496.077 28.0579 497.167 28.0579 497.167L28.7592 490.677Z" fill="#EE5D4F"/>
<path d="M23.9361 523.183C24.6841 517.441 26.6943 510.086 19.1598 508.512C11.6253 506.938 12.7239 518.103 12.1941 520.908C11.6721 523.713 10.7916 546.138 10.6202 549.644C10.4488 553.15 17.1028 556.306 19.5572 552.098C22.0115 547.891 23.1257 529.417 23.9361 523.183Z" fill="#CC6D3D"/>
<path d="M23.9362 523.183C24.544 518.508 25.9932 512.75 22.4246 509.93C21.6143 509.291 22.2221 511.021 21.4896 516.553C21.139 519.225 19.9781 524.516 19.456 527.321C18.934 530.126 18.2951 535.385 18.1237 538.891C17.9522 542.397 20.9988 547.906 21.5442 544.478C22.6973 537.255 23.3908 527.406 23.9362 523.183Z" fill="#F5894E"/>
<path d="M-2.40731 559.056C-2.40731 559.056 -4.51884 559.586 -5.44605 558.526C-6.37325 557.466 -0.29579 553.508 0.896327 552.316C2.08844 551.124 7.23871 549.41 10.0125 549.675C12.7863 549.94 -2.40731 559.056 -2.40731 559.056Z" fill="#A96443"/>
<path d="M19.2533 548.483C19.2533 548.483 20.9674 550.992 20.7025 553.501C20.4376 556.009 20.835 557.069 17.2664 557.467C13.6979 557.864 10.5267 560.373 10.5267 560.373C10.5267 560.373 9.73194 561.035 8.54761 561.035C7.36329 561.035 6.83346 560.373 6.96592 559.711C7.09837 559.048 11.9837 555.09 11.9837 555.09C11.9837 555.09 7.62821 555.355 6.83346 555.355C6.03872 555.355 2.34548 557.334 2.34548 557.334C2.34548 557.334 -0.163406 559.975 -1.09061 560.638C-2.01781 561.3 -2.67231 561.565 -4.12934 560.505C-5.57858 559.446 -2.80476 557.202 -2.15027 556.017C-1.48798 554.825 2.73506 551.794 2.73506 551.794C2.73506 551.794 14.368 547.563 19.2533 548.483Z" fill="#CC6D3D"/>
<path d="M42.708 479.642C43.6873 477.828 42.44 475.256 39.922 473.896C37.4041 472.537 34.569 472.905 33.5897 474.718C32.6105 476.532 33.8578 479.104 36.3757 480.464C38.8936 481.824 41.7287 481.455 42.708 479.642Z" fill="#F5894E"/>
<path d="M26.6553 462.292L33.6366 477.704L43.1268 478.709L39.4414 463.126L26.6553 462.292Z" fill="#F5894E"/>
<path d="M26.6553 462.292L33.6366 477.704L40.6257 468.993L39.4414 463.126L26.6553 462.292Z" fill="#CC6D3D"/>
<path d="M39.3942 433.556C39.3942 433.556 41.9265 436.385 44.451 437.538C46.3599 438.41 47.8637 438.52 47.8637 438.52L47.4585 437.787L48.3624 437.031C48.3624 437.031 44.8484 436.813 40.1033 433.081L39.3942 433.556Z" fill="#EE5D4F"/>
<path d="M39.1371 433.221C39.1371 433.221 40.5474 436.751 42.5265 438.699C44.0225 440.171 45.4016 440.795 45.4016 440.795L45.2692 439.969L46.3756 439.564C46.3756 439.564 43.1498 438.153 39.9631 433.026L39.1371 433.221Z" fill="#EE5D4F"/>
<path d="M40.7501 435.052C41.6384 434.858 42.2851 430.066 40.158 430.05C38.1555 430.042 35.9038 430.385 36.3401 431.881C36.7764 433.377 39.8697 435.239 40.7501 435.052Z" fill="#EE5D4F"/>
<path d="M41.4046 432.31C41.4046 432.31 40.9917 430.284 40.3605 430.354C39.7294 430.424 40.3294 431.273 40.5553 432.614C40.7735 433.946 41.5605 433.167 41.4046 432.31Z" fill="#F7BC4B"/>
<path d="M39.971 434.094C39.971 434.094 39.7996 433.159 41.132 432.193C42.4644 431.227 43.4851 430.689 44.3733 431.195C45.2693 431.702 45.6667 434.063 45.2226 435.278C44.7785 436.494 41.693 435.715 40.906 435.294C40.1191 434.873 39.971 434.094 39.971 434.094Z" fill="#EE5D4F"/>
<path d="M44.9186 433.089C44.9186 433.089 45.2848 434.982 44.4433 435.325C43.1966 435.839 43.8433 432.201 43.8979 431.624C43.9446 431.063 45.09 431.718 44.9186 433.089Z" fill="#F7BC4B"/>
<path d="M46.3835 443.351C52.6714 457.905 49.6482 464.146 39.0906 467.092C31.1587 469.304 23.1645 466.351 19.5726 456.682C15.9729 447.013 17.5857 437.647 24.9332 433.923C34.6416 428.998 42.1605 433.572 46.3835 443.351Z" fill="#F5894E"/>
<path d="M44.1396 446.95C48.9314 459.892 41.5294 465.222 36.9791 466.531C30.6055 468.362 23.3048 466.227 20.157 457.656C17.0092 449.085 18.8869 439.579 24.7852 436.478C38.5296 429.248 42.254 441.87 44.1396 446.95Z" fill="#CC6D3D"/>
<path d="M22.3588 462.087C23.9477 461.081 23.8215 458.031 22.0771 455.276C20.3327 452.52 17.6306 451.101 16.0417 452.107C14.4529 453.112 14.579 456.162 16.3235 458.917C18.0679 461.673 20.77 463.092 22.3588 462.087Z" fill="#CC6D3D"/>
<path d="M18.2948 452.607L19.1129 453.994C19.1129 453.994 16.4404 445.781 24.5125 439.751C31.6964 434.375 40.5399 434.928 40.5399 434.928C40.5399 434.928 32.569 427.331 21.9023 435.941C13.7445 442.525 18.2948 452.607 18.2948 452.607Z" fill="#F7BC4B"/>
<path d="M32.4056 447.839C32.4056 447.839 32.5926 449.638 31.2369 450.347C29.8812 451.064 28.5566 449.638 28.5566 449.638C28.5566 449.638 29.515 449.794 30.5746 449.303C31.6421 448.805 32.4056 447.839 32.4056 447.839Z" fill="#273252"/>
<path d="M44.5918 442.626C44.5918 442.626 45.3943 443.911 43.9295 444.644C43.1425 445.041 41.6855 443.982 41.6855 443.982C41.6855 443.982 42.862 444.161 43.6646 443.779C44.4671 443.397 44.5918 442.626 44.5918 442.626Z" fill="#273252"/>
<path d="M40.0491 440.101C41.7476 438.824 43.2281 439.688 43.2281 439.688" stroke="#1D2538" stroke-width="0.25" stroke-miterlimit="10" stroke-linecap="round" stroke-linejoin="round"/>
<path d="M29.1721 444.184C27.4346 444.582 26.858 447.059 26.858 447.059" stroke="#1D2538" stroke-width="0.25" stroke-miterlimit="10" stroke-linecap="round" stroke-linejoin="round"/>
<path d="M285.446 652.142C285.446 652.142 232.112 656.35 230.009 656.35C227.905 656.35 225.801 663.37 232.112 668.98L282.641 659.155L285.446 652.142Z" fill="#B44C29"/>
<path d="M255.892 658.477L260.887 660.697L232.112 668.988L282.633 659.162L266.162 655.422L255.892 658.477Z" fill="#7A462F"/>
<path d="M303.686 664.071C303.686 664.071 319.121 680.917 326.142 687.228C333.162 693.547 346.493 699.858 346.493 699.858C346.493 699.858 347.195 706.177 343.688 709.683C340.182 713.19 327.544 713.891 327.544 713.891L314.743 695.666L295.263 666.868L303.686 664.071Z" fill="#B44C29"/>
<path d="M346.493 699.866L337.51 699.289L327.513 705.118L327.794 714C327.794 714 342.559 712.925 343.689 711.795C345.792 709.691 348.605 703.372 346.493 699.866Z" fill="#D77D5B"/>
<path d="M343.719 702.967L338.297 702.616L332.266 706.138L332.437 711.499C332.437 711.499 341.351 710.844 342.037 710.167C343.291 708.896 344.99 705.086 343.719 702.967Z" fill="#A96443"/>
<path d="M313.823 680.917L318.934 682.717L305.447 668.746L304.754 671.902L318.934 691.054L323.82 698.269L313.823 680.917Z" fill="#7A462F"/>
<path d="M371.941 684.018L308.603 659.864L306.421 665.139L338.78 686.534L353.615 696.788L371.941 684.018Z" fill="#B44C29"/>
<path d="M371.941 684.018C371.941 684.018 364.313 680.683 363.611 680.683C362.91 680.683 355.002 685.677 355.002 685.677C355.002 685.677 351.316 696.251 353.887 697.334C356.467 698.425 364.991 698.167 364.991 698.167L372.206 694.007L371.941 684.018Z" fill="#D77D5B"/>
<path d="M368.77 686.893C368.77 686.893 362.232 686.511 361.851 686.511C361.469 686.511 358.438 689.121 358.438 689.121C358.438 689.121 356.981 693.601 358.391 694.201C359.801 694.801 364.539 695.355 364.539 695.355L368.77 690.36V686.893Z" fill="#A96443"/>
<path d="M352.376 683.091L328.308 669.58L335.188 671.053L315.779 663.199L312.093 666.144L334.448 678.182L333.217 675.229L352.376 683.091Z" fill="#7A462F"/>
<path d="M280.319 662.918C280.319 662.918 262.983 688.638 259.477 691.443C255.97 694.248 255.269 705.476 267.198 708.289C279.127 711.094 284.745 706.886 284.745 706.886L291.765 664.78L280.319 662.918Z" fill="#B44C29"/>
<path d="M284.745 706.886L281.994 695.129L267.284 688.467L258.401 692.074C258.401 692.074 256.181 697.903 258.401 702.624C260.622 707.346 264.51 708.733 272.286 710.4C280.046 712.06 284.745 706.886 284.745 706.886Z" fill="#D77D5B"/>
<path d="M279.26 704.806L277.538 697.443L268.328 693.274L262.765 695.534C262.765 695.534 261.378 699.18 262.765 702.133C264.152 705.086 266.59 705.959 271.452 706.995C276.314 708.039 279.26 704.806 279.26 704.806Z" fill="#A96443"/>
<path d="M283.374 669.027L275.878 681.517L281.433 678.463L283.374 692.62L290.316 670.133L283.374 669.027Z" fill="#7A462F"/>
<path d="M274.92 657.059L248.958 667.585L240.535 674.606C234.918 676.008 211.06 688.638 208.255 689.34C205.45 690.041 208.8 700.201 212.314 701.604C215.82 703.006 218.781 699.866 218.781 699.866C218.781 699.866 274.92 668.287 280.537 665.482C286.147 662.669 274.92 657.059 274.92 657.059Z" fill="#B44C29"/>
<path d="M272.458 663.012L253.454 670.827L265.328 668.341L253.649 675.237L253.836 676.195L246.176 681.361L277.826 665.692L272.458 663.012Z" fill="#7A462F"/>
<path d="M206.564 693.321C206.33 689.955 208.239 689.332 208.239 689.332C208.239 689.332 213.779 689.207 215.166 690.5C216.553 691.794 217.293 698.736 217.293 698.736C217.293 698.736 216.646 701.557 215.812 701.931C214.979 702.305 212.143 702.25 210.125 701.471C205.917 699.843 206.688 695.09 206.564 693.321Z" fill="#D77D5B"/>
<path d="M208.2 694.825C208.052 692.659 209.283 692.254 209.283 692.254C209.283 692.254 212.852 692.168 213.748 693.009C214.644 693.843 215.119 698.315 215.119 698.315C215.119 698.315 214.698 700.131 214.168 700.372C213.631 700.614 211.807 700.575 210.506 700.076C207.779 699.024 208.278 695.97 208.2 694.825Z" fill="#A96443"/>
<path d="M252.379 673.468L224.609 686.792L220.908 692.713L226.097 688.646L234.606 687.532L252.379 673.468Z" fill="#7A462F"/>
<path d="M296.494 673.195C261.946 674.06 249.16 636.863 247.415 631.339C245.67 625.814 240.8 605.556 247.415 598.209C247.415 619.129 259.032 621.038 259.032 621.038C259.032 621.038 248.109 600.344 256.095 593.121C264.081 585.906 279.672 585.999 278.87 561.534C278.62 554.046 285.719 546.379 291.594 546.379C291.594 546.379 287.215 569.395 302.704 568.749C318.194 568.102 312.943 595.63 313.683 605.182C313.683 605.182 315.825 614.782 320.345 608.112C324.864 601.442 326.5 591.656 326.5 591.656C326.5 591.656 331.985 609.514 332.819 621.443C335.016 653.046 315.654 672.72 296.494 673.195Z" fill="#F7BC4B"/>
<path d="M287.191 667.991C254.833 661.859 262.803 634.868 265.141 630.638C265.141 630.638 265.297 639.473 266.816 642.964C269.341 648.784 279.283 650.755 275.138 641.873C270.992 632.991 269.567 627.373 277.88 611.938C277.88 611.938 289.794 602.198 287.215 581.55C285.703 569.442 293.121 608.595 293.121 608.595C293.121 608.595 297.258 599.152 298.832 612.958C299.821 621.669 305.712 650.818 315.607 637.907C317.828 657.503 299.634 670.351 287.191 667.991Z" fill="#EE5D4F"/>
<path d="M329.811 656.623C345.098 658.29 339.418 637.853 339.418 637.853C339.418 637.853 336.006 649.774 329.811 656.623Z" fill="#F7BC4B"/>
<path d="M267.198 538.657C266.512 542.787 267.315 550.906 271.327 542.101C274.911 534.247 267.883 534.528 267.198 538.657Z" fill="#FEED7F"/>
<path d="M314.158 559.243C314.158 559.243 321.731 560.622 319.667 554.42C317.602 548.226 314.158 559.243 314.158 559.243Z" fill="#EE5D4F"/>
<path d="M306.927 590.23C306.927 590.23 310.371 588.165 309.678 582.657C308.992 577.14 306.927 590.23 306.927 590.23Z" fill="#EE5D4F"/>
<path d="M270.089 568.881L268.024 559.243L266.645 560.622C266.652 560.622 262.515 564.751 270.089 568.881Z" fill="#EE5D4F"/>
<path d="M280.716 500.728C273.377 503.174 266.037 489.313 277.452 483.602C285.96 479.348 279.672 482.48 277.413 489.905C274.888 498.211 282.594 500.105 280.716 500.728Z" fill="#F7BC4B"/>
<path d="M252.869 557.622C250.423 554.358 240.068 564.237 243.94 575.208C245.405 579.353 243.893 569.855 249.604 565.78C255.316 561.705 255.316 560.887 252.869 557.622Z" fill="#F7BC4B"/>
<path d="M305.875 516.506C303.429 517.324 300.982 526.292 310.769 532.003C310.769 532.003 308.322 515.688 305.875 516.506Z" fill="#F7BC4B"/>
<path opacity="0.4" d="M235.252 589.171C235.252 589.171 227.734 556.469 253.976 533.468C253.976 533.468 258.651 502.629 283.646 485.386C308.642 468.144 313.472 471.174 319.41 422.508C324.053 384.454 341.304 376.374 331.946 344.833C322.417 312.716 337.907 270.852 313.247 249.893C288.586 228.933 278.652 216.778 277.491 207.974C273.93 180.859 291.149 156.315 309.545 120.435C317.189 105.522 297.219 32.8962 297.219 32.8962C323.111 60.0188 331.946 114.685 328.043 130.299C317.477 172.553 310.177 172.351 329.274 207.974C348.371 243.597 374.894 249.893 383.527 315.241C397.544 341.46 387.228 369.494 379.826 386.752C372.432 404.011 376.803 446.039 374.068 461.965C363.331 524.446 338.748 534.707 347.226 572.933C355.703 611.151 360.791 641.437 317.057 664.438C273.315 687.423 192.757 631.331 235.252 589.171Z" fill="#FEED7F"/>
</svg>
