<svg width="219" height="198" viewBox="0 0 219 198" fill="none" xmlns="http://www.w3.org/2000/svg">
<path d="M193.654 52.6491C193.654 52.6491 199.652 21.2633 175.068 12.2989C150.484 3.3346 134.075 9.11863 128.358 10.8628C122.641 12.607 89.3081 33.8634 109.477 58.7C109.477 58.7 104.754 56.1501 102.605 58.0821C100.456 60.0141 100.459 60.0142 100.459 60.0142C100.459 60.0142 90.3551 57.6935 82.1017 63.9045C73.8481 70.1178 78.3307 72.3989 80.0475 73.768C81.7643 75.1372 80.4914 75.0702 80.4914 75.0702C80.4914 75.0702 65.2607 77.8486 59.6919 81.6456C54.123 85.4427 49.2781 90.0466 69.045 88.5295C88.8119 87.0124 98.8743 85.2431 98.8743 85.2431C98.8743 85.2431 81.0553 88.6516 80.8674 92.2218C80.6794 95.7919 122.922 89.8328 131.174 88.4782C139.426 87.1237 177.563 76.6019 185.346 74.4563C185.346 74.4563 178.462 78.9505 183.816 79.2324C189.17 79.5142 212.008 68.1894 215.188 66.0555C218.368 63.9216 208.64 64.1758 208.64 64.1758C208.64 64.1758 210.759 57.8958 207.928 53.4004C205.097 48.9049 195.574 50.1926 193.654 52.6491Z" fill="#F3E7D9"/>
<path d="M69.73 49.6255C69.73 49.6255 72.1268 42.8134 66.2955 39.6012C62.445 37.4815 54.393 42.2986 54.7813 47.0475C54.9501 49.0992 52.3114 45.3825 47.789 48.7245C43.2667 52.0666 43.3481 57.8219 43.3481 57.8219C43.3481 57.8219 33.6195 60.5055 32.304 61.2027C30.9886 61.8998 29.3661 63.6055 39.7245 61.0808C50.0849 58.5631 69.73 49.6255 69.73 49.6255Z" fill="#F3E7D9"/>
<path d="M40.6765 104.765C40.6765 104.765 39.3739 100.35 31.1489 101.196C22.924 102.042 19.5158 108.51 20.7486 109.341C21.9836 110.173 22.1987 110.953 22.1987 110.953C22.1987 110.953 10.2023 115.434 5.50502 117.232C0.807746 119.03 5.25009 122.075 14.3622 118.977C23.4745 115.876 46.8625 108.671 55.3429 107.838C63.8234 107.006 40.6765 104.765 40.6765 104.765Z" fill="#F3E7D9"/>
<path d="M88.4558 143.935C72.2462 148.668 70.3065 156.311 70.3065 156.311C70.3065 156.311 37.3469 161.613 29.7657 164.918C22.1845 168.222 11.5338 174.213 26.0145 179.903C35.811 183.752 59.9315 189.834 81.8949 187.658C103.858 185.481 118.138 184.118 124.176 180.678C130.213 177.239 124.959 172.234 124.959 172.234C124.959 172.234 138.205 174.263 157.119 175.027C176.034 175.792 186.877 171.492 178.125 167.541C178.125 167.541 225.219 155.764 201.37 146.268C197.55 144.955 188.556 136.427 157.55 134.518C126.543 132.61 111.022 137.345 88.4558 143.935Z" fill="#856792"/>
<path d="M124.832 148.99C124.832 148.99 102.404 153.432 106.062 156.777C109.72 160.122 123.617 160.465 123.617 160.465C123.617 160.465 129.393 167.524 140.633 167.331C151.873 167.138 159.659 166.8 166.55 164.516C173.442 162.232 201.72 156.745 176.995 151.706C152.271 146.667 124.832 148.99 124.832 148.99Z" fill="#4B3355"/>
<path d="M117.1 141.654C104.025 143.642 101.657 145.895 110.976 148.73C120.296 151.565 124.05 149.386 130.429 146.405C136.81 143.424 130.178 139.664 117.1 141.654Z" fill="#4B3355"/>
<path d="M110.474 161.85C106.099 160.508 101.844 163.988 110.688 164.824C119.531 165.66 114.846 163.19 110.474 161.85Z" fill="#4B3355"/>
<path d="M90.0201 166.975C90.0201 166.975 89.4523 167.028 88.5666 167.123C84.8535 167.52 75.5339 168.649 78.765 169.716C82.7696 171.038 98.3578 170.376 93.3027 167.889" fill="#4B3355"/>
<path d="M70.1703 160.854C70.1703 160.854 41.5562 163.477 37.0775 166.382C32.5987 169.287 49.3748 172.437 49.3748 172.437C49.3748 172.437 55.0606 173.981 63.0063 173.704C70.952 173.427 96.1943 168.931 89.3903 165.512C84.1241 162.863 70.1703 160.854 70.1703 160.854Z" fill="#4B3355"/>
<path d="M104.014 174.487C104.014 174.487 87.8788 172.675 90.6794 176.62C93.4799 180.565 117.093 177.473 104.014 174.487Z" fill="#4B3355"/>
<path d="M110.1 186.548C107.227 187.769 100.561 191.971 115.328 192.748C130.095 193.525 133.801 184.092 130.235 183.904C126.672 183.717 112.971 185.329 110.1 186.548Z" fill="#856792"/>
<path d="M130.61 124.279C130.61 124.279 91.9474 126.84 84.6751 129.189C77.4027 131.537 67.0932 138.738 84.8087 141.729C102.524 144.723 112.251 148.6 120.356 145.499C128.462 142.398 122.888 135.123 122.888 135.123C122.888 135.123 137.085 137.074 146.705 135.421C156.327 133.763 158.994 120.802 130.61 124.279Z" fill="#856792"/>
<path d="M152.289 165.934C150.663 166.342 149.14 169.472 153.203 169.685C157.266 169.899 161.563 168.703 160.006 167.081C158.132 165.13 153.916 165.525 152.289 165.934Z" fill="#4B3355"/>
<path d="M134.005 175.586C134.005 175.586 130.565 177.626 134.609 178.21C138.652 178.793 138.808 175.839 134.005 175.586Z" fill="#856792"/>
<path d="M135.74 180.971C134.153 182.399 132.992 184.55 138.55 185.076C144.109 185.602 144.59 180.855 142.748 180.525C140.901 180.195 137.327 179.542 135.74 180.971Z" fill="#856792"/>
<path d="M169.841 163.154C169.841 163.154 169.88 164.76 172.97 164.678C176.061 164.593 179.579 163.422 179.579 163.422C179.579 163.422 182.52 163.824 184.813 162.462C187.106 161.1 184.904 158.393 178.431 159.411C171.959 160.427 169.011 162.493 169.841 163.154Z" fill="#4B3355"/>
<path d="M133.908 129.939C133.908 129.939 124.796 128.903 127.422 131.818C130.046 134.736 141.548 132.564 133.908 129.939Z" fill="#4B3355"/>
<path d="M134.619 116.388L133.686 129.678L132.014 130.766L129.963 133.696C129.963 133.696 130.073 136.042 129.644 139.764C129.215 143.486 128.489 148.362 128.489 148.362L157.021 162.033L168.197 163.091L178.027 162.352L194.743 154.345L190.946 139.95L190.638 136.892L187.002 134.829L189.434 133.086L188.489 115.486L148.62 112.685L134.619 116.388Z" fill="#7A462F"/>
<path d="M188.492 115.479L168.827 106.721L147.012 107.679L134.619 116.388C134.619 116.388 136.399 118.12 140.134 118.316C143.868 118.513 160.327 121.486 160.327 121.486L172.475 121.892C172.475 121.892 182.239 118.661 185.078 118.108C187.916 117.555 188.492 115.479 188.492 115.479Z" fill="#A96443"/>
<path d="M184.618 156.772L177.679 147.89L177.564 136.034L174.084 124.74L174.357 133.642L176.377 137.452L175.444 148.143L175.406 155.917L168.2 163.089L178.301 157.181L177.484 151.583L181.975 157.745L184.618 156.772Z" fill="#A96443"/>
<path d="M165.047 120.561L164.035 125.694L159.527 119.902L165.047 120.561Z" fill="#A96443"/>
<path d="M179.234 118.345L181.627 122.175L183.744 117.102L179.234 118.345Z" fill="#A96443"/>
<path d="M162.792 114.147L161.12 124.799L164.522 130.532L163.783 137.53L162.579 132.283L159.294 124.332L162.792 114.147Z" fill="#A96443"/>
<path d="M166 130.61L165.553 139.103L168.33 149.619L168.428 154.808L169.944 147.112L167.787 138.853L166 130.61Z" fill="#A96443"/>
<path d="M168.526 131.855L167.807 138.483L169.05 142.991L169.127 134.478L170.352 128.803L168.526 131.855Z" fill="#A96443"/>
<path d="M134.522 130.621L132.895 136.892L133.933 142.995L133.083 147.393L134.793 143.041L133.738 137.305L134.522 130.621Z" fill="#A96443"/>
<path d="M183.997 119.337C183.997 119.337 183.317 125.226 183.258 126.335C183.2 127.444 182.607 138.706 182.607 138.706L186.882 148.93L185.899 139.435L194.743 154.342L190.638 136.889L187.002 134.827L189.434 133.083L188.795 119.592L187.331 122.846L186.777 129.853L185.716 125.352L186.105 121.484L183.997 119.337Z" fill="#A96443"/>
<path d="M182.047 161.635C183.072 161.504 184.996 158.366 181.021 152.97C179.372 150.736 179.208 156.595 179.791 158.739C180.376 160.884 181.022 161.766 182.047 161.635Z" fill="#33A86D"/>
<path d="M183.445 158.693C183.445 158.693 182.326 152.694 183.388 152.82C186.579 153.199 185.314 155.255 185.314 155.255C185.314 155.255 189.963 151.195 190.696 152.793C191.428 154.394 188.378 156.617 188.378 156.617C188.378 156.617 196.368 151.857 192.391 155.612C188.417 159.367 182.703 161.521 183.445 158.693Z" fill="#33A86D"/>
<path d="M180.071 144.683C180.071 144.683 181.297 149.56 182.559 146.664C183.823 143.768 183.2 141.514 180.071 144.683Z" fill="#33A86D"/>
<path d="M189.615 146.298C189.615 146.298 191.986 143.459 189.401 143.323C186.815 143.187 188.175 145.48 189.615 146.298Z" fill="#33A86D"/>
<path d="M180.927 121.397C180.927 121.397 181.491 124.76 179.312 123.904C177.133 123.048 177.291 120.096 180.927 121.397Z" fill="#33A86D"/>
<path d="M180.226 127.655C180.226 127.655 185.454 126.819 182.928 125.576C180.401 124.331 178.069 126.432 180.226 127.655Z" fill="#33A86D"/>
<path d="M182.85 134.089C182.85 134.089 186.349 130.94 183.044 130.395C179.74 129.853 179.176 133.525 182.85 134.089Z" fill="#33A86D"/>
<path d="M176.104 128.55C176.104 128.55 176.241 133.002 177.794 131.601C179.348 130.201 179.525 126.879 176.104 128.55Z" fill="#33A86D"/>
<path d="M162.072 164.937C162.072 164.937 159.901 160.847 162.113 159.108C164.325 157.367 162.072 164.937 162.072 164.937Z" fill="#288453"/>
<path d="M160.628 164.026C159.992 164.981 155.832 154.886 158.062 154.724C160.291 154.563 161.266 163.074 160.628 164.026Z" fill="#288453"/>
<path d="M156.587 162.828C156.057 161.782 155.747 156.488 157.544 158.742C158.863 160.402 159.197 160.742 159.473 163.103C159.75 165.463 157.118 163.874 156.587 162.828Z" fill="#288453"/>
<path d="M128.884 149.764C128.884 149.764 128.504 142.893 126.25 143.515C123.996 144.138 126.416 147.413 126.416 147.413C126.416 147.413 123.247 144.284 124.035 146.917C124.823 149.55 128.884 149.764 128.884 149.764Z" fill="#33A86D"/>
<path d="M131.07 150.435C131.07 150.435 132.944 146.459 131.118 145.993C129.292 145.526 129.533 147.945 129.533 147.945C129.533 147.945 128.086 143.795 127.795 145.818C127.503 147.838 128.534 149.375 129.796 149.997C131.06 150.62 131.06 150.62 131.06 150.62" fill="#288453"/>
<path d="M76.1233 183C76.1233 183 73.2077 175.071 74.7688 177.096C76.3275 179.122 76.8235 180.26 76.8235 180.26C76.8235 180.26 76.5169 175.522 78.3977 176.733C80.2784 177.944 79.0094 180.931 79.0094 180.931C79.0094 180.931 82.1884 178.598 82.3769 180.276C82.5654 181.953 78.2947 183.947 76.1233 183Z" fill="#33A86D"/>
<path d="M58.2266 183.541C58.2266 183.541 55.7634 177.578 57.7315 177.128C59.6998 176.675 60.05 180.583 60.05 180.583C60.05 180.583 60.153 173.366 62.6442 173.497C65.1353 173.629 62.585 179.881 62.585 179.881C62.585 179.881 63.4882 178.54 64.8001 179.998C66.1119 181.455 65.1503 183.905 65.1503 183.905C65.1503 183.905 68.0218 182.112 69.612 183.584C71.1999 185.056 69.5099 185.523 69.5099 185.523C69.5099 185.523 74.8312 184.692 74.48 186.062C74.1311 187.432 69.6402 188.307 65.5443 186.98C61.4485 185.653 52.2636 186.004 53.213 183.83C54.16 181.659 58.2266 183.541 58.2266 183.541Z" fill="#33A86D"/>
<path d="M27.7326 169.859C27.7326 169.859 23.2578 164.605 26.9999 161.268L27.8539 164.774C27.8539 164.774 29.5789 160.381 31.7007 159.01L29.1822 165.441C29.1822 165.441 30.8549 162.26 32.9271 161.44C34.9992 160.623 27.7326 169.859 27.7326 169.859Z" fill="#856792"/>
<path d="M25.7568 169.582C25.7568 169.582 21.2244 166.205 16.1712 165.552C16.1712 165.552 19.7617 164.528 21.9632 165.381C24.1647 166.233 24.0628 167.996 24.0628 167.996L23.2584 163.939C23.2584 163.939 27.6917 168.416 27.7301 169.859C27.7685 171.303 25.7568 169.582 25.7568 169.582Z" fill="#856792"/>
<path d="M198.227 147.425C198.227 147.425 196.918 140.928 199.206 139.131L199.07 142.711C199.07 142.711 200.565 139.212 201.783 138.681L199.596 143.805C199.596 143.805 200.879 141.422 201.988 141.389C203.097 141.356 198.227 147.425 198.227 147.425Z" fill="#856792"/>
<path d="M197.335 146.466C197.335 146.466 195.71 141.706 193.416 139.31C193.416 139.31 195.275 139.622 196.187 141.199C197.099 142.775 196.779 144.387 196.779 144.387L197.023 140.309C197.023 140.309 198.434 146.061 198.229 147.425C198.025 148.789 197.335 146.466 197.335 146.466Z" fill="#856792"/>
<path d="M110.86 144.382C110.814 144.396 110.767 144.414 110.722 144.437C110.046 144.762 103.622 145.687 102.957 146.421C102.413 147.019 102.398 149.694 102.513 150.73C102.548 151.052 102.76 151.324 103.065 151.441C104.305 151.922 106.052 153.028 109.162 153.011C113.283 152.987 114.113 152.777 117.244 151.48C119.295 150.632 122.47 149.891 123.093 149.613C123.391 149.48 123.534 149.199 123.567 148.883L123.914 145.412C123.957 144.978 123.729 144.584 123.293 144.481C121.272 144.008 115.611 142.923 110.86 144.382Z" fill="#29ABE2"/>
<path d="M113.155 143.157C113.155 143.157 103.613 145.345 102.916 146.064C102.219 146.782 102.508 149.771 102.508 149.771C102.508 149.771 105.129 151.57 109.215 151.396C113.316 151.221 114.251 151.492 117.36 150.317C119.771 149.405 122.994 148.685 123.459 148.49C123.583 148.437 123.666 148.332 123.68 148.209L123.999 145.142C124.027 144.862 123.828 144.602 123.526 144.529C121.736 144.103 118.097 141.759 113.155 143.157Z" fill="#121721"/>
<path d="M107.427 144.974C107.427 144.974 110.019 144.699 111.86 146.452" stroke="#29ABE2" stroke-width="2" stroke-miterlimit="10" stroke-linecap="round" stroke-linejoin="round"/>
<path d="M109.241 144.226C109.241 144.226 111.103 144.015 114.083 146.022" stroke="#29ABE2" stroke-width="2" stroke-miterlimit="10" stroke-linecap="round" stroke-linejoin="round"/>
<path d="M146.609 95.7809C146.609 95.7809 130.347 91.3448 124.063 90.3781C120.6 89.8458 118.938 90.7832 117.763 92.723C116.586 94.6604 116.496 101.5 119.825 103.569C123.155 105.639 128.596 105.827 132.911 107.557C137.224 109.285 143.332 113.193 147.068 111.576C150.804 109.958 156.351 100.503 146.609 95.7809Z" fill="#CE9436"/>
<path d="M146.609 95.7809L139.293 93.9661L125.085 105.434C125.085 105.434 131.007 106.793 132.909 107.557C137.221 109.285 143.329 113.193 147.065 111.576C150.804 109.958 151.865 95.934 146.609 95.7809Z" fill="#F7BC4B"/>
<path d="M125.688 118.613C125.688 118.613 125.676 102.455 126.195 99.0002C126.715 95.5458 126.628 90.6412 120.457 90.0533C116.28 89.655 113.812 90.2137 113.3 95.2469C112.892 99.2585 112.269 102.531 112.658 106.713C113.181 112.322 112.258 137.872 111.414 138.733C110.57 139.595 110.507 139.228 110.488 141.407C110.474 143.165 111.995 143.424 116.042 144.376C118.535 144.82 120.991 146.658 123.112 145.477C125.233 144.297 124.786 143.326 124.786 143.326L124.789 141.139L125.688 118.613Z" fill="#CE9436"/>
<path d="M125.688 118.612C125.688 118.612 128.317 103.131 128.837 99.6767C129.358 96.2224 120.189 117.351 120.674 119.6C121.162 121.849 121.197 126.41 121.197 126.41L119.772 124.221C119.772 124.221 117.457 138.644 117.439 140.825C117.424 142.584 111.992 143.428 116.039 144.378C118.532 144.822 120.988 146.66 123.109 145.479C125.23 144.299 124.783 143.328 124.783 143.328L124.786 141.141L125.688 118.612Z" fill="#F7BC4B"/>
<path d="M176.015 99.7835C176.015 99.7835 179.073 107.352 177.732 111.724C176.39 116.098 175.406 116.046 170.254 115.404C165.547 114.818 138.242 110.91 143.62 100.794C148.134 92.2996 154.706 94.2171 161.903 95.8312C169.102 97.4454 176.015 99.7835 176.015 99.7835Z" fill="#F7BC4B"/>
<path d="M144.834 66.0427C144.834 66.0427 140.364 69.177 139.759 73.5305C139.155 77.884 136.166 82.5192 135.031 83.9556C133.897 85.3919 130.972 90.5795 135.445 93.7751C139.919 96.9707 141.937 90.4018 143.836 87.5713C145.735 84.7409 148.413 82.1893 149.958 77.9128C151.503 73.634 153.454 63.3509 144.834 66.0427Z" fill="#7A462F"/>
<path d="M139.256 91.0452C139.256 91.0452 140.224 94.2988 136.477 97.43C132.73 100.561 126.472 105.464 124.841 106.801C123.21 108.138 121.021 107.489 119.553 105.911C118.085 104.331 119.667 102.145 123.7 97.7526C127.733 93.3599 132.198 87.3681 135.894 86.1215C139.59 84.8749 139.256 91.0452 139.256 91.0452Z" fill="#7A462F"/>
<path d="M129.452 100.295C130.168 99.7699 140.224 94.2988 136.477 97.4301C132.73 100.561 126.471 105.464 124.841 106.801C123.21 108.138 122.189 104.604 123.742 103.206C125.296 101.808 126.814 102.224 129.452 100.295Z" fill="#A96443"/>
<path d="M121.273 102.447C120.513 102.194 119.306 102.481 117.649 102.886C116.398 103.19 114.481 103.275 113.177 103.391C111.13 103.574 111.173 102.792 109.769 103.644C109.063 104.074 109.368 105.188 109.795 105.496C110.807 106.229 113.851 105.845 114.241 106.039C114.631 106.234 111.721 109.075 111.584 109.29C111.447 109.504 108.037 110.965 107.296 111.434C106.555 111.903 107.061 112.33 107.355 112.622C107.648 112.914 108.74 112.953 108.74 112.953C108.74 112.953 107.687 113.383 108.388 114.2C109.091 115.019 109.635 114.94 110.102 114.706C110.57 114.472 111.271 114.317 111.271 114.317C111.271 114.317 111.056 115.351 112.11 115.505C113.163 115.659 113.591 115.35 113.591 115.35C113.591 115.35 113.748 115.857 114.624 116.15C115.501 116.443 115.599 116.151 117.216 115.195C118.833 114.239 121.036 112.896 121.679 112.33C122.322 111.765 124.758 107.38 124.348 106.075C123.944 104.766 122.033 102.7 121.273 102.447Z" fill="#7A462F"/>
<path d="M122.428 104.741C121.668 104.488 119.426 103.723 117.771 104.125C116.52 104.43 114.259 104.002 112.958 104.119C110.91 104.302 111.401 103.234 109.998 104.086C109.291 104.516 109.375 105.186 109.8 105.497C110.811 106.229 113.856 105.845 114.246 106.04C114.636 106.234 111.725 109.075 111.588 109.29C111.451 109.505 108.041 110.965 107.3 111.434C106.56 111.903 107.066 112.33 107.359 112.622C107.653 112.914 108.995 112.582 108.995 112.582C108.995 112.582 107.692 113.383 108.392 114.202C109.095 115.022 109.624 114.446 110.135 114.34C110.852 114.192 111.386 114.035 111.386 114.035C111.386 114.035 110.804 115.32 112.114 115.508C112.907 115.62 114.512 114.593 114.512 114.593C114.512 114.593 113.718 115.153 114.206 115.572C114.961 116.22 115.456 115.684 117.073 114.728C118.691 113.772 120.619 112.204 121.262 111.638C121.905 111.073 124.054 107.283 123.644 105.978C123.235 104.671 123.188 104.994 122.428 104.741Z" fill="#A96443"/>
<path d="M113.433 110.316C113.433 110.316 115.424 111.779 116.24 112.099C117.056 112.419 117.629 112.696 117.629 112.696C117.629 112.696 114.527 110.65 114.347 110.549C114.167 110.448 113.193 109.624 113.193 109.624L113.433 110.316Z" fill="#7A462F"/>
<path d="M113.746 115.061L115.873 113.761L117.324 112.588C117.324 112.588 116.839 113.236 115.927 113.908C115.373 114.316 114.405 114.753 113.746 115.061Z" fill="#7A462F"/>
<path d="M111.38 114.126L113.552 112.699C113.552 112.699 114.891 111.699 115.654 111.451L113.922 112.718L111.38 114.126Z" fill="#7A462F"/>
<path d="M108.677 112.719L111.797 111.494L113.445 110.099C113.445 110.099 111.937 111.193 111.681 111.365C111.424 111.537 108.211 112.786 108.211 112.786L108.677 112.719Z" fill="#7A462F"/>
<path d="M160.101 62.0995C152.061 62.4176 148.293 63.6375 146.4 64.4026C144.509 65.1678 144.844 65.8031 144.844 65.8031C144.844 65.8031 145.123 72.2367 145.37 74.5945C145.616 76.9523 146.247 82.8257 146.411 85.8814C146.591 89.2422 148.968 95.3654 148.676 97.3883C148.323 99.8403 149.464 103.54 149.464 103.54C149.464 103.54 156.509 102.213 161.4 103.088C166.29 103.964 176.245 102.449 176.745 102.352C177.244 102.255 176.884 100.877 176.949 99.6474C177.014 98.4155 176.929 96.4986 176.929 96.4986C176.929 96.4986 176.244 85.4776 176.374 83.0138C176.504 80.5523 177.616 67.2856 176.756 64.6416C176.221 63.0099 168.14 61.7815 160.101 62.0995Z" fill="#29ABE2"/>
<path d="M173.699 81.6399C173.699 81.6399 173.923 85.6023 173.774 88.4334C173.625 91.2645 174.951 94.2349 174.29 96.2361C173.629 98.2373 173.045 102.281 173.045 102.281" stroke="#1689CB" stroke-miterlimit="10"/>
<path d="M165.469 62.1214C166.208 62.1603 165.54 66.0278 164.509 67.4559C163.477 68.8839 159.138 71.0003 155.808 70.9486C152.235 70.8932 150.498 69.6556 151.849 66.4189C152.555 64.7289 153.022 62.9006 154.265 62.7189C155.51 62.5374 156.394 62.4306 159.271 62.303C162.149 62.1754 164.73 62.0825 165.469 62.1214Z" fill="#7A462F"/>
<path d="M161.21 66.0309C164.03 65.461 163.875 65.4163 163.691 63.9631L163.201 57.1409C163.056 55.9849 161.806 55.2168 160.049 55.5704L156.322 56.1954C154.615 56.538 153.89 57.6779 153.859 58.8292C153.859 58.8292 154.092 63.7094 154.443 65.2446C154.798 66.7983 158.386 66.6006 161.21 66.0309Z" fill="#A96443"/>
<path d="M161.038 66.249C155.004 62.7585 153.887 57.6785 153.857 58.8275C153.857 58.8275 153.918 63.9252 154.269 65.4604C154.629 67.0166 158.215 66.821 161.038 66.249Z" fill="#7A462F"/>
<path d="M145.853 77.1499L146.322 80.8851C146.322 80.8851 157.045 82.6459 170.894 81.6157L170.282 77.4178C170.28 77.4177 160.378 78.6556 145.853 77.1499Z" fill="#3E4C6F"/>
<path d="M170.893 83.3747C170.893 83.3747 158.48 84.2037 146.508 82.8324L146.947 86.2183C146.947 86.2183 150.971 87.1713 156.982 87.3641C162.993 87.557 171.55 86.7424 171.55 86.7424L170.893 83.3747Z" fill="#3E4C6F"/>
<path d="M164.874 48.2521C165.798 59.4253 163.723 58.5223 159.165 59.1471C155.352 59.6715 151.702 55.4738 151.034 49.9164C150.365 44.359 152.921 39.4814 156.743 39.0214C160.564 38.5615 164.307 41.3846 164.874 48.2521Z" fill="#273252"/>
<path d="M162.541 46.9925C161.902 41.8804 161.014 39.0199 155.455 39.2832C152.554 39.421 149.753 40.0376 148.191 41.1289C146.778 42.116 146.015 43.4759 145.883 46.8957C145.784 49.4732 145.743 53.9135 147.065 58.0459C147.914 60.6939 151.423 61.3041 154.437 61.147C162.064 60.7524 163.136 59.8183 163.162 54.3592C163.188 49.2272 162.804 49.0903 162.541 46.9925Z" fill="#7A462F"/>
<path d="M161.641 41.6173C160.037 38.5384 155.379 42.0265 157.409 42.886C160.398 44.1551 159.296 51.0491 158.58 55.2297C157.791 59.8298 155.096 60.8317 155.096 60.8317C155.096 60.8317 156.54 60.9466 158.266 60.5822C161.075 59.9889 163.04 60.1541 163.032 53.3595C163.029 50.0995 162.628 43.5084 161.641 41.6173Z" fill="#A96443"/>
<path d="M146.995 41.1535C146.568 41.4879 146.019 44.41 145.907 46.2319C145.884 46.615 146.346 43.8393 146.899 43.1981C146.899 43.1981 148.515 43.6698 150.39 43.5031C153.872 43.1946 156.997 42.4463 156.997 42.4463C156.997 42.4463 158.201 46.4329 159.293 47.7166C160.414 49.0337 161.762 49.7177 161.762 49.7177L163.275 46.8693C162.965 43.0189 161.542 39.7688 158.924 39.2238C154.131 38.2281 148.565 39.9231 146.995 41.1535Z" fill="#273252"/>
<path d="M155.193 50.218C155.196 50.9869 154.839 51.078 154.45 51.0781C154.061 51.0805 153.779 50.9924 153.767 50.223C153.756 49.4467 154.068 48.8087 154.467 48.8068C154.865 48.8072 155.19 49.4421 155.193 50.218Z" fill="#1D2538"/>
<path d="M153.282 46.2395C153.282 46.2395 154.863 46.0252 155.568 46.7488" stroke="#1D2538" stroke-miterlimit="10" stroke-linecap="round" stroke-linejoin="round"/>
<path d="M149.518 50.6079C149.551 51.3282 149.237 51.3826 148.871 51.3839C148.504 51.3852 148.219 51.3336 148.179 50.613C148.137 49.8854 148.407 49.2864 148.78 49.2854C149.153 49.2822 149.483 49.8785 149.518 50.6079Z" fill="#1D2538"/>
<path d="M149.327 46.8002C149.327 46.8002 148.167 46.4097 147.136 47.3874" stroke="#1D2538" stroke-miterlimit="10" stroke-linecap="round" stroke-linejoin="round"/>
<path d="M165.32 50.5197C164.835 52.3539 163.391 53.6116 162.081 53.3826C162.081 53.3826 162.069 49.1887 162.04 48.3888C162.021 47.8868 162.324 46.3449 163.72 46.59C165.112 46.8348 165.82 48.6221 165.32 50.5197Z" fill="#A96443"/>
<path d="M164.484 52.4225C164.407 52.9196 163.928 53.2834 163.418 53.2382C162.908 53.193 162.549 52.7531 162.619 52.2557C162.688 51.7537 163.166 51.3807 163.685 51.4263C164.204 51.4719 164.563 51.921 164.484 52.4225Z" fill="#F3E7D9"/>
<path d="M155.288 108.815C155.288 108.815 155.391 112.421 152.272 112.484C152.272 112.484 155.153 109.558 155.288 108.815Z" fill="#CE9436"/>
<path d="M140.853 152.295C136.713 153.535 130.696 154.684 130.358 156.449C130.021 158.201 129.768 160.059 129.909 160.726C130.017 161.23 130.228 161.536 130.623 161.713C131.629 162.161 133.634 163.225 137.723 163.738C139.486 163.959 143.378 163.155 145.767 161.537C147.66 160.258 149.923 158.775 150.769 158.221C150.989 158.077 151.138 157.853 151.181 157.597L151.523 155.63C151.592 155.228 151.389 154.822 151.017 154.626C149.272 153.704 144.214 151.287 140.853 152.295Z" fill="#29ABE2"/>
<path d="M141.123 150.594C137.516 151.618 130.653 153.984 130.33 155.733C130.038 157.312 129.903 158.183 129.937 158.794C129.954 159.092 130.784 159.261 131.188 159.425C132.214 159.838 134.258 160.815 138.408 161.319C140.197 161.537 143.719 161.2 146.128 159.774C148.128 158.591 150.536 157.213 151.283 156.786C151.432 156.7 151.535 156.565 151.569 156.409L151.884 154.886C152.019 154.232 151.968 151.384 151.247 151.129C148.624 150.199 144.319 149.684 141.123 150.594Z" fill="#121721"/>
<path d="M141.39 155.217C141.39 155.217 138.132 152.182 134.319 153.173" stroke="#29ABE2" stroke-width="2" stroke-miterlimit="10" stroke-linecap="round" stroke-linejoin="round"/>
<path d="M143.739 153.899C143.739 153.899 140.334 151.142 136.533 152.129" stroke="#29ABE2" stroke-width="2" stroke-miterlimit="10" stroke-linecap="round" stroke-linejoin="round"/>
<path d="M147.056 152.484C147.056 152.484 145.706 152.665 142.736 152.417C139.763 152.171 139.6 151.19 138.84 150.73C138.079 150.269 136.305 152.069 137.213 147.219C138.12 142.369 137.422 140.425 137.248 139.199C137.075 137.972 136.737 139.394 136.946 135.559C137.154 131.725 137.549 128.698 137.585 123.638C137.62 118.577 137.686 102.412 138.335 100.289C138.987 98.1637 153.69 99.6811 154.588 103.469C155.487 107.256 153.984 111.604 153.439 113.352C152.894 115.101 153.299 120.311 152.654 123.795C152.293 125.734 151.978 131.549 152.128 138.083C152.278 144.618 152.622 146.946 153.021 147.669C153.42 148.393 152.781 150.763 152.451 151.764C152.126 152.767 147.056 152.484 147.056 152.484Z" fill="#F7BC4B"/>
<path d="M177.119 103.422C176.828 101.924 176.521 102.926 165.591 100.841C157.132 99.2264 145.797 94.615 143.822 99.3242C141.847 104.033 165.312 106.133 170.722 106.541C176.133 106.95 177.411 104.919 177.119 103.422Z" fill="#F7BC4B"/>
<path d="M145.92 108.692C145.92 108.692 141.481 106.238 142.026 102.933C142.578 99.5789 150.618 98.7576 154.549 98.3469C147.474 95.5679 138.987 98.1683 138.335 100.293C137.684 102.419 137.62 118.584 137.584 123.642C137.549 128.703 137.154 131.729 136.946 135.564C136.735 139.398 137.072 137.977 137.248 139.203C137.424 140.429 138.12 142.374 137.213 147.224C136.305 152.074 138.079 150.273 138.84 150.734C139.6 151.195 139.763 152.176 142.736 152.421C145.708 152.667 147.056 152.489 147.056 152.489C147.056 152.489 152.126 152.769 152.453 151.769C152.781 150.768 153.422 148.397 153.024 147.674C152.809 147.283 148.961 142.899 145.396 138.733L145.684 139.78L145.704 143.784C145.704 143.784 144.279 140.305 143.775 139.023C143.418 138.114 142.741 136.203 142.372 135.161C140.683 133.132 139.442 131.559 139.314 131.157C139.106 130.505 139.257 106.47 141.512 107.966C144.14 109.71 145.92 108.692 145.92 108.692Z" fill="#CE9436"/>
<path d="M175.612 64.0894C174.489 64.0783 172.292 63.3587 170.891 67.5445C169.491 71.7303 171.815 82.0347 174.039 81.4129C176.263 80.7911 176.219 75.2322 176.889 72.1197C177.558 69.0049 177.071 64.1044 175.612 64.0894Z" fill="#7A462F"/>
<path d="M175.612 64.0871C174.319 63.8383 173.779 64.9194 172.894 66.4764C171.505 68.9265 172.194 74.8236 174.403 74.4938C176.612 74.164 176.805 69.3153 177.409 67.453C178.012 65.5906 177.383 64.4297 175.612 64.0871Z" fill="#A96443"/>
<path d="M182.724 76.6841C182.724 76.6841 181.758 73.9179 180.272 70.5066C178.786 67.0954 177.901 63.9629 175.647 64.5854C173.393 65.2079 172.252 68.7279 171.921 71.4877C171.591 74.2474 172.742 77.0234 174.691 79.8414C176.256 82.1015 177.818 89.0168 180.003 92.0942C182.731 95.9392 185.108 98.2878 187.799 96.3935C190.491 94.4992 189.102 89.2402 187.254 85.6246C185.406 82.009 182.724 76.6841 182.724 76.6841Z" fill="#A96443"/>
<path d="M173.761 74.6065C171.579 71.6893 172.739 67.6396 172.739 67.6396C172.739 67.6396 172.035 68.7143 171.705 71.4741C171.374 74.2338 172.525 77.0098 174.474 79.8277C176.039 82.0879 177.818 89.0146 180.001 92.0919C180.001 92.0919 186.401 91.2713 184.491 90.6149C182.673 89.9908 181.584 90.4733 181.12 89.6047C180.214 87.9168 177.235 80.744 177.235 80.744C177.235 80.744 175.49 76.921 173.761 74.6065Z" fill="#7A462F"/>
<path d="M186.603 90.9594C186.603 90.9594 185.042 90.2756 180.911 91.3552C176.78 92.4348 178.681 93.6901 171.054 96.9923C167.147 98.6831 169.592 102.223 174.81 101.573C180.028 100.921 184.279 99.9119 187.009 97.2785C189.74 94.6428 190.012 92.9918 186.603 90.9594Z" fill="#A96443"/>
<path d="M179.216 94.0889C180.358 93.1585 182.234 91.7337 182.767 91.1281C183.18 90.658 182.715 90.8051 180.908 91.2773C176.777 92.3569 178.683 93.6903 171.057 96.9924C167.147 98.6831 177.185 95.7411 179.216 94.0889Z" fill="#7A462F"/>
<path d="M171.79 97.9575C171.219 97.5202 167.825 95.8981 165.804 95.6064C163.783 95.3148 161.537 95.7524 161.537 95.7524L157.386 97.1993C157.386 97.1993 155.924 98.6047 155.525 99.1373C155.127 99.6722 155.793 100.215 155.793 100.215C155.793 100.215 157.178 101.166 157.47 100.905C157.761 100.644 157.761 100.644 157.761 100.644C157.761 100.644 158.456 101.513 159.006 101.636C159.555 101.756 160.206 101.699 160.206 101.699C160.206 101.699 161.65 102.422 162.665 102.476C163.68 102.529 164.687 101.008 165.712 100.877C166.737 100.745 167.535 102.316 169.479 102.324C171.423 102.335 173.482 99.2498 171.79 97.9575Z" fill="#A96443"/>
<path d="M170.534 97.2668C169.209 96.6275 167.187 95.805 165.804 95.6064C163.783 95.3148 161.537 95.7524 161.537 95.7524L157.386 97.1993C157.386 97.1993 155.924 98.6047 155.525 99.1373C155.127 99.6722 155.793 100.215 155.793 100.215C155.793 100.215 157.178 101.166 157.47 100.905C157.761 100.644 157.761 100.644 157.761 100.644C157.761 100.644 158.456 101.513 159.006 101.636C159.555 101.756 160.206 101.699 160.206 101.699L160.671 100.458L166.706 97.1957C166.709 97.1959 171.148 97.5622 170.534 97.2668Z" fill="#7A462F"/>
<path d="M89.8406 131.792C89.8406 131.792 91.1007 135.928 91.9707 136.914L93.0359 134.842C93.0336 134.842 91.8349 132.67 89.8406 131.792Z" fill="#992C29"/>
<path d="M90.3628 133.56C90.3628 133.56 89.5639 136.918 89.8293 138.132L91.5859 137.66C91.5836 137.66 91.5687 135.509 90.3628 133.56Z" fill="#992C29"/>
<path d="M46.5977 147.055C46.5977 147.055 44.8775 156.094 45.1835 158.276C45.4873 160.459 44.599 163.166 43.6477 164.551C43.12 165.406 44.6566 168.765 44.6566 168.765C44.6566 168.765 47.2623 169.675 49.8529 168.917C52.1182 168.254 51.6465 166.914 50.2729 166.196C48.8881 165.471 52.4945 159.8 52.4945 159.8C52.4945 159.8 55.4991 149.96 55.7403 148.462C55.9814 146.968 48.2174 142.185 46.5977 147.055Z" fill="#1D2538"/>
<path d="M87.4576 133.901C85.2039 134.259 73.8532 133.078 73.1369 128.607C72.6085 125.303 71.4718 121.604 71.3233 118.819C71.3233 118.819 70.2153 116.793 69.2732 114.351C68.3272 111.897 68.8182 111.522 70.1775 112.252C71.5257 112.975 74.0079 115.579 74.0079 115.579C74.0079 115.579 77.4505 113.367 82.0711 113.201C86.5517 113.041 85.4333 114.515 86.9988 116.672L88.1066 118.618C88.1066 118.618 91.4389 117.023 93.5987 116.887C95.7263 116.754 96.4081 117.664 97.1835 120.056C97.9846 122.526 98.015 122.774 97.4246 124.168C96.8316 125.569 94.8473 128.15 92.7078 130.03C92.7149 130.026 89.6791 133.549 87.4576 133.901Z" fill="#1D2538"/>
<path d="M87.4577 133.901C85.2039 134.259 82.7249 136.461 82.0108 131.991C81.4824 128.687 81.9262 123.298 81.9262 123.298C81.9262 123.298 77.4576 113.363 82.0782 113.197C86.5589 113.037 86.8023 114.322 87.9648 116.314L88.7037 118.313C88.7037 118.313 91.4462 117.016 93.6058 116.883C95.7334 116.75 96.4153 117.66 97.1906 120.052C97.9917 122.522 98.0221 122.77 97.4317 124.164C96.8387 125.565 94.8545 128.146 92.715 130.026C92.715 130.026 89.6792 133.549 87.4577 133.901Z" fill="#273252"/>
<path d="M96.3865 117.864C97.1449 118.972 95.4847 120.09 94.7196 118.98C93.9504 117.862 91.6901 117.342 93.046 116.92C93.9832 116.63 95.6261 116.751 96.3865 117.864Z" fill="#121721"/>
<path d="M79.581 114.79C79.581 114.79 79.2418 111.542 79.3164 109.126C79.3898 106.819 80.6134 107.259 81.7425 109.19C82.92 111.201 84.5161 115.036 84.7962 115.799C85.0786 116.562 80.6908 117.48 79.581 114.79Z" fill="#273252"/>
<path d="M80.808 109.651C80.4777 107.321 80.8862 108.035 82.0154 109.964C83.1909 111.97 83.086 112.353 83.3683 113.119C83.6484 113.881 81.1015 111.725 80.808 109.651Z" fill="#1D2538"/>
<path d="M82.0872 161.619C81.8142 160.721 80.2004 160.611 80.1459 160.386C79.2161 156.581 79.1131 152.758 79.0047 151.862C78.7812 150.023 79.974 146.528 79.5215 142.565C79.0844 138.745 72.5317 142.067 72.9423 146.609C73.1794 149.231 74.5313 158.098 74.9215 160.507C74.9769 160.846 75.1039 161.171 75.2967 161.463L77.1546 163.454C77.5707 164.199 78.4904 163.98 80.1729 163.568C81.8345 163.161 82.4577 162.837 82.0872 161.619Z" fill="#273252"/>
<path d="M93.6244 166.863C93.5292 164.543 90.6862 164.446 90.6862 164.446C90.5356 164.134 90.0093 163.53 89.9684 163.219C89.6534 160.859 90.0699 155.467 90.0196 154.423C89.9144 152.251 90.4708 145.722 90.3292 140.718C90.1866 135.692 83.8708 139.642 83.5799 144.604C83.3734 148.137 85.641 162.337 85.8505 163.702C85.8505 163.702 88.8405 168.48 90.4207 168.403C91.9825 168.328 93.684 168.294 93.6244 166.863Z" fill="#273252"/>
<path d="M73.0537 130.238C72.0101 132.29 72.6613 133.26 70.0435 134.057C64.0894 135.874 59.2567 136.029 52.5408 137.583C48.1593 138.597 44.989 147.718 46.7177 150.382C48.4487 153.047 55.9421 152.975 60.4499 156.255C65.178 159.695 70.7548 156.095 73.8626 154.854C76.9704 153.613 85.0648 148.512 87.0895 146.64C87.8205 145.965 88.2043 144.017 88.7622 141.981C89.5694 139.031 90.9431 135.663 89.1679 132.838C87.9671 130.922 74.0972 128.188 73.0537 130.238Z" fill="#1D2538"/>
<path d="M84.3645 134.178L81.2265 139.425C81.2265 139.425 77.7185 144.227 78.0042 144.231L80.9913 150.063C80.9913 150.063 85.0673 148.51 87.0897 146.637C87.8207 145.962 89.4082 144.399 89.9662 142.36C90.7734 139.41 90.4814 137.004 90.0021 132.768L84.3645 134.178Z" fill="#273252"/>
<path d="M73.1025 129.305C73.1025 129.305 72.6005 129.889 72.617 131.141C72.617 131.141 76.4927 132.695 83.9513 134.154C87.7371 134.895 90.6761 134.471 90.6761 134.471L90.4974 132.174C90.4972 132.176 81.5528 133.261 73.1025 129.305Z" fill="#992C29"/>
<path d="M53.5492 140.679C52.9271 139.72 51.928 140.36 49.595 135.79C47.262 131.22 46.7356 123.881 50.1051 121.623C50.1051 121.623 46.5606 120.512 43.489 127.279C40.3477 134.199 47.6272 142.492 48.2999 143.141C51.2731 146.022 55.3179 143.409 53.5492 140.679Z" fill="#273252"/>
<path d="M53.9056 140.948C53.2794 139.982 51.0534 143.591 47.6069 136.62C45.7937 132.954 44.9496 123.958 50.1167 121.622C50.1167 121.622 44.5911 120.512 42.7604 127.782C40.3922 137.179 47.618 142.669 48.2949 143.325C51.294 146.235 55.6914 143.703 53.9056 140.948Z" fill="#1D2538"/>
<path d="M56.2349 149.801C56.2349 149.801 58.6682 161.722 59.8959 163.562C61.1172 165.392 61.9899 168.108 61.6191 169.635C61.2478 171.168 64.0571 173.165 64.0571 173.165C64.0571 173.165 67.837 172.934 68.4693 172.74C69.0995 172.547 70.4208 170.13 68.7628 169.947C67.0865 169.762 66.4754 162.511 66.4754 162.511C66.4754 162.511 66.4837 149.62 66.0971 148.186C65.7103 146.754 55.7731 144.841 56.2349 149.801Z" fill="#1D2538"/>
<path d="M87.5271 118.596C87.7768 118.515 87.7901 117.865 87.5568 117.145C87.3235 116.425 86.932 115.906 86.6822 115.987C86.4325 116.068 86.4192 116.717 86.6525 117.438C86.8858 118.158 87.2774 118.676 87.5271 118.596Z" fill="#121721"/>
<path d="M94.7777 127.047C94.7777 127.047 91.4813 126.873 91.3593 129.495C91.351 129.696 91.446 129.891 91.609 130.009L93.8571 131.628C93.8571 131.628 98.2617 137.044 98.9716 137.637C99.6816 138.23 102.493 139.92 104.549 137.19C106.392 134.745 105.56 130.3 103.645 129.735L94.7777 127.047Z" fill="#F5894E"/>
<path d="M98.7676 135.649C98.2019 134.009 99.4567 130.946 102.202 130.77C105.36 130.566 105.322 135.379 104.027 136.986C102.436 138.963 99.6785 138.292 98.7676 135.649Z" fill="#FFFCF3"/>
<path d="M98.9716 134.119L100.416 135.398C100.416 135.398 100.219 135.154 100.366 134.007C100.463 133.252 101.131 132.462 102.606 131.903L101.198 131.413C101.198 131.413 99.4316 131.551 98.9716 134.119Z" fill="#F5894E"/>
<path d="M98.4662 136.684C98.4662 136.684 103.224 138.908 103.716 134.245C103.802 133.439 102.728 131.91 101.012 132.252C99.0934 132.633 100.898 131.504 101.327 131.527C101.756 131.55 105.121 132.166 104.127 135.222C103.169 138.167 100.706 137.987 99.4418 137.444C98.8781 137.202 98.4662 136.684 98.4662 136.684Z" fill="#F5894E"/>
<path d="M95.7225 127.282C95.7225 127.282 92.5632 126.63 92.6422 130.823" stroke="#F7BC4B" stroke-miterlimit="10" stroke-linecap="round" stroke-linejoin="round"/>
<path d="M95.6139 127.553C95.6139 127.553 97.7809 125.074 96.172 125.731C94.5632 126.388 95.6139 127.553 95.6139 127.553Z" stroke="#F7BC4B" stroke-miterlimit="10"/>
<path d="M95.722 127.281C95.722 127.281 97.8354 125.818 98.6002 127.156C99.365 128.494 96.9622 128.367 96.5062 128.249C96.0479 128.132 95.722 127.281 95.722 127.281Z" stroke="#F7BC4B" stroke-miterlimit="10"/>
<path d="M95.7225 127.282C95.7225 127.282 94.9185 127.171 93.8955 128.135C93.2168 128.774 92.5403 130.587 92.9144 130.954" stroke="#F7BC4B" stroke-miterlimit="10" stroke-linecap="round" stroke-linejoin="round"/>
</svg>
